SplineFontDB: 3.2
FontName: IRRoya-Italic
FullName: IRRoya-Italic
FamilyName: IRRoya
Weight: Book
Copyright: Copyright (c) 2022, Information Technology Organization of Iran (ito.gov.ir)
Version: 1.000
ItalicAngle: 0
UnderlinePosition: -100
UnderlineWidth: 60
Ascent: 1638
Descent: 410
InvalidEm: 0
sfntRevision: 0x00010000
LayerCount: 2
Layer: 0 1 "Back" 1
Layer: 1 1 "Fore" 0
XUID: [1021 420 722297922 463447]
StyleMap: 0x0001
FSType: 0
OS2Version: 3
OS2_WeightWidthSlopeOnly: 0
OS2_UseTypoMetrics: 0
CreationTime: 1356420096
ModificationTime: 1662630615
PfmFamily: 17
TTFWeight: 400
TTFWidth: 5
LineGap: 100
VLineGap: 0
Panose: 2 0 5 6 0 0 0 9 0 2
OS2TypoAscent: 2100
OS2TypoAOffset: 0
OS2TypoDescent: -1300
OS2TypoDOffset: 0
OS2TypoLinegap: 300
OS2WinAscent: 2100
OS2WinAOffset: 0
OS2WinDescent: 1300
OS2WinDOffset: 0
HheadAscent: 2100
HheadAOffset: 0
HheadDescent: -1300
HheadDOffset: 0
OS2SubXSize: 1434
OS2SubYSize: 1331
OS2SubXOff: 0
OS2SubYOff: 293
OS2SupXSize: 1434
OS2SupYSize: 1331
OS2SupXOff: 0
OS2SupYOff: 928
OS2StrikeYSize: 50
OS2StrikeYPos: 250
OS2CapHeight: 2108
OS2XHeight: 707
OS2FamilyClass: 2048
OS2Vendor: 'PARS'
OS2CodePages: 20000041.00000000
OS2UnicodeRanges: 00002003.00000000.00000000.00000000
Lookup: 1 1 0 "'init' Initial Forms in Arabic lookup 0" { "'init' Initial Forms in Arabic lookup 0 subtable"  } ['init' ('arab' <'dflt' > ) ]
Lookup: 1 1 0 "'isol' Isolated Forms in Arabic lookup 1" { "'isol' Isolated Forms in Arabic lookup 1 subtable"  } ['isol' ('arab' <'dflt' > ) ]
Lookup: 1 1 0 "'medi' Medial Forms in Arabic lookup 2" { "'medi' Medial Forms in Arabic lookup 2 subtable"  } ['medi' ('arab' <'dflt' > ) ]
Lookup: 1 1 0 "'fina' Terminal Forms in Arabic lookup 3" { "'fina' Terminal Forms in Arabic lookup 3 subtable"  } ['fina' ('arab' <'dflt' > ) ]
Lookup: 4 1 0 "'ccmp' Glyph Composition/Decomposition in Arabic lookup 4" { "'ccmp' Glyph Composition/Decomposition in Arabic lookup 4 subtable"  } ['ccmp' ('arab' <'dflt' > ) ]

StartChar: quotedbl
Encoding: 34 34 1
Width: 480
Flags: W
LayerCount: 2
Fore
SplineSet
-203 1325 m 1,0,-1
 -101 1325 l 1,1,-1
 -55 1003 l 1,2,-1
 -123 1003 l 1,3,-1
 -203 1325 l 1,0,-1
9 1325 m 1,4,-1
 110 1325 l 1,5,-1
 156 1003 l 1,6,-1
 89 1003 l 1,7,-1
 9 1325 l 1,4,-1
EndSplineSet
EndChar

StartChar: numbersign
Encoding: 35 35 2
Width: 870
Flags: W
LayerCount: 2
Fore
SplineSet
899 376 m 1,0,-1
 709 376 l 1,1,-1
 576 0 l 1,2,-1
 475 0 l 1,3,-1
 609 376 l 1,4,-1
 375 376 l 1,5,-1
 239 0 l 1,6,-1
 138 0 l 1,7,-1
 274 376 l 1,8,-1
 87 376 l 1,9,-1
 108 472 l 1,10,-1
 311 472 l 1,11,-1
 396 705 l 1,12,-1
 205 705 l 1,13,-1
 226 801 l 1,14,-1
 431 801 l 1,15,-1
 560 1153 l 1,16,-1
 661 1153 l 1,17,-1
 532 801 l 1,18,-1
 763 801 l 1,19,-1
 891 1153 l 1,20,-1
 992 1153 l 1,21,-1
 864 801 l 1,22,-1
 1034 801 l 1,23,-1
 1013 705 l 1,24,-1
 830 705 l 1,25,-1
 746 472 l 1,26,-1
 920 472 l 1,27,-1
 899 376 l 1,0,-1
497 705 m 1,28,-1
 412 472 l 1,29,-1
 645 472 l 1,30,-1
 729 705 l 1,31,-1
 497 705 l 1,28,-1
EndSplineSet
EndChar

StartChar: dollar
Encoding: 36 36 3
Width: 870
Flags: W
LayerCount: 2
Fore
SplineSet
898 870 m 1,0,1
 899 981 899 981 850 1038 c 128,-1,2
 801 1095 801 1095 695 1109 c 1,3,-1
 604 681 l 1,4,5
 673 635 673 635 717 603.5 c 128,-1,6
 761 572 761 572 788.5 547.5 c 128,-1,7
 816 523 816 523 830.5 501 c 128,-1,8
 845 479 845 479 857 452 c 0,9,10
 867 426 867 426 867.5 383.5 c 128,-1,11
 868 341 868 341 858 296 c 0,12,13
 845 233 845 233 810 181 c 128,-1,14
 775 129 775 129 724 93 c 0,15,16
 697 74 697 74 670.5 60 c 128,-1,17
 644 46 644 46 614 35.5 c 128,-1,18
 584 25 584 25 546.5 16.5 c 128,-1,19
 509 8 509 8 460 0 c 1,20,-1
 427 -151 l 1,21,-1
 367 -151 l 1,22,-1
 400 0 l 1,23,24
 345 2 345 2 303.5 7 c 128,-1,25
 262 12 262 12 226.5 22 c 128,-1,26
 191 32 191 32 159.5 48 c 128,-1,27
 128 64 128 64 94 88 c 1,28,-1
 142 315 l 1,29,-1
 169 315 l 1,30,31
 171 178 171 178 229 114 c 128,-1,32
 287 50 287 50 410 48 c 1,33,-1
 514 540 l 1,34,35
 474 566 474 566 446 585 c 128,-1,36
 418 604 418 604 398.5 620 c 128,-1,37
 379 636 379 636 363.5 651 c 128,-1,38
 348 666 348 666 333 684 c 0,39,40
 290 733 290 733 278 781 c 128,-1,41
 266 829 266 829 279 892 c 0,42,43
 291 949 291 949 326 998.5 c 128,-1,44
 361 1048 361 1048 414 1083 c 0,45,46
 439 1100 439 1100 462.5 1112 c 128,-1,47
 486 1124 486 1124 513 1132 c 128,-1,48
 540 1140 540 1140 571.5 1145.5 c 128,-1,49
 603 1151 603 1151 645 1156 c 1,50,-1
 669 1266 l 1,51,-1
 729 1266 l 1,52,-1
 705 1156 l 1,53,54
 759 1149 759 1149 799 1140.5 c 128,-1,55
 839 1132 839 1132 870 1121 c 128,-1,56
 901 1110 901 1110 923.5 1096 c 128,-1,57
 946 1082 946 1082 964 1063 c 1,58,-1
 923 870 l 1,59,-1
 898 870 l 1,0,1
634 1109 m 1,60,61
 447 1073 447 1073 416 930 c 0,62,63
 410 900 410 900 412 875 c 128,-1,64
 414 850 414 850 429.5 825.5 c 128,-1,65
 445 801 445 801 474 773 c 128,-1,66
 503 745 503 745 549 709 c 1,67,-1
 634 1109 l 1,60,61
470 48 m 1,68,69
 577 68 577 68 635 117 c 128,-1,70
 693 166 693 166 711 254 c 0,71,72
 720 294 720 294 718 325 c 128,-1,73
 716 356 716 356 700 384.5 c 128,-1,74
 684 413 684 413 652 442.5 c 128,-1,75
 620 472 620 472 568 510 c 1,76,-1
 470 48 l 1,68,69
EndSplineSet
EndChar

StartChar: percent
Encoding: 37 37 4
Width: 1450
Flags: W
LayerCount: 2
Fore
SplineSet
1301 646 m 0,0,1
 1389 646 1389 646 1425 598.5 c 128,-1,2
 1461 551 1461 551 1441 460 c 0,3,4
 1430 409 1430 409 1409 358 c 128,-1,5
 1388 307 1388 307 1358 259 c 128,-1,6
 1328 211 1328 211 1291 167.5 c 128,-1,7
 1254 124 1254 124 1212 88 c 0,8,9
 1157 43 1157 43 1103.5 21.5 c 128,-1,10
 1050 0 1050 0 990 0 c 0,11,12
 943 0 943 0 907.5 16 c 128,-1,13
 872 32 872 32 851.5 61 c 128,-1,14
 831 90 831 90 824.5 131.5 c 128,-1,15
 818 173 818 173 829 224 c 0,16,17
 847 306 847 306 895 382 c 128,-1,18
 943 458 943 458 1009 516.5 c 128,-1,19
 1075 575 1075 575 1151 610.5 c 128,-1,20
 1227 646 1227 646 1301 646 c 0,0,1
1301 590 m 0,21,22
 1261 590 1261 590 1218.5 565.5 c 128,-1,23
 1176 541 1176 541 1130 489 c 0,24,25
 1099 454 1099 454 1069 412 c 128,-1,26
 1039 370 1039 370 1014.5 326 c 128,-1,27
 990 282 990 282 973 240 c 128,-1,28
 956 198 956 198 948 164 c 0,29,30
 938 113 938 113 960.5 82.5 c 128,-1,31
 983 52 983 52 1031 52 c 256,32,33
 1079 52 1079 52 1123.5 75.5 c 128,-1,34
 1168 99 1168 99 1221 151 c 0,35,36
 1252 182 1252 182 1280 218.5 c 128,-1,37
 1308 255 1308 255 1330.5 294.5 c 128,-1,38
 1353 334 1353 334 1369.5 373.5 c 128,-1,39
 1386 413 1386 413 1394 450 c 0,40,41
 1400 479 1400 479 1395.5 504.5 c 128,-1,42
 1391 530 1391 530 1378.5 549 c 128,-1,43
 1366 568 1366 568 1346 579 c 128,-1,44
 1326 590 1326 590 1301 590 c 0,21,22
428 -23 m 1,45,-1
 345 -23 l 1,46,-1
 1186 1067 l 1,47,48
 1157 1052 1157 1052 1133 1042 c 128,-1,49
 1109 1032 1109 1032 1085.5 1026 c 128,-1,50
 1062 1020 1062 1020 1037.5 1017.5 c 128,-1,51
 1013 1015 1013 1015 984 1015 c 0,52,53
 946 1015 946 1015 921.5 1019 c 128,-1,54
 897 1023 897 1023 875 1032 c 1,55,56
 877 1009 877 1009 876 991.5 c 128,-1,57
 875 974 875 974 870 955 c 0,58,59
 860 904 860 904 836.5 850.5 c 128,-1,60
 813 797 813 797 779.5 746.5 c 128,-1,61
 746 696 746 696 705 652 c 128,-1,62
 664 608 664 608 617 574.5 c 128,-1,63
 570 541 570 541 519.5 522 c 128,-1,64
 469 503 469 503 418 503 c 0,65,66
 375 503 375 503 341.5 520.5 c 128,-1,67
 308 538 308 538 286.5 568 c 128,-1,68
 265 598 265 598 257.5 638.5 c 128,-1,69
 250 679 250 679 259 724 c 0,70,71
 277 807 277 807 325.5 884.5 c 128,-1,72
 374 962 374 962 440 1021.5 c 128,-1,73
 506 1081 506 1081 583.5 1117 c 128,-1,74
 661 1153 661 1153 736 1153 c 0,75,76
 756 1153 756 1153 771 1151 c 128,-1,77
 786 1149 786 1149 798 1143.5 c 128,-1,78
 810 1138 810 1138 822 1129 c 128,-1,79
 834 1120 834 1120 847 1105 c 0,80,81
 873 1078 873 1078 904 1068 c 128,-1,82
 935 1058 935 1058 988 1058 c 0,83,84
 1028 1058 1028 1058 1064 1064 c 128,-1,85
 1100 1070 1100 1070 1135 1084 c 128,-1,86
 1170 1098 1170 1098 1206.5 1120.5 c 128,-1,87
 1243 1143 1243 1143 1285 1176 c 1,88,-1
 1352 1176 l 1,89,-1
 428 -23 l 1,45,-1
831 1045 m 1,90,91
 812 1050 812 1050 799.5 1054.5 c 128,-1,92
 787 1059 787 1059 777.5 1064 c 128,-1,93
 768 1069 768 1069 760 1075 c 128,-1,94
 752 1081 752 1081 744 1090 c 0,95,96
 738 1097 738 1097 734 1098 c 128,-1,97
 730 1099 730 1099 724 1100 c 0,98,99
 683 1100 683 1100 628.5 1059.5 c 128,-1,100
 574 1019 574 1019 521 947 c 0,101,102
 497 914 497 914 474 876.5 c 128,-1,103
 451 839 451 839 432 802 c 128,-1,104
 413 765 413 765 399.5 730 c 128,-1,105
 386 695 386 695 380 668 c 0,106,107
 370 620 370 620 392 591.5 c 128,-1,108
 414 563 414 563 460 563 c 0,109,110
 513 563 513 563 571.5 597 c 128,-1,111
 630 631 630 631 681.5 687 c 128,-1,112
 733 743 733 743 773 814 c 128,-1,113
 813 885 813 885 828 959 c 0,114,115
 836 997 836 997 831 1045 c 1,90,91
EndSplineSet
EndChar

StartChar: ampersand
Encoding: 38 38 5
Width: 1354
Flags: W
LayerCount: 2
Fore
SplineSet
1387 705 m 1,0,1
 1353 700 1353 700 1328 693.5 c 128,-1,2
 1303 687 1303 687 1282 676 c 128,-1,3
 1261 665 1261 665 1241.5 647.5 c 128,-1,4
 1222 630 1222 630 1202 603 c 2,5,-1
 1138 522 l 2,6,7
 1111 486 1111 486 1085.5 455.5 c 128,-1,8
 1060 425 1060 425 1033.5 394.5 c 128,-1,9
 1007 364 1007 364 977 332 c 128,-1,10
 947 300 947 300 910 261 c 1,11,12
 997 101 997 101 1144 101 c 0,13,14
 1168 101 1168 101 1188.5 105.5 c 128,-1,15
 1209 110 1209 110 1229 120.5 c 128,-1,16
 1249 131 1249 131 1271 149 c 128,-1,17
 1293 167 1293 167 1320 193 c 1,18,-1
 1342 174 l 1,19,20
 1284 80 1284 80 1203.5 28.5 c 128,-1,21
 1123 -23 1123 -23 1038 -23 c 0,22,23
 1000 -23 1000 -23 966 -14 c 128,-1,24
 932 -5 932 -5 901 14 c 128,-1,25
 870 33 870 33 838.5 63.5 c 128,-1,26
 807 94 807 94 775 136 c 1,27,28
 717 93 717 93 665.5 62.5 c 128,-1,29
 614 32 614 32 565 13 c 128,-1,30
 516 -6 516 -6 467.5 -14.5 c 128,-1,31
 419 -23 419 -23 366 -23 c 0,32,33
 225 -23 225 -23 161.5 47.5 c 128,-1,34
 98 118 98 118 124 244 c 0,35,36
 148 355 148 355 234 445.5 c 128,-1,37
 320 536 320 536 478 618 c 2,38,-1
 551 656 l 1,39,40
 543 705 543 705 539.5 741.5 c 128,-1,41
 536 778 536 778 535 806.5 c 128,-1,42
 534 835 534 835 536.5 859.5 c 128,-1,43
 539 884 539 884 545 909 c 0,44,45
 556 964 556 964 587.5 1013 c 128,-1,46
 619 1062 619 1062 663 1098 c 128,-1,47
 707 1134 707 1134 760 1155 c 128,-1,48
 813 1176 813 1176 869 1176 c 0,49,50
 920 1176 920 1176 960.5 1160.5 c 128,-1,51
 1001 1145 1001 1145 1026 1117.5 c 128,-1,52
 1051 1090 1051 1090 1060.5 1051 c 128,-1,53
 1070 1012 1070 1012 1060 966 c 0,54,55
 1051 923 1051 923 1025.5 880 c 128,-1,56
 1000 837 1000 837 967 807 c 0,57,58
 945 787 945 787 922.5 770.5 c 128,-1,59
 900 754 900 754 872.5 738 c 128,-1,60
 845 722 845 722 810 705.5 c 128,-1,61
 775 689 775 689 726 668 c 1,62,63
 743 612 743 612 759 566 c 128,-1,64
 775 520 775 520 793 478 c 128,-1,65
 811 436 811 436 832 395.5 c 128,-1,66
 853 355 853 355 879 310 c 1,67,68
 933 365 933 365 973 411 c 128,-1,69
 1013 457 1013 457 1040.5 495.5 c 128,-1,70
 1068 534 1068 534 1084 566 c 128,-1,71
 1100 598 1100 598 1106 626 c 0,72,73
 1110 645 1110 645 1108 659 c 128,-1,74
 1106 673 1106 673 1094.5 682 c 128,-1,75
 1083 691 1083 691 1063.5 696.5 c 128,-1,76
 1044 702 1044 702 1011 705 c 1,77,-1
 1019 741 l 1,78,-1
 1395 741 l 1,79,-1
 1387 705 l 1,0,1
711 724 m 1,80,81
 831 782 831 782 892 840.5 c 128,-1,82
 953 899 953 899 968 973 c 0,83,84
 975 1005 975 1005 970.5 1032 c 128,-1,85
 966 1059 966 1059 951.5 1079 c 128,-1,86
 937 1099 937 1099 914 1110 c 128,-1,87
 891 1121 891 1121 861 1121 c 0,88,89
 801 1121 801 1121 755.5 1081 c 128,-1,90
 710 1041 710 1041 696 978 c 0,91,92
 690 949 690 949 687.5 921 c 128,-1,93
 685 893 685 893 687.5 863 c 128,-1,94
 690 833 690 833 695.5 799 c 128,-1,95
 701 765 701 765 711 724 c 1,80,81
565 597 m 1,96,97
 501 561 501 561 454.5 527.5 c 128,-1,98
 408 494 408 494 376.5 460.5 c 128,-1,99
 345 427 345 427 326.5 391 c 128,-1,100
 308 355 308 355 299 314 c 0,101,102
 288 263 288 263 296.5 218.5 c 128,-1,103
 305 174 305 174 328.5 140.5 c 128,-1,104
 352 107 352 107 389 87.5 c 128,-1,105
 426 68 426 68 472 68 c 0,106,107
 526 68 526 68 589 93.5 c 128,-1,108
 652 119 652 119 741 181 c 1,109,110
 714 227 714 227 691.5 269.5 c 128,-1,111
 669 312 669 312 648.5 360 c 128,-1,112
 628 408 628 408 608 465 c 128,-1,113
 588 522 588 522 565 597 c 1,96,97
EndSplineSet
EndChar

StartChar: quotesingle
Encoding: 39 39 6
Width: 384
Flags: W
LayerCount: 2
Fore
SplineSet
-139 1325 m 1,0,-1
 -38 1325 l 1,1,-1
 7 1003 l 1,2,-1
 -59 1003 l 1,3,-1
 -139 1325 l 1,0,-1
EndSplineSet
EndChar

StartChar: asterisk
Encoding: 42 42 7
Width: 774
Flags: W
LayerCount: 2
Fore
SplineSet
581 713 m 1,0,-1
 550 569 l 2,1,2
 547 555 547 555 537 545 c 128,-1,3
 527 535 527 535 512 535 c 2,4,-1
 461 535 l 2,5,6
 453 535 453 535 444.5 545 c 128,-1,7
 436 555 436 555 439 569 c 2,8,-1
 470 713 l 1,9,-1
 351 612 l 1,10,11
 319 594 319 594 294 612 c 1,12,-1
 270 645 l 2,13,14
 256 668 256 668 286 694 c 2,15,-1
 409 797 l 1,16,-1
 265 797 l 2,17,18
 251 797 251 797 240.5 806 c 128,-1,19
 230 815 230 815 233 831 c 2,20,-1
 244 881 l 2,21,22
 246 891 246 891 260.5 900 c 128,-1,23
 275 909 275 909 289 909 c 2,24,-1
 424 909 l 1,25,-1
 347 1010 l 2,26,27
 336 1022 336 1022 338 1036.5 c 128,-1,28
 340 1051 340 1051 353 1065 c 2,29,-1
 396 1096 l 2,30,31
 409 1106 409 1106 421 1105 c 128,-1,32
 433 1104 433 1104 442 1090 c 2,33,-1
 528 985 l 1,34,-1
 561 1141 l 2,35,36
 564 1153 564 1153 576.5 1164.5 c 128,-1,37
 589 1176 589 1176 597 1176 c 2,38,-1
 648 1176 l 2,39,40
 663 1176 663 1176 669 1164.5 c 128,-1,41
 675 1153 675 1153 672 1141 c 2,42,-1
 640 991 l 1,43,-1
 769 1096 l 2,44,45
 784 1110 784 1110 796.5 1111 c 128,-1,46
 809 1112 809 1112 826 1104 c 1,47,-1
 844 1065 l 1,48,49
 853 1057 853 1057 850.5 1044.5 c 128,-1,50
 848 1032 848 1032 831 1016 c 2,51,-1
 705 909 l 1,52,-1
 861 909 l 2,53,54
 871 909 871 909 881 900 c 128,-1,55
 891 891 891 891 889 881 c 2,56,-1
 878 831 l 2,57,58
 875 815 875 815 861 806 c 128,-1,59
 847 797 847 797 837 797 c 2,60,-1
 673 797 l 1,61,-1
 763 694 l 1,62,63
 776 668 776 668 751 637 c 1,64,-1
 714 606 l 2,65,66
 687 588 687 588 667 612 c 2,67,-1
 581 713 l 1,0,-1
EndSplineSet
EndChar

StartChar: plus
Encoding: 43 43 8
Width: 864
Flags: W
LayerCount: 2
Fore
SplineSet
286 326 m 1,0,-1
 26 326 l 1,1,-1
 -1 459 l 1,2,-1
 258 459 l 1,3,-1
 202 723 l 1,4,-1
 335 723 l 1,5,-1
 391 459 l 1,6,-1
 664 459 l 1,7,-1
 692 326 l 1,8,-1
 419 326 l 1,9,-1
 475 63 l 1,10,-1
 342 63 l 1,11,-1
 286 326 l 1,0,-1
EndSplineSet
EndChar

StartChar: hyphen
Encoding: 45 45 9
Width: 894
Flags: W
LayerCount: 2
Fore
SplineSet
26 326 m 1,0,-1
 -1 459 l 1,1,-1
 664 459 l 1,2,-1
 692 326 l 1,3,-1
 26 326 l 1,0,-1
EndSplineSet
EndChar

StartChar: period
Encoding: 46 46 10
Width: 589
Flags: W
LayerCount: 2
Fore
SplineSet
487 104 m 0,0,1
 497 59 497 59 473.5 28.5 c 128,-1,2
 450 -2 450 -2 405 -2 c 0,3,4
 383 -2 383 -2 362 6.5 c 128,-1,5
 341 15 341 15 323.5 29 c 128,-1,6
 306 43 306 43 293.5 62.5 c 128,-1,7
 281 82 281 82 276 104 c 0,8,9
 267 148 267 148 291.5 178.5 c 128,-1,10
 316 209 316 209 360 209 c 0,11,12
 382 209 382 209 403 200.5 c 128,-1,13
 424 192 424 192 441 178 c 128,-1,14
 458 164 458 164 470 145 c 128,-1,15
 482 126 482 126 487 104 c 0,0,1
EndSplineSet
EndChar

StartChar: slash
Encoding: 47 47 11
Width: 423
Flags: W
LayerCount: 2
Fore
SplineSet
615 1119 m 1,0,-1
 92 -93 l 1,1,-1
 23 -93 l 1,2,-1
 547 1119 l 1,3,-1
 615 1119 l 1,0,-1
EndSplineSet
EndChar

StartChar: zero
Encoding: 48 48 12
Width: 960
Flags: W
LayerCount: 2
Fore
SplineSet
731 1176 m 0,0,1
 816 1176 816 1176 878.5 1132.5 c 128,-1,2
 941 1089 941 1089 975 1009.5 c 128,-1,3
 1009 930 1009 930 1014 819.5 c 128,-1,4
 1019 709 1019 709 991 575 c 0,5,6
 974 496 974 496 946 420 c 128,-1,7
 918 344 918 344 881.5 277.5 c 128,-1,8
 845 211 845 211 802.5 156.5 c 128,-1,9
 760 102 760 102 715 66 c 0,10,11
 657 20 657 20 597.5 -2.5 c 128,-1,12
 538 -25 538 -25 469 -25 c 0,13,14
 393 -25 393 -25 335 5.5 c 128,-1,15
 277 36 277 36 240 94 c 0,16,17
 217 130 217 130 203 184.5 c 128,-1,18
 189 239 189 239 184.5 304.5 c 128,-1,19
 180 370 180 370 185.5 442 c 128,-1,20
 191 514 191 514 206 585 c 0,21,22
 222 661 222 661 249.5 735.5 c 128,-1,23
 277 810 277 810 313 876 c 128,-1,24
 349 942 349 942 391.5 996 c 128,-1,25
 434 1050 434 1050 479 1086 c 0,26,27
 538 1132 538 1132 598.5 1154 c 128,-1,28
 659 1176 659 1176 731 1176 c 0,0,1
717 1131 m 0,29,30
 489 1131 489 1131 369 569 c 0,31,32
 253 21 253 21 479 21 c 256,33,34
 705 21 705 21 822 571 c 0,35,36
 881 849 881 849 855 990 c 128,-1,37
 829 1131 829 1131 717 1131 c 0,29,30
EndSplineSet
EndChar

StartChar: one
Encoding: 49 49 13
Width: 960
Flags: W
LayerCount: 2
Fore
SplineSet
814 1173 m 1,0,-1
 592 129 l 2,1,2
 585 97 585 97 587.5 77.5 c 128,-1,3
 590 58 590 58 605.5 47 c 128,-1,4
 621 36 621 36 652.5 31.5 c 128,-1,5
 684 27 684 27 736 26 c 1,6,-1
 731 0 l 1,7,-1
 251 0 l 1,8,-1
 256 26 l 1,9,10
 283 27 283 27 302.5 28.5 c 128,-1,11
 322 30 322 30 336.5 32 c 128,-1,12
 351 34 351 34 362 38 c 128,-1,13
 373 42 373 42 384 48 c 0,14,15
 431 73 431 73 450 161 c 2,16,-1
 617 950 l 2,17,18
 635 1032 635 1032 583 1032 c 0,19,20
 560 1032 560 1032 531 1023.5 c 128,-1,21
 502 1015 502 1015 449 994 c 1,22,-1
 454 1018 l 1,23,-1
 801 1176 l 1,24,-1
 814 1173 l 1,0,-1
EndSplineSet
EndChar

StartChar: two
Encoding: 50 50 14
Width: 960
Flags: W
LayerCount: 2
Fore
SplineSet
776 0 m 1,0,-1
 97 0 l 1,1,-1
 101 21 l 1,2,-1
 481 350 l 2,3,4
 618 468 618 468 699.5 583.5 c 128,-1,5
 781 699 781 699 803 802 c 0,6,7
 815 857 815 857 806.5 902.5 c 128,-1,8
 798 948 798 948 773 980 c 128,-1,9
 748 1012 748 1012 706.5 1030 c 128,-1,10
 665 1048 665 1048 610 1048 c 0,11,12
 565 1048 565 1048 527 1036.5 c 128,-1,13
 489 1025 489 1025 454 998.5 c 128,-1,14
 419 972 419 972 384 929 c 128,-1,15
 349 886 349 886 309 822 c 1,16,-1
 275 830 l 1,17,18
 296 876 296 876 314.5 911 c 128,-1,19
 333 946 333 946 351.5 973.5 c 128,-1,20
 370 1001 370 1001 391 1023.5 c 128,-1,21
 412 1046 412 1046 438 1068 c 0,22,23
 498 1121 498 1121 567 1148.5 c 128,-1,24
 636 1176 636 1176 710 1176 c 0,25,26
 777 1176 777 1176 831 1152.5 c 128,-1,27
 885 1129 885 1129 920 1087.5 c 128,-1,28
 955 1046 955 1046 968 990 c 128,-1,29
 981 934 981 934 967 869 c 0,30,31
 956 818 956 818 932.5 767 c 128,-1,32
 909 716 909 716 870 663.5 c 128,-1,33
 831 611 831 611 777.5 555.5 c 128,-1,34
 724 500 724 500 653 439 c 2,35,-1
 296 133 l 1,36,-1
 712 133 l 2,37,38
 741 133 741 133 762 137 c 128,-1,39
 783 141 783 141 803.5 153 c 128,-1,40
 824 165 824 165 846.5 187.5 c 128,-1,41
 869 210 869 210 901 247 c 1,42,-1
 922 239 l 1,43,-1
 776 0 l 1,0,-1
EndSplineSet
EndChar

StartChar: three
Encoding: 51 51 15
Width: 960
Flags: W
LayerCount: 2
Fore
SplineSet
437 597 m 1,0,1
 486 613 486 613 521.5 626.5 c 128,-1,2
 557 640 557 640 584.5 653.5 c 128,-1,3
 612 667 612 667 635 682 c 128,-1,4
 658 697 658 697 682 717 c 0,5,6
 723 750 723 750 750.5 794 c 128,-1,7
 778 838 778 838 788 886 c 0,8,9
 797 927 797 927 790 961.5 c 128,-1,10
 783 996 783 996 763.5 1020.5 c 128,-1,11
 744 1045 744 1045 711.5 1059 c 128,-1,12
 679 1073 679 1073 637 1073 c 0,13,14
 554 1073 554 1073 482.5 1028 c 128,-1,15
 411 983 411 983 338 887 c 1,16,-1
 313 895 l 1,17,18
 335 934 335 934 354.5 963.5 c 128,-1,19
 374 993 374 993 392 1015.5 c 128,-1,20
 410 1038 410 1038 429 1056 c 128,-1,21
 448 1074 448 1074 471 1091 c 0,22,23
 529 1133 529 1133 589.5 1154.5 c 128,-1,24
 650 1176 650 1176 716 1176 c 0,25,26
 776 1176 776 1176 822 1158.5 c 128,-1,27
 868 1141 868 1141 897.5 1109.5 c 128,-1,28
 927 1078 927 1078 937.5 1034 c 128,-1,29
 948 990 948 990 937 938 c 0,30,31
 929 903 929 903 914 872.5 c 128,-1,32
 899 842 899 842 873.5 813.5 c 128,-1,33
 848 785 848 785 811 757 c 128,-1,34
 774 729 774 729 723 698 c 1,35,36
 748 686 748 686 767.5 675.5 c 128,-1,37
 787 665 787 665 801 654 c 128,-1,38
 815 643 815 643 826 631.5 c 128,-1,39
 837 620 837 620 847 606 c 0,40,41
 876 564 876 564 884 506 c 128,-1,42
 892 448 892 448 878 382 c 0,43,44
 858 290 858 290 806 214.5 c 128,-1,45
 754 139 754 139 678.5 86 c 128,-1,46
 603 33 603 33 508.5 4 c 128,-1,47
 414 -25 414 -25 310 -25 c 0,48,49
 219 -25 219 -25 172.5 2 c 128,-1,50
 126 29 126 29 135 75 c 0,51,52
 141 102 141 102 162.5 119 c 128,-1,53
 184 136 184 136 214 136 c 0,54,55
 237 136 237 136 260 126 c 128,-1,56
 283 116 283 116 316 93 c 0,57,58
 357 61 357 61 387 49.5 c 128,-1,59
 417 38 417 38 452 38 c 0,60,61
 500 38 500 38 545.5 58 c 128,-1,62
 591 78 591 78 629 113 c 128,-1,63
 667 148 667 148 694.5 195 c 128,-1,64
 722 242 722 242 734 297 c 0,65,66
 743 342 743 342 739.5 383 c 128,-1,67
 736 424 736 424 720.5 457.5 c 128,-1,68
 705 491 705 491 677 516 c 128,-1,69
 649 541 649 541 612 555 c 0,70,71
 599 561 599 561 583 565 c 128,-1,72
 567 569 567 569 546.5 571 c 128,-1,73
 526 573 526 573 499 574 c 128,-1,74
 472 575 472 575 433 575 c 1,75,-1
 437 597 l 1,0,1
EndSplineSet
EndChar

StartChar: four
Encoding: 52 52 16
Width: 960
Flags: W
LayerCount: 2
Fore
SplineSet
928 291 m 1,0,-1
 750 291 l 1,1,-1
 689 0 l 1,2,-1
 555 0 l 1,3,-1
 616 291 l 1,4,-1
 127 291 l 1,5,-1
 151 402 l 1,6,-1
 862 1176 l 1,7,-1
 938 1176 l 1,8,-1
 774 402 l 1,9,-1
 952 402 l 1,10,-1
 928 291 l 1,0,-1
765 1000 m 1,11,-1
 220 402 l 1,12,-1
 638 402 l 1,13,-1
 765 1000 l 1,11,-1
EndSplineSet
EndChar

StartChar: five
Encoding: 53 53 17
Width: 960
Flags: W
LayerCount: 2
Fore
SplineSet
471 867 m 1,0,1
 545 853 545 853 600 838 c 128,-1,2
 655 823 655 823 696.5 804.5 c 128,-1,3
 738 786 738 786 767 764 c 128,-1,4
 796 742 796 742 819 714 c 0,5,6
 845 681 845 681 861.5 649 c 128,-1,7
 878 617 878 617 884.5 581.5 c 128,-1,8
 891 546 891 546 889 507 c 128,-1,9
 887 468 887 468 877 422 c 0,10,11
 856 322 856 322 811.5 246.5 c 128,-1,12
 767 171 767 171 694 111 c 0,13,14
 614 45 614 45 516.5 10 c 128,-1,15
 419 -25 419 -25 307 -25 c 0,16,17
 207 -25 207 -25 157 3.5 c 128,-1,18
 107 32 107 32 118 83 c 0,19,20
 132 148 132 148 207 148 c 0,21,22
 234 148 234 148 262.5 134.5 c 128,-1,23
 291 121 291 121 327 90 c 0,24,25
 359 61 359 61 382.5 50.5 c 128,-1,26
 406 40 406 40 432 40 c 0,27,28
 483 40 483 40 532 63 c 128,-1,29
 581 86 581 86 622.5 126 c 128,-1,30
 664 166 664 166 694 220.5 c 128,-1,31
 724 275 724 275 737 337 c 0,32,33
 765 467 765 467 712 550.5 c 128,-1,34
 659 634 659 634 519 683 c 0,35,36
 468 700 468 700 420 708.5 c 128,-1,37
 372 717 372 717 330 717 c 0,38,39
 308 717 308 717 311 731 c 0,40,41
 311 733 311 733 315 739 c 2,42,-1
 593 1153 l 1,43,-1
 956 1153 l 2,44,45
 984 1153 984 1153 1002 1162 c 128,-1,46
 1020 1171 1020 1171 1046 1198 c 1,47,-1
 1059 1186 l 1,48,-1
 959 1030 l 2,49,50
 954 1021 954 1021 945.5 1018 c 128,-1,51
 937 1015 937 1015 916 1015 c 2,52,-1
 575 1015 l 1,53,-1
 471 867 l 1,0,1
EndSplineSet
EndChar

StartChar: six
Encoding: 54 54 18
Width: 960
Flags: W
LayerCount: 2
Fore
SplineSet
1072 1163 m 1,0,1
 966 1146 966 1146 870 1103 c 128,-1,2
 774 1060 774 1060 694 996 c 128,-1,3
 614 932 614 932 551.5 848.5 c 128,-1,4
 489 765 489 765 450 666 c 1,5,6
 496 691 496 691 529 706.5 c 128,-1,7
 562 722 562 722 588.5 730.5 c 128,-1,8
 615 739 615 739 638 742 c 128,-1,9
 661 745 661 745 690 745 c 0,10,11
 765 745 765 745 820 719.5 c 128,-1,12
 875 694 875 694 907.5 646.5 c 128,-1,13
 940 599 940 599 948.5 532 c 128,-1,14
 957 465 957 465 940 382 c 0,15,16
 921 292 921 292 878.5 217 c 128,-1,17
 836 142 836 142 776 88 c 128,-1,18
 716 34 716 34 642.5 4.5 c 128,-1,19
 569 -25 569 -25 488 -25 c 0,20,21
 398 -25 398 -25 333.5 13 c 128,-1,22
 269 51 269 51 233 118.5 c 128,-1,23
 197 186 197 186 190 279.5 c 128,-1,24
 183 373 183 373 207 485 c 0,25,26
 245 664 245 664 348 806 c 128,-1,27
 451 948 451 948 618 1051 c 0,28,29
 673 1085 673 1085 722.5 1107.5 c 128,-1,30
 772 1130 772 1130 824.5 1146 c 128,-1,31
 877 1162 877 1162 937 1172 c 128,-1,32
 997 1182 997 1182 1074 1191 c 1,33,-1
 1072 1163 l 1,0,1
608 665 m 0,34,35
 560 665 560 665 519 653.5 c 128,-1,36
 478 642 478 642 445 621 c 0,37,38
 415 601 415 601 396 563 c 128,-1,39
 377 525 377 525 363 458 c 0,40,41
 341 357 341 357 341 276.5 c 128,-1,42
 341 196 341 196 361 140 c 128,-1,43
 381 84 381 84 421 54.5 c 128,-1,44
 461 25 461 25 518 25 c 0,45,46
 612 25 612 25 676 100.5 c 128,-1,47
 740 176 740 176 771 322 c 0,48,49
 788 404 788 404 785.5 467.5 c 128,-1,50
 783 531 783 531 762.5 575 c 128,-1,51
 742 619 742 619 703 642 c 128,-1,52
 664 665 664 665 608 665 c 0,34,35
EndSplineSet
EndChar

StartChar: seven
Encoding: 55 55 19
Width: 960
Flags: W
LayerCount: 2
Fore
SplineSet
1066 1125 m 1,0,-1
 454 -14 l 1,1,-1
 341 -14 l 1,2,-1
 906 1023 l 1,3,-1
 528 1023 l 2,4,5
 492 1023 492 1023 465.5 1017.5 c 128,-1,6
 439 1012 439 1012 413.5 997 c 128,-1,7
 388 982 388 982 361.5 954.5 c 128,-1,8
 335 927 335 927 297 882 c 1,9,-1
 270 897 l 1,10,-1
 428 1153 l 1,11,-1
 1072 1153 l 1,12,-1
 1066 1125 l 1,0,-1
EndSplineSet
EndChar

StartChar: eight
Encoding: 56 56 20
Width: 960
Flags: W
LayerCount: 2
Fore
SplineSet
687 646 m 1,0,1
 753 587 753 587 795 540 c 128,-1,2
 837 493 837 493 858.5 449.5 c 128,-1,3
 880 406 880 406 883.5 363 c 128,-1,4
 887 320 887 320 876 269 c 0,5,6
 861 202 861 202 825.5 147.5 c 128,-1,7
 790 93 790 93 737.5 55 c 128,-1,8
 685 17 685 17 617 -4 c 128,-1,9
 549 -25 549 -25 471 -25 c 0,10,11
 397 -25 397 -25 340 -4 c 128,-1,12
 283 17 283 17 247 55.5 c 128,-1,13
 211 94 211 94 198 147 c 128,-1,14
 185 200 185 200 198 263 c 0,15,16
 208 308 208 308 224 342.5 c 128,-1,17
 240 377 240 377 272 411.5 c 128,-1,18
 304 446 304 446 356.5 485 c 128,-1,19
 409 524 409 524 491 578 c 1,20,21
 435 638 435 638 402 680 c 128,-1,22
 369 722 369 722 353 757.5 c 128,-1,23
 337 793 337 793 336 826.5 c 128,-1,24
 335 860 335 860 344 902 c 0,25,26
 357 961 357 961 392.5 1011.5 c 128,-1,27
 428 1062 428 1062 480 1098.5 c 128,-1,28
 532 1135 532 1135 597 1155.5 c 128,-1,29
 662 1176 662 1176 733 1176 c 0,30,31
 798 1176 798 1176 849.5 1157.5 c 128,-1,32
 901 1139 901 1139 933.5 1106.5 c 128,-1,33
 966 1074 966 1074 979 1029 c 128,-1,34
 992 984 992 984 980 930 c 0,35,36
 971 885 971 885 951 848 c 128,-1,37
 931 811 931 811 896 777.5 c 128,-1,38
 861 744 861 744 809.5 712 c 128,-1,39
 758 680 758 680 687 646 c 1,0,1
529 543 m 1,40,41
 485 513 485 513 452 483 c 128,-1,42
 419 453 419 453 395 421 c 128,-1,43
 371 389 371 389 356 353.5 c 128,-1,44
 341 318 341 318 332 277 c 0,45,46
 320 220 320 220 326 173.5 c 128,-1,47
 332 127 332 127 354.5 94 c 128,-1,48
 377 61 377 61 414 43 c 128,-1,49
 451 25 451 25 500 25 c 0,50,51
 543 25 543 25 581.5 39 c 128,-1,52
 620 53 620 53 650.5 78 c 128,-1,53
 681 103 681 103 702.5 138.5 c 128,-1,54
 724 174 724 174 733 216 c 0,55,56
 741 253 741 253 739 284 c 128,-1,57
 737 315 737 315 723.5 344 c 128,-1,58
 710 373 710 373 684 403 c 128,-1,59
 658 433 658 433 617 467 c 2,60,-1
 529 543 l 1,40,41
643 677 m 1,61,62
 649 682 649 682 651.5 683 c 128,-1,63
 654 684 654 684 661 688 c 0,64,65
 747 739 747 739 796 798 c 128,-1,66
 845 857 845 857 861 932 c 0,67,68
 870 977 870 977 864 1013 c 128,-1,69
 858 1049 858 1049 838.5 1074.5 c 128,-1,70
 819 1100 819 1100 786 1114 c 128,-1,71
 753 1128 753 1128 709 1128 c 0,72,73
 668 1128 668 1128 631 1115.5 c 128,-1,74
 594 1103 594 1103 564 1080 c 128,-1,75
 534 1057 534 1057 513.5 1025 c 128,-1,76
 493 993 493 993 484 955 c 0,77,78
 477 919 477 919 481.5 885 c 128,-1,79
 486 851 486 851 505.5 817.5 c 128,-1,80
 525 784 525 784 558.5 749.5 c 128,-1,81
 592 715 592 715 643 677 c 1,61,62
EndSplineSet
EndChar

StartChar: nine
Encoding: 57 57 21
Width: 960
Flags: W
LayerCount: 2
Fore
SplineSet
142 -3 m 1,0,1
 244 14 244 14 338.5 56.5 c 128,-1,2
 433 99 433 99 514.5 165 c 128,-1,3
 596 231 596 231 663 318 c 128,-1,4
 730 405 730 405 779 512 c 1,5,6
 700 458 700 458 634.5 435 c 128,-1,7
 569 412 569 412 497 412 c 0,8,9
 427 412 427 412 375 437.5 c 128,-1,10
 323 463 323 463 291.5 509.5 c 128,-1,11
 260 556 260 556 251 621 c 128,-1,12
 242 686 242 686 259 766 c 0,13,14
 278 854 278 854 321.5 929 c 128,-1,15
 365 1004 365 1004 425 1059 c 128,-1,16
 485 1114 485 1114 557.5 1145 c 128,-1,17
 630 1176 630 1176 708 1176 c 0,18,19
 792 1176 792 1176 855.5 1140 c 128,-1,20
 919 1104 919 1104 956.5 1039 c 128,-1,21
 994 974 994 974 1003 884 c 128,-1,22
 1012 794 1012 794 989 686 c 0,23,24
 970 597 970 597 933 513.5 c 128,-1,25
 896 430 896 430 843.5 355 c 128,-1,26
 791 280 791 280 724 216 c 128,-1,27
 657 152 657 152 578 103 c 0,28,29
 526 70 526 70 479.5 47.5 c 128,-1,30
 433 25 433 25 382.5 9 c 128,-1,31
 332 -7 332 -7 273 -18 c 128,-1,32
 214 -29 214 -29 139 -38 c 1,33,-1
 142 -3 l 1,0,1
820 686 m 2,34,35
 914 1128 914 1128 684 1128 c 0,36,37
 606 1128 606 1128 550 1074 c 0,38,39
 532 1057 532 1057 514 1029.5 c 128,-1,40
 496 1002 496 1002 480.5 969 c 128,-1,41
 465 936 465 936 452.5 898.5 c 128,-1,42
 440 861 440 861 432 825 c 0,43,44
 415 747 415 747 417 684.5 c 128,-1,45
 419 622 419 622 438 578 c 128,-1,46
 457 534 457 534 491.5 510.5 c 128,-1,47
 526 487 526 487 576 487 c 0,48,49
 624 487 624 487 672.5 503.5 c 128,-1,50
 721 520 721 520 766 552 c 0,51,52
 782 564 782 564 791 578 c 128,-1,53
 800 592 800 592 806 618 c 2,54,-1
 820 686 l 2,34,35
EndSplineSet
EndChar

StartChar: less
Encoding: 60 60 22
Width: 1117
Flags: W
LayerCount: 2
Fore
SplineSet
942 58 m 1,0,-1
 55 444 l 1,1,-1
 36 534 l 1,2,-1
 759 918 l 1,3,-1
 788 784 l 1,4,-1
 227 489 l 1,5,-1
 914 192 l 1,6,-1
 942 58 l 1,0,-1
EndSplineSet
EndChar

StartChar: equal
Encoding: 61 61 23
Width: 1029
Flags: W
LayerCount: 2
Fore
SplineSet
748 586 m 1,0,-1
 19 586 l 1,1,-1
 -6 706 l 1,2,-1
 722 706 l 1,3,-1
 748 586 l 1,0,-1
815 271 m 1,4,-1
 86 271 l 1,5,-1
 60 391 l 1,6,-1
 789 391 l 1,7,-1
 815 271 l 1,4,-1
EndSplineSet
EndChar

StartChar: greater
Encoding: 62 62 24
Width: 1117
Flags: W
LayerCount: 2
Fore
SplineSet
871 444 m 1,0,-1
 147 58 l 1,1,-1
 119 192 l 1,2,-1
 682 489 l 1,3,-1
 -6 784 l 1,4,-1
 -35 918 l 1,5,-1
 852 534 l 1,6,-1
 871 444 l 1,0,-1
EndSplineSet
EndChar

StartChar: question
Encoding: 63 63 25
Width: 773
Flags: W
LayerCount: 2
Fore
SplineSet
455 286 m 1,0,1
 469 343 469 343 495 405 c 128,-1,2
 521 467 521 467 560 533 c 2,3,-1
 632 644 l 2,4,5
 680 716 680 716 710.5 785.5 c 128,-1,6
 741 855 741 855 754 915 c 0,7,8
 763 958 763 958 756.5 996.5 c 128,-1,9
 750 1035 750 1035 731 1063.5 c 128,-1,10
 712 1092 712 1092 681 1108.5 c 128,-1,11
 650 1125 650 1125 611 1125 c 0,12,13
 579 1125 579 1125 547.5 1116 c 128,-1,14
 516 1107 516 1107 489.5 1092 c 128,-1,15
 463 1077 463 1077 445 1057.5 c 128,-1,16
 427 1038 427 1038 423 1017 c 0,17,18
 418 997 418 997 441 963 c 0,19,20
 456 940 456 940 461 923 c 128,-1,21
 466 906 466 906 462 887 c 0,22,23
 455 856 455 856 431 836.5 c 128,-1,24
 407 817 407 817 375 817 c 0,25,26
 333 817 333 817 318 844.5 c 128,-1,27
 303 872 303 872 314 924 c 0,28,29
 325 978 325 978 356.5 1024 c 128,-1,30
 388 1070 388 1070 433 1104 c 128,-1,31
 478 1138 478 1138 533.5 1157 c 128,-1,32
 589 1176 589 1176 649 1176 c 0,33,34
 721 1176 721 1176 785 1148.5 c 128,-1,35
 849 1121 849 1121 886 1076 c 0,36,37
 910 1047 910 1047 917 1002.5 c 128,-1,38
 924 958 924 958 913 907 c 0,39,40
 902 854 902 854 872.5 803 c 128,-1,41
 843 752 843 752 789 688 c 0,42,43
 777 674 777 674 768.5 665 c 128,-1,44
 760 656 760 656 748 643.5 c 128,-1,45
 736 631 736 631 714.5 610.5 c 128,-1,46
 693 590 693 590 655 553 c 0,47,48
 625 523 625 523 600.5 493.5 c 128,-1,49
 576 464 576 464 556 432.5 c 128,-1,50
 536 401 536 401 518.5 365 c 128,-1,51
 501 329 501 329 485 286 c 1,52,-1
 455 286 l 1,0,1
448 173 m 0,53,54
 467 173 467 173 483 165.5 c 128,-1,55
 499 158 499 158 509 144.5 c 128,-1,56
 519 131 519 131 523 113.5 c 128,-1,57
 527 96 527 96 523 76 c 0,58,59
 515 38 515 38 482.5 12 c 128,-1,60
 450 -14 450 -14 408 -14 c 0,61,62
 369 -14 369 -14 348 11.5 c 128,-1,63
 327 37 327 37 335 75 c 0,64,65
 344 117 344 117 376.5 145 c 128,-1,66
 409 173 409 173 448 173 c 0,53,54
EndSplineSet
EndChar

StartChar: at
Encoding: 64 64 26
Width: 1603
Flags: W
LayerCount: 2
Fore
SplineSet
1234 75 m 1,0,1
 1165 46 1165 46 1111 27 c 128,-1,2
 1057 8 1057 8 1011 -3.5 c 128,-1,3
 965 -15 965 -15 923 -20 c 128,-1,4
 881 -25 881 -25 835 -25 c 0,5,6
 700 -25 700 -25 593 20.5 c 128,-1,7
 486 66 486 66 417 146 c 128,-1,8
 348 226 348 226 321.5 334 c 128,-1,9
 295 442 295 442 322 568 c 0,10,11
 349 695 349 695 422 806 c 128,-1,12
 495 917 495 917 598.5 999 c 128,-1,13
 702 1081 702 1081 828 1128.5 c 128,-1,14
 954 1176 954 1176 1086 1176 c 0,15,16
 1207 1176 1207 1176 1303 1137 c 128,-1,17
 1399 1098 1399 1098 1461.5 1029 c 128,-1,18
 1524 960 1524 960 1548 867 c 128,-1,19
 1572 774 1572 774 1549 666 c 0,20,21
 1531 582 1531 582 1489.5 506.5 c 128,-1,22
 1448 431 1448 431 1392 373.5 c 128,-1,23
 1336 316 1336 316 1270.5 282.5 c 128,-1,24
 1205 249 1205 249 1140 249 c 0,25,26
 1077 249 1077 249 1041 283.5 c 128,-1,27
 1005 318 1005 318 1009 376 c 1,28,29
 952 316 952 316 887.5 283.5 c 128,-1,30
 823 251 823 251 765 251 c 0,31,32
 733 251 733 251 708 266 c 128,-1,33
 683 281 683 281 667.5 307 c 128,-1,34
 652 333 652 333 647.5 368.5 c 128,-1,35
 643 404 643 404 652 445 c 0,36,37
 668 520 668 520 710.5 598 c 128,-1,38
 753 676 753 676 812.5 739.5 c 128,-1,39
 872 803 872 803 943 843.5 c 128,-1,40
 1014 884 1014 884 1087 884 c 0,41,42
 1109 884 1109 884 1125.5 880 c 128,-1,43
 1142 876 1142 876 1154 865.5 c 128,-1,44
 1166 855 1166 855 1175.5 838 c 128,-1,45
 1185 821 1185 821 1193 794 c 1,46,-1
 1225 860 l 1,47,-1
 1345 860 l 1,48,-1
 1138 418 l 2,49,50
 1132 405 1132 405 1128 387 c 0,51,52
 1111 306 1111 306 1179 306 c 0,53,54
 1222 306 1222 306 1268.5 335 c 128,-1,55
 1315 364 1315 364 1356.5 412 c 128,-1,56
 1398 460 1398 460 1430.5 522 c 128,-1,57
 1463 584 1463 584 1476 649 c 0,58,59
 1497 746 1497 746 1476 832.5 c 128,-1,60
 1455 919 1455 919 1400.5 983.5 c 128,-1,61
 1346 1048 1346 1048 1263 1085.5 c 128,-1,62
 1180 1123 1180 1123 1077 1123 c 0,63,64
 980 1123 980 1123 889 1089.5 c 128,-1,65
 798 1056 798 1056 720 990 c 0,66,67
 675 951 675 951 634.5 902 c 128,-1,68
 594 853 594 853 561 798 c 128,-1,69
 528 743 528 743 504 683 c 128,-1,70
 480 623 480 623 467 563 c 0,71,72
 443 449 443 449 460.5 353.5 c 128,-1,73
 478 258 478 258 531 189 c 128,-1,74
 584 120 584 120 669.5 81.5 c 128,-1,75
 755 43 755 43 866 43 c 0,76,77
 909 43 909 43 950 47.5 c 128,-1,78
 991 52 991 52 1033 62 c 128,-1,79
 1075 72 1075 72 1122 88 c 128,-1,80
 1169 104 1169 104 1224 127 c 1,81,-1
 1234 75 l 1,0,1
1095 807 m 2,82,-1
 1088 807 l 2,83,84
 1056 807 1056 807 1012.5 784 c 128,-1,85
 969 761 969 761 926 721 c 0,86,87
 814 619 814 619 783 473 c 0,88,89
 768 404 768 404 787.5 365 c 128,-1,90
 807 326 807 326 856 326 c 0,91,92
 886 326 886 326 917.5 344.5 c 128,-1,93
 949 363 949 363 978.5 394 c 128,-1,94
 1008 425 1008 425 1035 465 c 128,-1,95
 1062 505 1062 505 1084 547.5 c 128,-1,96
 1106 590 1106 590 1122 632.5 c 128,-1,97
 1138 675 1138 675 1145 710 c 0,98,99
 1155 755 1155 755 1142 780 c 128,-1,100
 1129 805 1129 805 1095 807 c 2,82,-1
EndSplineSet
EndChar

StartChar: A
Encoding: 65 65 27
Width: 1257
Flags: W
LayerCount: 2
Fore
SplineSet
1229 0 m 1,0,-1
 785 0 l 1,1,-1
 792 33 l 1,2,3
 826 34 826 34 850 37 c 128,-1,4
 874 40 874 40 890 47 c 128,-1,5
 906 54 906 54 914.5 65 c 128,-1,6
 923 76 923 76 926 93 c 0,7,8
 930 110 930 110 928 141.5 c 128,-1,9
 926 173 926 173 918 209 c 2,10,-1
 881 376 l 1,11,-1
 426 376 l 1,12,-1
 302 173 l 2,13,14
 293 156 293 156 285 138 c 128,-1,15
 277 120 277 120 274 105 c 0,16,17
 266 68 266 68 290.5 50.5 c 128,-1,18
 315 33 315 33 378 33 c 1,19,-1
 371 0 l 1,20,-1
 26 0 l 1,21,-1
 33 33 l 1,22,23
 64 34 64 34 88 43.5 c 128,-1,24
 112 53 112 53 140 82.5 c 128,-1,25
 168 112 168 112 207.5 168 c 128,-1,26
 247 224 247 224 309 319 c 2,27,-1
 853 1173 l 1,28,-1
 888 1173 l 1,29,-1
 1112 184 l 2,30,31
 1123 136 1123 136 1133.5 107 c 128,-1,32
 1144 78 1144 78 1157 62.5 c 128,-1,33
 1170 47 1170 47 1188.5 41 c 128,-1,34
 1207 35 1207 35 1236 33 c 1,35,-1
 1229 0 l 1,0,-1
873 447 m 1,36,-1
 772 926 l 1,37,-1
 471 447 l 1,38,-1
 873 447 l 1,36,-1
EndSplineSet
EndChar

StartChar: B
Encoding: 66 66 28
Width: 1161
Flags: W
LayerCount: 2
Fore
SplineSet
762 1153 m 2,0,1
 1218 1153 1218 1153 1155 857 c 0,2,3
 1143 803 1143 803 1115 757.5 c 128,-1,4
 1087 712 1087 712 1049 683 c 0,5,6
 1030 669 1030 669 1012 658 c 128,-1,7
 994 647 994 647 972.5 638.5 c 128,-1,8
 951 630 951 630 924.5 622 c 128,-1,9
 898 614 898 614 862 606 c 1,10,11
 902 595 902 595 931.5 585 c 128,-1,12
 961 575 961 575 982.5 564.5 c 128,-1,13
 1004 554 1004 554 1021.5 541 c 128,-1,14
 1039 528 1039 528 1055 510 c 0,15,16
 1089 472 1089 472 1099.5 421.5 c 128,-1,17
 1110 371 1110 371 1098 314 c 0,18,19
 1084 247 1084 247 1045.5 189.5 c 128,-1,20
 1007 132 1007 132 945.5 90 c 128,-1,21
 884 48 884 48 800 24 c 128,-1,22
 716 0 716 0 611 0 c 2,23,-1
 30 0 l 1,24,-1
 37 33 l 1,25,26
 91 35 91 35 125 41.5 c 128,-1,27
 159 48 159 48 180.5 65 c 128,-1,28
 202 82 202 82 214 112 c 128,-1,29
 226 142 226 142 236 190 c 2,30,-1
 400 963 l 2,31,32
 410 1011 410 1011 411 1040 c 128,-1,33
 412 1069 412 1069 398 1085.5 c 128,-1,34
 384 1102 384 1102 353 1109 c 128,-1,35
 322 1116 322 1116 267 1119 c 1,36,-1
 275 1153 l 1,37,-1
 762 1153 l 2,0,1
402 136 m 2,38,39
 398 115 398 115 400 101.5 c 128,-1,40
 402 88 402 88 413.5 79.5 c 128,-1,41
 425 71 425 71 445 68 c 128,-1,42
 465 65 465 65 497 65 c 0,43,44
 591 65 591 65 661 80.5 c 128,-1,45
 731 96 731 96 779 127 c 128,-1,46
 827 158 827 158 856 204 c 128,-1,47
 885 250 885 250 898 312 c 0,48,49
 916 396 916 396 891.5 448.5 c 128,-1,50
 867 501 867 501 799 533 c 0,51,52
 777 542 777 542 750 548.5 c 128,-1,53
 723 555 723 555 687.5 559.5 c 128,-1,54
 652 564 652 564 605 566 c 128,-1,55
 558 568 558 568 494 568 c 1,56,-1
 402 136 l 2,38,39
675 637 m 2,57,58
 800 637 800 637 877 691.5 c 128,-1,59
 954 746 954 746 976 849 c 0,60,61
 1001 967 1001 967 937 1027.5 c 128,-1,62
 873 1088 873 1088 720 1088 c 2,63,-1
 643 1088 l 2,64,65
 624 1088 624 1088 612 1076 c 128,-1,66
 600 1064 600 1064 594 1036 c 2,67,-1
 509 637 l 1,68,-1
 675 637 l 2,57,58
EndSplineSet
EndChar

StartChar: C
Encoding: 67 67 29
Width: 1161
Flags: W
LayerCount: 2
Fore
SplineSet
1206 784 m 1,0,1
 1202 826 1202 826 1196.5 857.5 c 128,-1,2
 1191 889 1191 889 1183.5 914 c 128,-1,3
 1176 939 1176 939 1164.5 959.5 c 128,-1,4
 1153 980 1153 980 1136 1001 c 0,5,6
 1052 1108 1052 1108 900 1108 c 0,7,8
 805 1108 805 1108 720.5 1071 c 128,-1,9
 636 1034 636 1034 568 966.5 c 128,-1,10
 500 899 500 899 450.5 802.5 c 128,-1,11
 401 706 401 706 375 588 c 0,12,13
 347 456 347 456 356.5 355.5 c 128,-1,14
 366 255 366 255 408 187.5 c 128,-1,15
 450 120 450 120 523 86 c 128,-1,16
 596 52 596 52 694 52 c 0,17,18
 748 52 748 52 799 62 c 128,-1,19
 850 72 850 72 901.5 93.5 c 128,-1,20
 953 115 953 115 1007 148 c 128,-1,21
 1061 181 1061 181 1119 228 c 1,22,-1
 1143 196 l 1,23,24
 1040 90 1040 90 905.5 32.5 c 128,-1,25
 771 -25 771 -25 620 -25 c 0,26,27
 497 -25 497 -25 400 16 c 128,-1,28
 303 57 303 57 241.5 133.5 c 128,-1,29
 180 210 180 210 159.5 319.5 c 128,-1,30
 139 429 139 429 168 566 c 0,31,32
 199 712 199 712 271.5 829 c 128,-1,33
 344 946 344 946 455 1027 c 0,34,35
 551 1099 551 1099 661 1137.5 c 128,-1,36
 771 1176 771 1176 881 1176 c 0,37,38
 944 1176 944 1176 1005.5 1166 c 128,-1,39
 1067 1156 1067 1156 1127 1135 c 0,40,41
 1145 1127 1145 1127 1162 1123 c 128,-1,42
 1179 1119 1179 1119 1191 1119 c 0,43,44
 1217 1119 1217 1119 1240 1134 c 128,-1,45
 1263 1149 1263 1149 1276 1176 c 1,46,-1
 1312 1176 l 1,47,-1
 1229 784 l 1,48,-1
 1206 784 l 1,0,1
EndSplineSet
EndChar

StartChar: D
Encoding: 68 68 30
Width: 1257
Flags: W
LayerCount: 2
Fore
SplineSet
385 963 m 2,0,1
 395 1011 395 1011 397 1040 c 128,-1,2
 399 1069 399 1069 386.5 1085 c 128,-1,3
 374 1101 374 1101 345.5 1108 c 128,-1,4
 317 1115 317 1115 265 1119 c 1,5,-1
 273 1153 l 1,6,-1
 743 1153 l 2,7,8
 905 1153 905 1153 1025.5 1114.5 c 128,-1,9
 1146 1076 1146 1076 1220.5 1002.5 c 128,-1,10
 1295 929 1295 929 1320 823 c 128,-1,11
 1345 717 1345 717 1316 581 c 0,12,13
 1289 452 1289 452 1222 345 c 128,-1,14
 1155 238 1155 238 1053.5 161.5 c 128,-1,15
 952 85 952 85 818 42.5 c 128,-1,16
 684 0 684 0 522 0 c 2,17,-1
 28 0 l 1,18,-1
 35 33 l 1,19,20
 84 36 84 36 116 43.5 c 128,-1,21
 148 51 148 51 168 68 c 128,-1,22
 188 85 188 85 199.5 114 c 128,-1,23
 211 143 211 143 221 190 c 2,24,-1
 385 963 l 2,0,1
387 136 m 2,25,26
 383 115 383 115 384 101.5 c 128,-1,27
 385 88 385 88 394 79.5 c 128,-1,28
 403 71 403 71 419.5 68 c 128,-1,29
 436 65 436 65 462 65 c 0,30,31
 519 65 519 65 568 69 c 128,-1,32
 617 73 617 73 660 81.5 c 128,-1,33
 703 90 703 90 742 103.5 c 128,-1,34
 781 117 781 117 818 136 c 0,35,36
 1058 259 1058 259 1123 569 c 0,37,38
 1184 856 1184 856 1008 1001 c 0,39,40
 902 1088 902 1088 680 1088 c 0,41,42
 653 1088 653 1088 634.5 1085 c 128,-1,43
 616 1082 616 1082 604.5 1074.5 c 128,-1,44
 593 1067 593 1067 586.5 1053.5 c 128,-1,45
 580 1040 580 1040 575 1020 c 2,46,-1
 387 136 l 2,25,26
EndSplineSet
EndChar

StartChar: E
Encoding: 69 69 31
Width: 1063
Flags: W
LayerCount: 2
Fore
SplineSet
960 0 m 1,0,-1
 21 0 l 1,1,-1
 28 33 l 1,2,3
 76 36 76 36 107 43.5 c 128,-1,4
 138 51 138 51 158.5 68.5 c 128,-1,5
 179 86 179 86 191 115 c 128,-1,6
 203 144 203 144 213 190 c 2,7,-1
 377 963 l 2,8,9
 387 1009 387 1009 387.5 1037.5 c 128,-1,10
 388 1066 388 1066 375 1083 c 128,-1,11
 362 1100 362 1100 334 1107.5 c 128,-1,12
 306 1115 306 1115 258 1119 c 1,13,-1
 266 1153 l 1,14,-1
 1190 1153 l 1,15,-1
 1137 904 l 1,16,-1
 1099 904 l 1,17,18
 1100 962 1100 962 1092.5 998 c 128,-1,19
 1085 1034 1085 1034 1061 1053.5 c 128,-1,20
 1037 1073 1037 1073 991.5 1079.5 c 128,-1,21
 946 1086 946 1086 873 1086 c 2,22,-1
 637 1086 l 2,23,24
 602 1086 602 1086 588.5 1074.5 c 128,-1,25
 575 1063 575 1063 568 1027 c 2,26,-1
 486 641 l 1,27,-1
 754 641 l 2,28,29
 874 641 874 641 916 684 c 0,30,31
 925 693 925 693 932 703.5 c 128,-1,32
 939 714 939 714 946 727.5 c 128,-1,33
 953 741 953 741 961 760 c 128,-1,34
 969 779 969 779 980 806 c 1,35,-1
 1020 806 l 1,36,-1
 934 402 l 1,37,-1
 894 402 l 1,38,39
 897 456 897 456 893.5 489 c 128,-1,40
 890 522 890 522 873.5 540 c 128,-1,41
 857 558 857 558 824.5 563.5 c 128,-1,42
 792 569 792 569 738 569 c 2,43,-1
 470 569 l 1,44,-1
 379 139 l 2,45,46
 374 117 374 117 374 103 c 128,-1,47
 374 89 374 89 380 85 c 0,48,49
 383 80 383 80 397 76.5 c 128,-1,50
 411 73 411 73 434 70.5 c 128,-1,51
 457 68 457 68 485.5 66.5 c 128,-1,52
 514 65 514 65 546 65 c 2,53,-1
 593 65 l 2,54,55
 686 65 686 65 752 74.5 c 128,-1,56
 818 84 818 84 869 109 c 128,-1,57
 920 134 920 134 962.5 178.5 c 128,-1,58
 1005 223 1005 223 1052 294 c 1,59,-1
 1102 294 l 1,60,-1
 960 0 l 1,0,-1
EndSplineSet
EndChar

StartChar: F
Encoding: 70 70 32
Width: 968
Flags: W
LayerCount: 2
Fore
SplineSet
879 402 m 1,0,1
 882 454 882 454 878 487 c 128,-1,2
 874 520 874 520 857 538 c 128,-1,3
 840 556 840 556 807.5 562.5 c 128,-1,4
 775 569 775 569 723 569 c 2,5,-1
 470 569 l 1,6,-1
 390 190 l 2,7,8
 380 143 380 143 379.5 113.5 c 128,-1,9
 379 84 379 84 392.5 67 c 128,-1,10
 406 50 406 50 435.5 43 c 128,-1,11
 465 36 465 36 515 33 c 1,12,-1
 508 0 l 1,13,-1
 21 0 l 1,14,-1
 28 33 l 1,15,16
 77 36 77 36 109 44 c 128,-1,17
 141 52 141 52 161 70.5 c 128,-1,18
 181 89 181 89 193 122 c 128,-1,19
 205 155 205 155 217 209 c 2,20,-1
 377 963 l 2,21,22
 387 1009 387 1009 387.5 1037.5 c 128,-1,23
 388 1066 388 1066 375 1083 c 128,-1,24
 362 1100 362 1100 334 1107.5 c 128,-1,25
 306 1115 306 1115 258 1119 c 1,26,-1
 266 1153 l 1,27,-1
 1190 1153 l 1,28,-1
 1137 904 l 1,29,-1
 1099 904 l 1,30,31
 1100 962 1100 962 1092.5 998 c 128,-1,32
 1085 1034 1085 1034 1061 1053.5 c 128,-1,33
 1037 1073 1037 1073 991.5 1079.5 c 128,-1,34
 946 1086 946 1086 873 1086 c 2,35,-1
 635 1086 l 2,36,37
 618 1086 618 1086 606.5 1083.5 c 128,-1,38
 595 1081 595 1081 588 1074.5 c 128,-1,39
 581 1068 581 1068 576.5 1056.5 c 128,-1,40
 572 1045 572 1045 568 1027 c 2,41,-1
 486 641 l 1,42,-1
 739 641 l 2,43,44
 790 641 790 641 824.5 647 c 128,-1,45
 859 653 859 653 884 671 c 128,-1,46
 909 689 909 689 927.5 721 c 128,-1,47
 946 753 946 753 965 806 c 1,48,-1
 1005 806 l 1,49,-1
 919 402 l 1,50,-1
 879 402 l 1,0,1
EndSplineSet
EndChar

StartChar: G
Encoding: 71 71 33
Width: 1257
Flags: W
LayerCount: 2
Fore
SplineSet
1358 585 m 1,0,1
 1319 582 1319 582 1294 575 c 128,-1,2
 1269 568 1269 568 1252.5 553 c 128,-1,3
 1236 538 1236 538 1226 513.5 c 128,-1,4
 1216 489 1216 489 1208 450 c 2,5,-1
 1133 98 l 1,6,7
 1102 75 1102 75 1047 53 c 128,-1,8
 992 31 992 31 927 13.5 c 128,-1,9
 862 -4 862 -4 794 -14.5 c 128,-1,10
 726 -25 726 -25 670 -25 c 0,11,12
 523 -25 523 -25 413 22.5 c 128,-1,13
 303 70 303 70 235 161 c 0,14,15
 176 239 176 239 162 337.5 c 128,-1,16
 148 436 148 436 176 566 c 0,17,18
 204 699 204 699 272 811 c 128,-1,19
 340 923 340 923 436.5 1004 c 128,-1,20
 533 1085 533 1085 652 1130.5 c 128,-1,21
 771 1176 771 1176 902 1176 c 0,22,23
 1022 1176 1022 1176 1131 1136 c 0,24,25
 1178 1119 1178 1119 1203 1119 c 0,26,27
 1231 1119 1231 1119 1256 1135.5 c 128,-1,28
 1281 1152 1281 1152 1294 1176 c 1,29,-1
 1332 1176 l 1,30,-1
 1254 809 l 1,31,-1
 1228 809 l 1,32,33
 1220 849 1220 849 1212 878.5 c 128,-1,34
 1204 908 1204 908 1194.5 931.5 c 128,-1,35
 1185 955 1185 955 1174 974 c 128,-1,36
 1163 993 1163 993 1147 1011 c 0,37,38
 1065 1108 1065 1108 918 1108 c 0,39,40
 823 1108 823 1108 737 1072 c 128,-1,41
 651 1036 651 1036 579 967 c 128,-1,42
 507 898 507 898 454.5 797.5 c 128,-1,43
 402 697 402 697 374 568 c 0,44,45
 348 446 348 446 359 349.5 c 128,-1,46
 370 253 370 253 415 185 c 128,-1,47
 460 117 460 117 537 81 c 128,-1,48
 614 45 614 45 721 45 c 0,49,50
 768 45 768 45 812 53.5 c 128,-1,51
 856 62 856 62 890.5 76 c 128,-1,52
 925 90 925 90 947 108.5 c 128,-1,53
 969 127 969 127 974 148 c 2,54,-1
 1034 430 l 2,55,56
 1046 487 1046 487 1044.5 518 c 128,-1,57
 1043 549 1043 549 1026 560 c 0,58,59
 1019 566 1019 566 1011 569.5 c 128,-1,60
 1003 573 1003 573 991 576 c 128,-1,61
 979 579 979 579 960 581 c 128,-1,62
 941 583 941 583 914 585 c 1,63,-1
 920 616 l 1,64,-1
 1364 616 l 1,65,-1
 1358 585 l 1,0,1
EndSplineSet
EndChar

StartChar: H
Encoding: 72 72 34
Width: 1257
Flags: W
LayerCount: 2
Fore
SplineSet
1024 625 m 1,0,-1
 1096 963 l 2,1,2
 1106 1009 1106 1009 1107 1038 c 128,-1,3
 1108 1067 1108 1067 1095 1083.5 c 128,-1,4
 1082 1100 1082 1100 1053.5 1107.5 c 128,-1,5
 1025 1115 1025 1115 975 1119 c 1,6,-1
 983 1153 l 1,7,-1
 1467 1153 l 1,8,-1
 1459 1119 l 1,9,10
 1409 1115 1409 1115 1376.5 1107.5 c 128,-1,11
 1344 1100 1344 1100 1324 1083.5 c 128,-1,12
 1304 1067 1304 1067 1293 1038 c 128,-1,13
 1282 1009 1282 1009 1272 963 c 2,14,-1
 1108 190 l 2,15,16
 1098 143 1098 143 1097.5 114.5 c 128,-1,17
 1097 86 1097 86 1110 69 c 128,-1,18
 1123 52 1123 52 1151 44.5 c 128,-1,19
 1179 37 1179 37 1229 33 c 1,20,-1
 1222 0 l 1,21,-1
 738 0 l 1,22,-1
 745 33 l 1,23,24
 796 36 796 36 828 43.5 c 128,-1,25
 860 51 860 51 880 69.5 c 128,-1,26
 900 88 900 88 912 121 c 128,-1,27
 924 154 924 154 936 209 c 2,28,-1
 1008 548 l 1,29,-1
 480 548 l 1,30,-1
 404 190 l 2,31,32
 394 143 394 143 393.5 114.5 c 128,-1,33
 393 86 393 86 406 69 c 128,-1,34
 419 52 419 52 447 44.5 c 128,-1,35
 475 37 475 37 524 33 c 1,36,-1
 517 0 l 1,37,-1
 33 0 l 1,38,-1
 40 33 l 1,39,40
 91 36 91 36 123 43.5 c 128,-1,41
 155 51 155 51 174.5 69.5 c 128,-1,42
 194 88 194 88 206 121 c 128,-1,43
 218 154 218 154 230 209 c 2,44,-1
 390 963 l 2,45,46
 400 1009 400 1009 401 1038 c 128,-1,47
 402 1067 402 1067 389.5 1083.5 c 128,-1,48
 377 1100 377 1100 348.5 1107.5 c 128,-1,49
 320 1115 320 1115 270 1119 c 1,50,-1
 278 1153 l 1,51,-1
 762 1153 l 1,52,-1
 754 1119 l 1,53,54
 704 1115 704 1115 671.5 1107.5 c 128,-1,55
 639 1100 639 1100 619.5 1083.5 c 128,-1,56
 600 1067 600 1067 589 1038 c 128,-1,57
 578 1009 578 1009 568 963 c 2,58,-1
 496 625 l 1,59,-1
 1024 625 l 1,0,-1
EndSplineSet
EndChar

StartChar: I
Encoding: 73 73 35
Width: 580
Flags: W
LayerCount: 2
Fore
SplineSet
405 963 m 2,0,1
 415 1011 415 1011 415.5 1040 c 128,-1,2
 416 1069 416 1069 401.5 1085.5 c 128,-1,3
 387 1102 387 1102 355 1109 c 128,-1,4
 323 1116 323 1116 268 1119 c 1,5,-1
 276 1153 l 1,6,-1
 793 1153 l 1,7,-1
 785 1119 l 1,8,9
 730 1117 730 1117 695 1110.5 c 128,-1,10
 660 1104 660 1104 638 1087 c 128,-1,11
 616 1070 616 1070 603.5 1040.5 c 128,-1,12
 591 1011 591 1011 581 963 c 2,13,-1
 417 190 l 2,14,15
 407 142 407 142 407 112.5 c 128,-1,16
 407 83 407 83 422.5 66 c 128,-1,17
 438 49 438 49 469.5 42 c 128,-1,18
 501 35 501 35 555 33 c 1,19,-1
 548 0 l 1,20,-1
 31 0 l 1,21,-1
 38 33 l 1,22,23
 93 35 93 35 128 41.5 c 128,-1,24
 163 48 163 48 184.5 64.5 c 128,-1,25
 206 81 206 81 218 111 c 128,-1,26
 230 141 230 141 241 190 c 2,27,-1
 405 963 l 2,0,1
EndSplineSet
EndChar

StartChar: J
Encoding: 74 74 36
Width: 677
Flags: W
LayerCount: 2
Fore
SplineSet
551 319 m 2,0,1
 516 153 516 153 421.5 64 c 128,-1,2
 327 -25 327 -25 184 -25 c 0,3,4
 146 -25 146 -25 116 -15.5 c 128,-1,5
 86 -6 86 -6 66.5 10.5 c 128,-1,6
 47 27 47 27 39.5 50.5 c 128,-1,7
 32 74 32 74 38 101 c 0,8,9
 42 119 42 119 52 134.5 c 128,-1,10
 62 150 62 150 76 162 c 128,-1,11
 90 174 90 174 107 181 c 128,-1,12
 124 188 124 188 142 188 c 0,13,14
 206 188 206 188 214 99 c 0,15,16
 217 67 217 67 223.5 54.5 c 128,-1,17
 230 42 230 42 249 42 c 0,18,19
 283 42 283 42 304.5 69 c 128,-1,20
 326 96 326 96 339 156 c 2,21,-1
 510 963 l 2,22,23
 520 1011 520 1011 521.5 1039.5 c 128,-1,24
 523 1068 523 1068 509.5 1084.5 c 128,-1,25
 496 1101 496 1101 465.5 1108 c 128,-1,26
 435 1115 435 1115 381 1119 c 1,27,-1
 389 1153 l 1,28,-1
 889 1153 l 1,29,-1
 881 1119 l 1,30,31
 828 1115 828 1115 795 1108 c 128,-1,32
 762 1101 762 1101 741.5 1084.5 c 128,-1,33
 721 1068 721 1068 709.5 1039.5 c 128,-1,34
 698 1011 698 1011 688 963 c 2,35,-1
 551 319 l 2,0,1
EndSplineSet
EndChar

StartChar: K
Encoding: 75 75 37
Width: 1257
Flags: W
LayerCount: 2
Fore
SplineSet
964 1153 m 1,0,-1
 1420 1153 l 1,1,-1
 1412 1119 l 1,2,3
 1368 1116 1368 1116 1336 1110.5 c 128,-1,4
 1304 1105 1304 1105 1273.5 1090.5 c 128,-1,5
 1243 1076 1243 1076 1207 1050.5 c 128,-1,6
 1171 1025 1171 1025 1118 983 c 2,7,-1
 719 656 l 1,8,-1
 1031 221 l 2,9,10
 1078 158 1078 158 1107.5 121 c 128,-1,11
 1137 84 1137 84 1161 65 c 128,-1,12
 1185 46 1185 46 1208.5 40 c 128,-1,13
 1232 34 1232 34 1266 33 c 1,14,-1
 1259 0 l 1,15,-1
 728 0 l 1,16,-1
 735 33 l 1,17,18
 740 35 740 35 745.5 35 c 128,-1,19
 751 35 751 35 756 35 c 2,20,-1
 769 35 l 1,21,-1
 783 35 l 2,22,23
 820 35 820 35 840 45.5 c 128,-1,24
 860 56 860 56 864 73 c 0,25,26
 867 89 867 89 856.5 119 c 128,-1,27
 846 149 846 149 824.5 188 c 128,-1,28
 803 227 803 227 771 273 c 128,-1,29
 739 319 739 319 701 369 c 2,30,-1
 556 552 l 1,31,-1
 503 515 l 1,32,-1
 434 190 l 2,33,34
 424 143 424 143 422.5 113.5 c 128,-1,35
 421 84 421 84 434 67 c 128,-1,36
 447 50 447 50 476.5 43 c 128,-1,37
 506 36 506 36 557 33 c 1,38,-1
 550 0 l 1,39,-1
 59 0 l 1,40,-1
 66 33 l 1,41,42
 117 36 117 36 150 44 c 128,-1,43
 183 52 183 52 203 70.5 c 128,-1,44
 223 89 223 89 235.5 122 c 128,-1,45
 248 155 248 155 260 209 c 2,46,-1
 420 963 l 2,47,48
 430 1009 430 1009 430.5 1038 c 128,-1,49
 431 1067 431 1067 418 1083.5 c 128,-1,50
 405 1100 405 1100 376 1107.5 c 128,-1,51
 347 1115 347 1115 296 1119 c 1,52,-1
 304 1153 l 1,53,-1
 798 1153 l 1,54,-1
 790 1119 l 1,55,56
 737 1115 737 1115 704 1108 c 128,-1,57
 671 1101 671 1101 651 1084.5 c 128,-1,58
 631 1068 631 1068 619.5 1039.5 c 128,-1,59
 608 1011 608 1011 598 963 c 2,60,-1
 522 606 l 1,61,-1
 889 886 l 2,62,63
 976 952 976 952 1016 994 c 128,-1,64
 1056 1036 1056 1036 1063 1065 c 0,65,66
 1067 1083 1067 1083 1063 1092.5 c 128,-1,67
 1059 1102 1059 1102 1046 1107.5 c 128,-1,68
 1033 1113 1033 1113 1011 1115 c 128,-1,69
 989 1117 989 1117 956 1119 c 1,70,-1
 964 1153 l 1,0,-1
EndSplineSet
EndChar

StartChar: L
Encoding: 76 76 38
Width: 1063
Flags: W
LayerCount: 2
Fore
SplineSet
1105 303 m 1,0,-1
 957 0 l 1,1,-1
 21 0 l 1,2,-1
 28 33 l 1,3,4
 76 36 76 36 107 43.5 c 128,-1,5
 138 51 138 51 158.5 68.5 c 128,-1,6
 179 86 179 86 191 115 c 128,-1,7
 203 144 203 144 213 190 c 2,8,-1
 377 963 l 2,9,10
 387 1009 387 1009 387.5 1037.5 c 128,-1,11
 388 1066 388 1066 375 1083 c 128,-1,12
 362 1100 362 1100 334 1107.5 c 128,-1,13
 306 1115 306 1115 258 1119 c 1,14,-1
 266 1153 l 1,15,-1
 757 1153 l 1,16,-1
 749 1119 l 1,17,18
 697 1116 697 1116 664 1108.5 c 128,-1,19
 631 1101 631 1101 609.5 1084 c 128,-1,20
 588 1067 588 1067 576 1038 c 128,-1,21
 564 1009 564 1009 554 963 c 2,22,-1
 379 139 l 2,23,24
 374 116 374 116 376.5 102 c 128,-1,25
 379 88 379 88 393.5 80.5 c 128,-1,26
 408 73 408 73 437 70.5 c 128,-1,27
 466 68 466 68 514 68 c 2,28,-1
 630 68 l 2,29,30
 739 68 739 68 817.5 92 c 128,-1,31
 896 116 896 116 952 167 c 0,32,33
 977 189 977 189 1002.5 220 c 128,-1,34
 1028 251 1028 251 1062 303 c 1,35,-1
 1105 303 l 1,0,-1
EndSplineSet
EndChar

StartChar: M
Encoding: 77 77 39
Width: 1548
Flags: W
LayerCount: 2
Fore
SplineSet
728 0 m 1,0,-1
 703 0 l 1,1,-1
 469 957 l 1,2,-1
 320 256 l 2,3,4
 306 190 306 190 304 148 c 128,-1,5
 302 106 302 106 315 81.5 c 128,-1,6
 328 57 328 57 357.5 46.5 c 128,-1,7
 387 36 387 36 437 33 c 1,8,-1
 430 0 l 1,9,-1
 21 0 l 1,10,-1
 28 33 l 1,11,12
 82 37 82 37 118 47 c 128,-1,13
 154 57 154 57 177 81 c 128,-1,14
 200 105 200 105 214.5 146.5 c 128,-1,15
 229 188 229 188 244 256 c 2,16,-1
 394 963 l 2,17,18
 404 1011 404 1011 404.5 1040 c 128,-1,19
 405 1069 405 1069 391 1085.5 c 128,-1,20
 377 1102 377 1102 346 1109 c 128,-1,21
 315 1116 315 1116 262 1119 c 1,22,-1
 270 1153 l 1,23,-1
 614 1153 l 1,24,-1
 829 274 l 1,25,-1
 1401 1153 l 1,26,-1
 1747 1153 l 1,27,-1
 1739 1119 l 1,28,29
 1691 1115 1691 1115 1659.5 1107.5 c 128,-1,30
 1628 1100 1628 1100 1608 1083.5 c 128,-1,31
 1588 1067 1588 1067 1576.5 1038 c 128,-1,32
 1565 1009 1565 1009 1555 963 c 2,33,-1
 1391 190 l 2,34,35
 1381 143 1381 143 1380.5 114 c 128,-1,36
 1380 85 1380 85 1392.5 68 c 128,-1,37
 1405 51 1405 51 1433 43.5 c 128,-1,38
 1461 36 1461 36 1509 33 c 1,39,-1
 1502 0 l 1,40,-1
 1015 0 l 1,41,-1
 1022 33 l 1,42,43
 1074 36 1074 36 1107 44 c 128,-1,44
 1140 52 1140 52 1160 70.5 c 128,-1,45
 1180 89 1180 89 1192.5 122 c 128,-1,46
 1205 155 1205 155 1217 209 c 2,47,-1
 1385 998 l 1,48,-1
 728 0 l 1,0,-1
EndSplineSet
EndChar

StartChar: N
Encoding: 78 78 40
Width: 1257
Flags: W
LayerCount: 2
Fore
SplineSet
1031 -20 m 1,0,-1
 465 938 l 1,1,-1
 320 256 l 2,2,3
 306 190 306 190 304 148 c 128,-1,4
 302 106 302 106 315 81.5 c 128,-1,5
 328 57 328 57 357.5 46.5 c 128,-1,6
 387 36 387 36 437 33 c 1,7,-1
 430 0 l 1,8,-1
 21 0 l 1,9,-1
 28 33 l 1,10,11
 82 37 82 37 118 47 c 128,-1,12
 154 57 154 57 177 81 c 128,-1,13
 200 105 200 105 214.5 146.5 c 128,-1,14
 229 188 229 188 244 256 c 2,15,-1
 407 1023 l 1,16,17
 388 1054 388 1054 372 1072.5 c 128,-1,18
 356 1091 356 1091 340.5 1101.5 c 128,-1,19
 325 1112 325 1112 305 1115.5 c 128,-1,20
 285 1119 285 1119 258 1119 c 1,21,-1
 266 1153 l 1,22,-1
 564 1153 l 1,23,-1
 1054 310 l 1,24,-1
 1179 897 l 2,25,26
 1194 966 1194 966 1196 1008 c 128,-1,27
 1198 1050 1198 1050 1184 1073 c 128,-1,28
 1170 1096 1170 1096 1140 1105.5 c 128,-1,29
 1110 1115 1110 1115 1059 1119 c 1,30,-1
 1067 1153 l 1,31,-1
 1476 1153 l 1,32,-1
 1468 1119 l 1,33,34
 1442 1117 1442 1117 1424 1114 c 128,-1,35
 1406 1111 1406 1111 1392 1107.5 c 128,-1,36
 1378 1104 1378 1104 1367.5 1099 c 128,-1,37
 1357 1094 1357 1094 1347 1088 c 0,38,39
 1288 1052 1288 1052 1255 897 c 2,40,-1
 1060 -20 l 1,41,-1
 1031 -20 l 1,0,-1
EndSplineSet
EndChar

StartChar: O
Encoding: 79 79 41
Width: 1257
Flags: W
LayerCount: 2
Fore
SplineSet
877 1176 m 0,0,1
 995 1176 995 1176 1090 1134.5 c 128,-1,2
 1185 1093 1185 1093 1245.5 1014.5 c 128,-1,3
 1306 936 1306 936 1327.5 823.5 c 128,-1,4
 1349 711 1349 711 1318 569 c 0,5,6
 1291 438 1291 438 1225 328.5 c 128,-1,7
 1159 219 1159 219 1066 140.5 c 128,-1,8
 973 62 973 62 856.5 18.5 c 128,-1,9
 740 -25 740 -25 612 -25 c 0,10,11
 555 -25 555 -25 501 -12.5 c 128,-1,12
 447 0 447 0 398.5 23 c 128,-1,13
 350 46 350 46 310 79 c 128,-1,14
 270 112 270 112 241 153 c 0,15,16
 186 231 186 231 170 340.5 c 128,-1,17
 154 450 154 450 181 576 c 0,18,19
 209 707 209 707 274.5 817.5 c 128,-1,20
 340 928 340 928 433 1007.5 c 128,-1,21
 526 1087 526 1087 639 1131.5 c 128,-1,22
 752 1176 752 1176 877 1176 c 0,0,1
864 1114 m 0,23,24
 792 1114 792 1114 723 1086 c 128,-1,25
 654 1058 654 1058 591 1001 c 0,26,27
 556 969 556 969 524 923.5 c 128,-1,28
 492 878 492 878 465 822.5 c 128,-1,29
 438 767 438 767 416 703.5 c 128,-1,30
 394 640 394 640 379 573 c 0,31,32
 364 501 364 501 360 432.5 c 128,-1,33
 356 364 356 364 362.5 305 c 128,-1,34
 369 246 369 246 386 199.5 c 128,-1,35
 403 153 403 153 431 123 c 0,36,37
 470 81 470 81 521.5 60 c 128,-1,38
 573 39 573 39 633 38 c 0,39,40
 772 38 772 38 884 131 c 0,41,42
 958 192 958 192 996 258 c 0,43,44
 1037 326 1037 326 1070.5 409.5 c 128,-1,45
 1104 493 1104 493 1121 571 c 0,46,47
 1149 703 1149 703 1143 804.5 c 128,-1,48
 1137 906 1137 906 1102 975 c 128,-1,49
 1067 1044 1067 1044 1006 1079 c 128,-1,50
 945 1114 945 1114 864 1114 c 0,23,24
EndSplineSet
EndChar

StartChar: P
Encoding: 80 80 42
Width: 968
Flags: W
LayerCount: 2
Fore
SplineSet
392 190 m 2,0,1
 382 142 382 142 381.5 112.5 c 128,-1,2
 381 83 381 83 395 66 c 128,-1,3
 409 49 409 49 439.5 42 c 128,-1,4
 470 35 470 35 522 33 c 1,5,-1
 515 0 l 1,6,-1
 28 0 l 1,7,-1
 35 33 l 1,8,9
 84 37 84 37 115 44.5 c 128,-1,10
 146 52 146 52 164.5 70.5 c 128,-1,11
 183 89 183 89 194.5 122 c 128,-1,12
 206 155 206 155 218 209 c 2,13,-1
 378 963 l 2,14,15
 388 1009 388 1009 389 1037.5 c 128,-1,16
 390 1066 390 1066 378.5 1082.5 c 128,-1,17
 367 1099 367 1099 339.5 1106.5 c 128,-1,18
 312 1114 312 1114 265 1119 c 1,19,-1
 273 1153 l 1,20,-1
 732 1153 l 2,21,22
 793 1153 793 1153 849 1144 c 128,-1,23
 905 1135 905 1135 952 1118.5 c 128,-1,24
 999 1102 999 1102 1034.5 1078.5 c 128,-1,25
 1070 1055 1070 1055 1090 1027 c 0,26,27
 1117 989 1117 989 1124.5 940.5 c 128,-1,28
 1132 892 1132 892 1120 837 c 0,29,30
 1102 750 1102 750 1041.5 676 c 128,-1,31
 981 602 981 602 895 560 c 0,32,33
 862 544 862 544 827.5 532.5 c 128,-1,34
 793 521 793 521 755 514 c 128,-1,35
 717 507 717 507 673.5 504 c 128,-1,36
 630 501 630 501 578 501 c 0,37,38
 544 501 544 501 518.5 502.5 c 128,-1,39
 493 504 493 504 459 507 c 1,40,-1
 392 190 l 2,0,1
474 576 m 1,41,42
 504 574 504 574 524.5 572.5 c 128,-1,43
 545 571 545 571 571 571 c 0,44,45
 875 571 875 571 929 827 c 0,46,47
 958 962 958 962 888.5 1025 c 128,-1,48
 819 1088 819 1088 642 1088 c 0,49,50
 607 1088 607 1088 592.5 1076 c 128,-1,51
 578 1064 578 1064 570 1028 c 2,52,-1
 474 576 l 1,41,42
EndSplineSet
EndChar

StartChar: Q
Encoding: 81 81 43
Width: 1257
Flags: W
LayerCount: 2
Fore
SplineSet
1155 -308 m 1,0,1
 1143 -310 1143 -310 1136 -310 c 128,-1,2
 1129 -310 1129 -310 1124 -310 c 0,3,4
 895 -310 895 -310 744.5 -259.5 c 128,-1,5
 594 -209 594 -209 522 -98 c 2,6,-1
 461 -2 l 1,7,8
 417 14 417 14 385.5 29 c 128,-1,9
 354 44 354 44 329 61.5 c 128,-1,10
 304 79 304 79 284 100 c 128,-1,11
 264 121 264 121 245 148 c 0,12,13
 125 315 125 315 180 573 c 0,14,15
 208 705 208 705 274 816 c 128,-1,16
 340 927 340 927 433 1007 c 128,-1,17
 526 1087 526 1087 639 1131.5 c 128,-1,18
 752 1176 752 1176 877 1176 c 0,19,20
 1001 1176 1001 1176 1097 1131.5 c 128,-1,21
 1193 1087 1193 1087 1251.5 1007.5 c 128,-1,22
 1310 928 1310 928 1329 817.5 c 128,-1,23
 1348 707 1348 707 1320 576 c 0,24,25
 1258 284 1258 284 1026 110 c 0,26,27
 990 83 990 83 958 63.5 c 128,-1,28
 926 44 926 44 892.5 30 c 128,-1,29
 859 16 859 16 822 6 c 128,-1,30
 785 -4 785 -4 738 -12 c 1,31,32
 776 -81 776 -81 819 -130 c 128,-1,33
 862 -179 862 -179 913.5 -211 c 128,-1,34
 965 -243 965 -243 1026 -259 c 128,-1,35
 1087 -275 1087 -275 1162 -277 c 1,36,-1
 1155 -308 l 1,0,1
869 1114 m 0,37,38
 794 1114 794 1114 726 1086.5 c 128,-1,39
 658 1059 658 1059 591 1001 c 0,40,41
 558 972 558 972 526 926.5 c 128,-1,42
 494 881 494 881 466.5 825.5 c 128,-1,43
 439 770 439 770 417 708 c 128,-1,44
 395 646 395 646 381 583 c 0,45,46
 353 449 353 449 358.5 347 c 128,-1,47
 364 245 364 245 398 176.5 c 128,-1,48
 432 108 432 108 493 73 c 128,-1,49
 554 38 554 38 636 38 c 0,50,51
 708 38 708 38 779 67 c 128,-1,52
 850 96 850 96 910 150 c 0,53,54
 944 180 944 180 976 226.5 c 128,-1,55
 1008 273 1008 273 1036 330 c 128,-1,56
 1064 387 1064 387 1086.5 451 c 128,-1,57
 1109 515 1109 515 1123 580 c 0,58,59
 1149 705 1149 705 1142 804 c 128,-1,60
 1135 903 1135 903 1101 972 c 128,-1,61
 1067 1041 1067 1041 1007 1077.5 c 128,-1,62
 947 1114 947 1114 869 1114 c 0,37,38
EndSplineSet
EndChar

StartChar: R
Encoding: 82 82 44
Width: 1161
Flags: W
LayerCount: 2
Fore
SplineSet
1147 0 m 1,0,-1
 867 0 l 1,1,-1
 565 536 l 1,2,-1
 468 536 l 1,3,-1
 395 190 l 2,4,5
 385 143 385 143 384.5 114 c 128,-1,6
 384 85 384 85 397 68 c 128,-1,7
 410 51 410 51 439 43.5 c 128,-1,8
 468 36 468 36 519 33 c 1,9,-1
 512 0 l 1,10,-1
 30 0 l 1,11,-1
 37 33 l 1,12,13
 86 37 86 37 117 44.5 c 128,-1,14
 148 52 148 52 167 70.5 c 128,-1,15
 186 89 186 89 198 122 c 128,-1,16
 210 155 210 155 222 209 c 2,17,-1
 382 963 l 2,18,19
 392 1009 392 1009 393 1037 c 128,-1,20
 394 1065 394 1065 382 1081.5 c 128,-1,21
 370 1098 370 1098 342.5 1106 c 128,-1,22
 315 1114 315 1114 267 1119 c 1,23,-1
 275 1153 l 1,24,-1
 755 1153 l 2,25,26
 973 1153 973 1153 1068 1073 c 128,-1,27
 1163 993 1163 993 1131 846 c 0,28,29
 1118 783 1118 783 1084 731.5 c 128,-1,30
 1050 680 1050 680 1001 646 c 0,31,32
 975 628 975 628 950.5 615 c 128,-1,33
 926 602 926 602 897.5 591.5 c 128,-1,34
 869 581 869 581 834.5 572.5 c 128,-1,35
 800 564 800 564 754 555 c 1,36,-1
 1019 115 l 2,37,38
 1033 93 1033 93 1047 78 c 128,-1,39
 1061 63 1061 63 1076.5 53.5 c 128,-1,40
 1092 44 1092 44 1110.5 39.5 c 128,-1,41
 1129 35 1129 35 1154 33 c 1,42,-1
 1147 0 l 1,0,-1
481 597 m 1,43,44
 544 598 544 598 589.5 601 c 128,-1,45
 635 604 635 604 671 610.5 c 128,-1,46
 707 617 707 617 737.5 628 c 128,-1,47
 768 639 768 639 802 656 c 0,48,49
 855 681 855 681 891.5 732 c 128,-1,50
 928 783 928 783 942 849 c 0,51,52
 968 972 968 972 903 1030 c 128,-1,53
 838 1088 838 1088 675 1088 c 0,54,55
 649 1088 649 1088 630.5 1085 c 128,-1,56
 612 1082 612 1082 601 1075 c 128,-1,57
 590 1068 590 1068 583 1055.5 c 128,-1,58
 576 1043 576 1043 572 1025 c 2,59,-1
 481 597 l 1,43,44
EndSplineSet
EndChar

StartChar: S
Encoding: 83 83 45
Width: 968
Flags: W
LayerCount: 2
Fore
SplineSet
988 806 m 1,0,-1
 944 806 l 1,1,2
 941 845 941 845 937 873.5 c 128,-1,3
 933 902 933 902 926 925 c 128,-1,4
 919 948 919 948 908 968.5 c 128,-1,5
 897 989 897 989 880 1010 c 0,6,7
 842 1058 842 1058 795.5 1081.5 c 128,-1,8
 749 1105 749 1105 689 1105 c 0,9,10
 648 1105 648 1105 612.5 1093.5 c 128,-1,11
 577 1082 577 1082 548.5 1060.5 c 128,-1,12
 520 1039 520 1039 501 1009 c 128,-1,13
 482 979 482 979 474 943 c 0,14,15
 467 908 467 908 474.5 875.5 c 128,-1,16
 482 843 482 843 505.5 810.5 c 128,-1,17
 529 778 529 778 570 744 c 128,-1,18
 611 710 611 710 672 672 c 0,19,20
 748 625 748 625 800 580 c 128,-1,21
 852 535 852 535 882 489 c 128,-1,22
 912 443 912 443 920 394.5 c 128,-1,23
 928 346 928 346 917 292 c 0,24,25
 902 225 902 225 862.5 167 c 128,-1,26
 823 109 823 109 766.5 66.5 c 128,-1,27
 710 24 710 24 639.5 -0.5 c 128,-1,28
 569 -25 569 -25 494 -25 c 0,29,30
 440 -25 440 -25 392 -14.5 c 128,-1,31
 344 -4 344 -4 297 15 c 0,32,33
 247 35 247 35 219 35 c 0,34,35
 199 35 199 35 182.5 18.5 c 128,-1,36
 166 2 166 2 159 -23 c 1,37,-1
 120 -23 l 1,38,-1
 146 347 l 1,39,-1
 186 347 l 1,40,41
 218 187 218 187 287.5 112.5 c 128,-1,42
 357 38 357 38 473 38 c 0,43,44
 521 38 521 38 563 52.5 c 128,-1,45
 605 67 605 67 639 93 c 128,-1,46
 673 119 673 119 696 155 c 128,-1,47
 719 191 719 191 728 235 c 0,48,49
 735 267 735 267 733.5 292.5 c 128,-1,50
 732 318 732 318 725 336 c 0,51,52
 703 387 703 387 647.5 438 c 128,-1,53
 592 489 592 489 509 540 c 0,54,55
 445 579 445 579 401.5 617 c 128,-1,56
 358 655 358 655 333.5 695.5 c 128,-1,57
 309 736 309 736 303.5 781 c 128,-1,58
 298 826 298 826 309 879 c 0,59,60
 338 1015 338 1015 448 1096 c 0,61,62
 502 1134 502 1134 559.5 1155 c 128,-1,63
 617 1176 617 1176 674 1176 c 0,64,65
 716 1176 716 1176 761 1166.5 c 128,-1,66
 806 1157 806 1157 850 1138 c 0,67,68
 895 1118 895 1118 923 1118 c 0,69,70
 968 1118 968 1118 990 1176 c 1,71,-1
 1027 1176 l 1,72,-1
 988 806 l 1,0,-1
EndSplineSet
EndChar

StartChar: T
Encoding: 84 84 46
Width: 1063
Flags: W
LayerCount: 2
Fore
SplineSet
577 1079 m 2,0,1
 504 1079 504 1079 455.5 1071 c 128,-1,2
 407 1063 407 1063 372.5 1039 c 128,-1,3
 338 1015 338 1015 311 971.5 c 128,-1,4
 284 928 284 928 253 857 c 1,5,-1
 212 857 l 1,6,-1
 275 1153 l 1,7,-1
 1267 1153 l 1,8,-1
 1204 857 l 1,9,-1
 1172 857 l 1,10,11
 1172 929 1172 929 1164 972.5 c 128,-1,12
 1156 1016 1156 1016 1131.5 1039.5 c 128,-1,13
 1107 1063 1107 1063 1062 1071 c 128,-1,14
 1017 1079 1017 1079 943 1079 c 2,15,-1
 849 1079 l 1,16,-1
 660 190 l 2,17,18
 650 142 650 142 649.5 112.5 c 128,-1,19
 649 83 649 83 663.5 66.5 c 128,-1,20
 678 50 678 50 709 43 c 128,-1,21
 740 36 740 36 794 33 c 1,22,-1
 787 0 l 1,23,-1
 279 0 l 1,24,-1
 286 33 l 1,25,26
 340 36 340 36 373.5 43 c 128,-1,27
 407 50 407 50 428.5 68.5 c 128,-1,28
 450 87 450 87 462 120 c 128,-1,29
 474 153 474 153 486 209 c 2,30,-1
 671 1079 l 1,31,-1
 577 1079 l 2,0,1
EndSplineSet
EndChar

StartChar: U
Encoding: 85 85 47
Width: 1257
Flags: W
LayerCount: 2
Fore
SplineSet
1156 442 m 2,0,1
 1146 392 1146 392 1134 351 c 128,-1,2
 1122 310 1122 310 1108 275.5 c 128,-1,3
 1094 241 1094 241 1077 211.5 c 128,-1,4
 1060 182 1060 182 1038 155 c 0,5,6
 895 -25 895 -25 612 -25 c 0,7,8
 390 -25 390 -25 306 84 c 128,-1,9
 222 193 222 193 270 420 c 2,10,-1
 385 963 l 2,11,12
 395 1011 395 1011 396 1039.5 c 128,-1,13
 397 1068 397 1068 384 1084.5 c 128,-1,14
 371 1101 371 1101 342 1108 c 128,-1,15
 313 1115 313 1115 262 1119 c 1,16,-1
 270 1153 l 1,17,-1
 762 1153 l 1,18,-1
 754 1119 l 1,19,20
 701 1115 701 1115 668 1107.5 c 128,-1,21
 635 1100 635 1100 615 1083.5 c 128,-1,22
 595 1067 595 1067 584 1038 c 128,-1,23
 573 1009 573 1009 563 963 c 2,24,-1
 445 405 l 2,25,26
 427 323 427 323 426 270 c 128,-1,27
 425 217 425 217 439 176 c 0,28,29
 483 52 483 52 669 52 c 0,30,31
 718 52 718 52 764.5 61.5 c 128,-1,32
 811 71 811 71 852 89 c 128,-1,33
 893 107 893 107 927.5 132.5 c 128,-1,34
 962 158 962 158 987 190 c 0,35,36
 1016 229 1016 229 1037 283.5 c 128,-1,37
 1058 338 1058 338 1077 427 c 2,38,-1
 1177 897 l 2,39,40
 1191 962 1191 962 1193 1003 c 128,-1,41
 1195 1044 1195 1044 1182.5 1068.5 c 128,-1,42
 1170 1093 1170 1093 1141 1104 c 128,-1,43
 1112 1115 1112 1115 1061 1119 c 1,44,-1
 1069 1153 l 1,45,-1
 1472 1153 l 1,46,-1
 1464 1119 l 1,47,48
 1410 1113 1410 1113 1375.5 1102.5 c 128,-1,49
 1341 1092 1341 1092 1318 1068 c 128,-1,50
 1295 1044 1295 1044 1281 1003.5 c 128,-1,51
 1267 963 1267 963 1253 897 c 2,52,-1
 1156 442 l 2,0,1
EndSplineSet
EndChar

StartChar: V
Encoding: 86 86 48
Width: 1257
Flags: W
LayerCount: 2
Fore
SplineSet
1450 1119 m 1,0,1
 1418 1117 1418 1117 1396 1111 c 128,-1,2
 1374 1105 1374 1105 1354 1088 c 128,-1,3
 1334 1071 1334 1071 1311.5 1040 c 128,-1,4
 1289 1009 1289 1009 1256 957 c 2,5,-1
 661 -20 l 1,6,-1
 636 -20 l 1,7,-1
 411 937 l 2,8,9
 395 995 395 995 382.5 1030 c 128,-1,10
 370 1065 370 1065 354.5 1084.5 c 128,-1,11
 339 1104 339 1104 318 1111 c 128,-1,12
 297 1118 297 1118 265 1119 c 1,13,-1
 273 1153 l 1,14,-1
 736 1153 l 1,15,-1
 728 1119 l 1,16,17
 661 1116 661 1116 626.5 1106 c 128,-1,18
 592 1096 592 1096 585 1062 c 0,19,20
 583 1052 583 1052 583 1038.5 c 128,-1,21
 583 1025 583 1025 586.5 1003 c 128,-1,22
 590 981 590 981 597 948.5 c 128,-1,23
 604 916 604 916 616 869 c 2,24,-1
 753 280 l 1,25,-1
 1145 919 l 2,26,27
 1170 959 1170 959 1185 992 c 128,-1,28
 1200 1025 1200 1025 1205 1046 c 0,29,30
 1213 1083 1213 1083 1189 1099 c 128,-1,31
 1165 1115 1165 1115 1094 1119 c 1,32,-1
 1102 1153 l 1,33,-1
 1458 1153 l 1,34,-1
 1450 1119 l 1,0,1
EndSplineSet
EndChar

StartChar: W
Encoding: 87 87 49
Width: 1643
Flags: W
LayerCount: 2
Fore
SplineSet
1860 1119 m 1,0,1
 1824 1113 1824 1113 1800 1105.5 c 128,-1,2
 1776 1098 1776 1098 1757.5 1085 c 128,-1,3
 1739 1072 1739 1072 1723.5 1050.5 c 128,-1,4
 1708 1029 1708 1029 1689 995 c 0,5,6
 1615 867 1615 867 1561 773.5 c 128,-1,7
 1507 680 1507 680 1463.5 605 c 128,-1,8
 1420 530 1420 530 1384 466 c 128,-1,9
 1348 402 1348 402 1309 332 c 128,-1,10
 1270 262 1270 262 1224.5 178 c 128,-1,11
 1179 94 1179 94 1118 -20 c 1,12,-1
 1091 -20 l 1,13,-1
 971 717 l 1,14,-1
 545 -20 l 1,15,-1
 519 -20 l 1,16,-1
 382 915 l 2,17,18
 371 976 371 976 360.5 1014.5 c 128,-1,19
 350 1053 350 1053 335.5 1075 c 128,-1,20
 321 1097 321 1097 300 1106.5 c 128,-1,21
 279 1116 279 1116 245 1119 c 1,22,-1
 253 1153 l 1,23,-1
 680 1153 l 1,24,-1
 672 1119 l 1,25,26
 639 1117 639 1117 616 1113.5 c 128,-1,27
 593 1110 593 1110 579.5 1103.5 c 128,-1,28
 566 1097 566 1097 558.5 1087.5 c 128,-1,29
 551 1078 551 1078 547 1063 c 0,30,31
 544 1049 544 1049 545 1028 c 128,-1,32
 546 1007 546 1007 549 983 c 2,33,-1
 661 329 l 1,34,-1
 952 820 l 1,35,-1
 925 963 l 2,36,37
 913 1015 913 1015 903.5 1046 c 128,-1,38
 894 1077 894 1077 879.5 1093 c 128,-1,39
 865 1109 865 1109 842.5 1114 c 128,-1,40
 820 1119 820 1119 782 1119 c 1,41,-1
 790 1153 l 1,42,-1
 1255 1153 l 1,43,-1
 1247 1119 l 1,44,45
 1175 1118 1175 1118 1140.5 1104 c 128,-1,46
 1106 1090 1106 1090 1099 1058 c 0,47,48
 1094 1035 1094 1035 1100.5 1002 c 128,-1,49
 1107 969 1107 969 1116 917 c 2,50,-1
 1221 324 l 1,51,-1
 1564 914 l 2,52,53
 1585 950 1585 950 1599.5 983.5 c 128,-1,54
 1614 1017 1614 1017 1620 1045 c 0,55,56
 1627 1080 1627 1080 1604 1096.5 c 128,-1,57
 1581 1113 1581 1113 1515 1119 c 1,58,-1
 1523 1153 l 1,59,-1
 1868 1153 l 1,60,-1
 1860 1119 l 1,0,1
EndSplineSet
EndChar

StartChar: X
Encoding: 88 88 50
Width: 1257
Flags: W
LayerCount: 2
Fore
SplineSet
1448 1119 m 1,0,1
 1407 1117 1407 1117 1375.5 1110.5 c 128,-1,2
 1344 1104 1344 1104 1312.5 1086.5 c 128,-1,3
 1281 1069 1281 1069 1244.5 1038 c 128,-1,4
 1208 1007 1208 1007 1154 955 c 2,5,-1
 833 639 l 1,6,-1
 1066 161 l 2,7,8
 1086 123 1086 123 1101.5 100 c 128,-1,9
 1117 77 1117 77 1135 63.5 c 128,-1,10
 1153 50 1153 50 1175.5 43.5 c 128,-1,11
 1198 37 1198 37 1233 33 c 1,12,-1
 1226 0 l 1,13,-1
 709 0 l 1,14,-1
 716 33 l 1,15,16
 731 35 731 35 744.5 36 c 128,-1,17
 758 37 758 37 763 37 c 0,18,19
 850 39 850 39 860 87 c 0,20,21
 869 129 869 129 808 258 c 2,22,-1
 694 501 l 1,23,-1
 433 244 l 2,24,25
 402 213 402 213 380 189.5 c 128,-1,26
 358 166 358 166 343 148 c 128,-1,27
 328 130 328 130 320.5 117 c 128,-1,28
 313 104 313 104 310 94 c 0,29,30
 307 79 307 79 311.5 68.5 c 128,-1,31
 316 58 316 58 329.5 51 c 128,-1,32
 343 44 343 44 367.5 40 c 128,-1,33
 392 36 392 36 430 33 c 1,34,-1
 423 0 l 1,35,-1
 17 0 l 1,36,-1
 24 33 l 1,37,38
 47 35 47 35 64 37.5 c 128,-1,39
 81 40 81 40 97.5 47 c 128,-1,40
 114 54 114 54 132 66 c 128,-1,41
 150 78 150 78 175 99.5 c 128,-1,42
 200 121 200 121 234.5 153 c 128,-1,43
 269 185 269 185 318 231 c 2,44,-1
 663 568 l 1,45,-1
 533 846 l 2,46,47
 503 906 503 906 480.5 949.5 c 128,-1,48
 458 993 458 993 438 1023 c 128,-1,49
 418 1053 418 1053 401 1071 c 128,-1,50
 384 1089 384 1089 365.5 1099.5 c 128,-1,51
 347 1110 347 1110 325 1114 c 128,-1,52
 303 1118 303 1118 275 1119 c 1,53,-1
 283 1153 l 1,54,-1
 809 1153 l 1,55,-1
 801 1119 l 1,56,-1
 752 1118 l 2,57,58
 709 1116 709 1116 686.5 1104.5 c 128,-1,59
 664 1093 664 1093 658 1067 c 0,60,61
 655 1052 655 1052 658.5 1030.5 c 128,-1,62
 662 1009 662 1009 673.5 977.5 c 128,-1,63
 685 946 685 946 704 904 c 128,-1,64
 723 862 723 862 751 806 c 2,65,-1
 802 703 l 1,66,-1
 1049 943 l 2,67,68
 1097 991 1097 991 1119 1018.5 c 128,-1,69
 1141 1046 1141 1046 1144 1063 c 0,70,71
 1151 1092 1151 1092 1128.5 1104.5 c 128,-1,72
 1106 1117 1106 1117 1034 1119 c 1,73,-1
 1042 1153 l 1,74,-1
 1456 1153 l 1,75,-1
 1448 1119 l 1,0,1
EndSplineSet
EndChar

StartChar: Y
Encoding: 89 89 51
Width: 1257
Flags: W
LayerCount: 2
Fore
SplineSet
1461 1119 m 1,0,1
 1428 1117 1428 1117 1399 1107.5 c 128,-1,2
 1370 1098 1370 1098 1338 1075.5 c 128,-1,3
 1306 1053 1306 1053 1268 1015.5 c 128,-1,4
 1230 978 1230 978 1178 921 c 2,5,-1
 838 528 l 1,6,-1
 766 190 l 2,7,8
 755 141 755 141 755.5 110.5 c 128,-1,9
 756 80 756 80 771 63.5 c 128,-1,10
 786 47 786 47 820 40.5 c 128,-1,11
 854 34 854 34 912 33 c 1,12,-1
 905 0 l 1,13,-1
 372 0 l 1,14,-1
 379 33 l 1,15,16
 439 36 439 36 475.5 42.5 c 128,-1,17
 512 49 512 49 534 67 c 128,-1,18
 556 85 556 85 568 118.5 c 128,-1,19
 580 152 580 152 592 209 c 2,20,-1
 656 512 l 1,21,-1
 499 846 l 2,22,23
 454 937 454 937 425 991 c 128,-1,24
 396 1045 396 1045 373 1073 c 128,-1,25
 350 1101 350 1101 328 1109.5 c 128,-1,26
 306 1118 306 1118 275 1119 c 1,27,-1
 283 1153 l 1,28,-1
 770 1153 l 1,29,-1
 762 1119 l 1,30,31
 699 1116 699 1116 667 1107 c 128,-1,32
 635 1098 635 1098 628 1067 c 0,33,34
 625 1053 625 1053 628 1032 c 128,-1,35
 631 1011 631 1011 642 990 c 2,36,-1
 817 604 l 1,37,-1
 1150 998 l 2,38,39
 1166 1018 1166 1018 1175.5 1033 c 128,-1,40
 1185 1048 1185 1048 1188 1062 c 0,41,42
 1195 1093 1195 1093 1171 1105.5 c 128,-1,43
 1147 1118 1147 1118 1079 1119 c 1,44,-1
 1087 1153 l 1,45,-1
 1469 1153 l 1,46,-1
 1461 1119 l 1,0,1
EndSplineSet
EndChar

StartChar: Z
Encoding: 90 90 52
Width: 1063
Flags: W
LayerCount: 2
Fore
SplineSet
1105 306 m 1,0,-1
 998 0 l 1,1,-1
 15 0 l 1,2,-1
 20 26 l 1,3,-1
 1006 1086 l 1,4,-1
 622 1086 l 2,5,6
 446 1086 446 1086 372 1011 c 0,7,8
 358 997 358 997 346.5 983 c 128,-1,9
 335 969 335 969 325 951 c 128,-1,10
 315 933 315 933 304 910 c 128,-1,11
 293 887 293 887 280 855 c 1,12,-1
 235 855 l 1,13,-1
 333 1153 l 1,14,-1
 1250 1153 l 1,15,-1
 1244 1126 l 1,16,-1
 266 66 l 1,17,-1
 714 66 l 2,18,19
 865 66 865 66 945 134 c 0,20,21
 961 149 961 149 975 164 c 128,-1,22
 989 179 989 179 1002.5 198.5 c 128,-1,23
 1016 218 1016 218 1031 244 c 128,-1,24
 1046 270 1046 270 1065 306 c 1,25,-1
 1105 306 l 1,0,-1
EndSplineSet
EndChar

StartChar: bracketleft
Encoding: 91 91 53
Width: 580
Flags: W
LayerCount: 2
Fore
SplineSet
462 -271 m 1,0,-1
 95 -271 l 1,1,-1
 398 1153 l 1,2,-1
 765 1153 l 1,3,-1
 755 1109 l 1,4,-1
 599 1109 l 2,5,6
 557 1109 557 1109 535.5 1091.5 c 128,-1,7
 514 1074 514 1074 505 1032 c 2,8,-1
 256 -138 l 2,9,10
 237 -228 237 -228 322 -228 c 2,11,-1
 471 -228 l 1,12,-1
 462 -271 l 1,0,-1
EndSplineSet
EndChar

StartChar: backslash
Encoding: 92 92 54
Width: 423
Flags: W
LayerCount: 2
Fore
SplineSet
347 1119 m 1,0,-1
 357 -93 l 1,1,-1
 288 -93 l 1,2,-1
 279 1119 l 1,3,-1
 347 1119 l 1,0,-1
EndSplineSet
EndChar

StartChar: bracketright
Encoding: 93 93 55
Width: 580
Flags: W
LayerCount: 2
Fore
SplineSet
167 -228 m 2,0,1
 207 -228 207 -228 229.5 -210.5 c 128,-1,2
 252 -193 252 -193 261 -151 c 2,3,-1
 510 1018 l 2,4,5
 529 1109 529 1109 444 1109 c 2,6,-1
 294 1109 l 1,7,-1
 304 1153 l 1,8,-1
 672 1153 l 1,9,-1
 369 -271 l 1,10,-1
 1 -271 l 1,11,-1
 10 -228 l 1,12,-1
 167 -228 l 2,0,1
EndSplineSet
EndChar

StartChar: asciicircum
Encoding: 94 94 56
Width: 817
Flags: W
LayerCount: 2
Fore
SplineSet
151 517 m 1,0,-1
 602 1153 l 1,1,-1
 707 1153 l 1,2,-1
 885 517 l 1,3,-1
 767 517 l 1,4,-1
 625 1020 l 1,5,-1
 269 517 l 1,6,-1
 151 517 l 1,0,-1
EndSplineSet
EndChar

StartChar: underscore
Encoding: 95 95 57
Width: 870
Flags: W
LayerCount: 2
Fore
SplineSet
-46 -218 m 1,0,-1
 -27 -131 l 1,1,-1
 842 -131 l 1,2,-1
 823 -218 l 1,3,-1
 -46 -218 l 1,0,-1
EndSplineSet
EndChar

StartChar: grave
Encoding: 96 96 58
Width: 580
Flags: W
LayerCount: 2
Fore
SplineSet
539 882 m 1,0,-1
 306 1051 l 2,1,2
 287 1068 287 1068 277 1086.5 c 128,-1,3
 267 1105 267 1105 272 1126 c 0,4,5
 277 1151 277 1151 296.5 1166 c 128,-1,6
 316 1181 316 1181 344 1181 c 0,7,8
 362 1181 362 1181 375.5 1172 c 128,-1,9
 389 1163 389 1163 408 1140 c 2,10,-1
 609 882 l 1,11,-1
 539 882 l 1,0,-1
EndSplineSet
EndChar

StartChar: a
Encoding: 97 97 59
Width: 773
Flags: W
LayerCount: 2
Fore
SplineSet
783 70 m 1,0,1
 755 44 755 44 732.5 27.5 c 128,-1,2
 710 11 710 11 690.5 1 c 128,-1,3
 671 -9 671 -9 651.5 -13 c 128,-1,4
 632 -17 632 -17 609 -17 c 0,5,6
 555 -17 555 -17 535.5 12 c 128,-1,7
 516 41 516 41 524 110 c 1,8,9
 477 76 477 76 438 52 c 128,-1,10
 399 28 399 28 365.5 12.5 c 128,-1,11
 332 -3 332 -3 302 -10 c 128,-1,12
 272 -17 272 -17 243 -17 c 0,13,14
 203 -17 203 -17 172.5 -3.5 c 128,-1,15
 142 10 142 10 123 34.5 c 128,-1,16
 104 59 104 59 98 93.5 c 128,-1,17
 92 128 92 128 100 169 c 0,18,19
 110 212 110 212 135 253 c 128,-1,20
 160 294 160 294 195 320 c 0,21,22
 217 337 217 337 236 350 c 128,-1,23
 255 363 255 363 276.5 374.5 c 128,-1,24
 298 386 298 386 325 398.5 c 128,-1,25
 352 411 352 411 390.5 426 c 128,-1,26
 429 441 429 441 482 461 c 128,-1,27
 535 481 535 481 607 508 c 1,28,-1
 630 615 l 2,29,30
 646 687 646 687 619 723 c 128,-1,31
 592 759 592 759 528 759 c 0,32,33
 502 759 502 759 477.5 752.5 c 128,-1,34
 453 746 453 746 433.5 734.5 c 128,-1,35
 414 723 414 723 401.5 707.5 c 128,-1,36
 389 692 389 692 385 674 c 0,37,38
 382 659 382 659 381.5 637 c 128,-1,39
 381 615 381 615 379 604 c 0,40,41
 376 589 376 589 366.5 576 c 128,-1,42
 357 563 357 563 344.5 553 c 128,-1,43
 332 543 332 543 316 537 c 128,-1,44
 300 531 300 531 285 531 c 0,45,46
 255 531 255 531 237.5 553.5 c 128,-1,47
 220 576 220 576 226 606 c 0,48,49
 235 647 235 647 265 682.5 c 128,-1,50
 295 718 295 718 340 744.5 c 128,-1,51
 385 771 385 771 441.5 786 c 128,-1,52
 498 801 498 801 560 801 c 0,53,54
 717 801 717 801 755 705 c 0,55,56
 768 674 768 674 767 632 c 128,-1,57
 766 590 766 590 751 522 c 2,58,-1
 679 183 l 2,59,60
 667 125 667 125 673.5 103.5 c 128,-1,61
 680 82 680 82 710 82 c 0,62,63
 730 82 730 82 748 89 c 128,-1,64
 766 96 766 96 793 115 c 1,65,-1
 783 70 l 1,0,1
599 467 m 1,66,67
 514 438 514 438 454 411 c 128,-1,68
 394 384 394 384 355 355.5 c 128,-1,69
 316 327 316 327 294.5 295 c 128,-1,70
 273 263 273 263 265 224 c 2,71,-1
 264 218 l 2,72,73
 258 190 258 190 261 165.5 c 128,-1,74
 264 141 264 141 275 122.5 c 128,-1,75
 286 104 286 104 303.5 93.5 c 128,-1,76
 321 83 321 83 344 83 c 0,77,78
 370 83 370 83 407.5 93.5 c 128,-1,79
 445 104 445 104 481 123 c 0,80,81
 495 130 495 130 505.5 138 c 128,-1,82
 516 146 516 146 523 156 c 128,-1,83
 530 166 530 166 535.5 180 c 128,-1,84
 541 194 541 194 545 214 c 2,85,-1
 599 467 l 1,66,67
EndSplineSet
EndChar

StartChar: b
Encoding: 98 98 60
Width: 870
Flags: W
LayerCount: 2
Fore
SplineSet
404 653 m 1,0,1
 424 685 424 685 454.5 712 c 128,-1,2
 485 739 485 739 521.5 759 c 128,-1,3
 558 779 558 779 598 790 c 128,-1,4
 638 801 638 801 678 801 c 0,5,6
 744 801 744 801 793.5 772 c 128,-1,7
 843 743 843 743 873.5 692 c 128,-1,8
 904 641 904 641 912 572 c 128,-1,9
 920 503 920 503 903 423 c 0,10,11
 884 330 884 330 835 249.5 c 128,-1,12
 786 169 786 169 719 109.5 c 128,-1,13
 652 50 652 50 570.5 16.5 c 128,-1,14
 489 -17 489 -17 403 -17 c 0,15,16
 351 -17 351 -17 301.5 -7.5 c 128,-1,17
 252 2 252 2 215 18 c 128,-1,18
 178 34 178 34 156.5 54 c 128,-1,19
 135 74 135 74 139 94 c 2,20,-1
 332 998 l 2,21,22
 337 1025 337 1025 337.5 1042.5 c 128,-1,23
 338 1060 338 1060 330.5 1069.5 c 128,-1,24
 323 1079 323 1079 307 1082.5 c 128,-1,25
 291 1086 291 1086 265 1086 c 0,26,27
 256 1086 256 1086 249.5 1086 c 128,-1,28
 243 1086 243 1086 235 1085 c 1,29,-1
 241 1113 l 1,30,-1
 295 1126 l 2,31,32
 328 1135 328 1135 354.5 1142 c 128,-1,33
 381 1149 381 1149 405.5 1156 c 128,-1,34
 430 1163 430 1163 455 1171 c 128,-1,35
 480 1179 480 1179 510 1189 c 1,36,-1
 518 1186 l 1,37,-1
 404 653 l 1,0,1
291 122 m 2,38,39
 288 105 288 105 298 90 c 128,-1,40
 308 75 308 75 329.5 63.5 c 128,-1,41
 351 52 351 52 380 45 c 128,-1,42
 409 38 409 38 443 38 c 0,43,44
 552 38 552 38 627 116.5 c 128,-1,45
 702 195 702 195 733 343 c 0,46,47
 750 422 750 422 748.5 486.5 c 128,-1,48
 747 551 747 551 727.5 596.5 c 128,-1,49
 708 642 708 642 672 666.5 c 128,-1,50
 636 691 636 691 585 691 c 0,51,52
 550 691 550 691 517 680 c 128,-1,53
 484 669 484 669 456 651 c 128,-1,54
 428 633 428 633 409 609 c 128,-1,55
 390 585 390 585 385 560 c 2,56,-1
 291 122 l 2,38,39
EndSplineSet
EndChar

StartChar: c
Encoding: 99 99 61
Width: 773
Flags: W
LayerCount: 2
Fore
SplineSet
771 256 m 1,0,1
 743 218 743 218 721 189 c 128,-1,2
 699 160 699 160 678.5 137.5 c 128,-1,3
 658 115 658 115 639 97.5 c 128,-1,4
 620 80 620 80 598 65 c 0,5,6
 539 23 539 23 485 3 c 128,-1,7
 431 -17 431 -17 370 -17 c 0,8,9
 298 -17 298 -17 243 11.5 c 128,-1,10
 188 40 188 40 155 91.5 c 128,-1,11
 122 143 122 143 112.5 214 c 128,-1,12
 103 285 103 285 121 371 c 0,13,14
 143 474 143 474 196.5 559.5 c 128,-1,15
 250 645 250 645 328 703 c 0,16,17
 392 751 392 751 460.5 776 c 128,-1,18
 529 801 529 801 595 801 c 0,19,20
 650 801 650 801 695.5 786.5 c 128,-1,21
 741 772 741 772 772 747.5 c 128,-1,22
 803 723 803 723 817.5 690.5 c 128,-1,23
 832 658 832 658 824 621 c 0,24,25
 818 591 818 591 788.5 569.5 c 128,-1,26
 759 548 759 548 725 548 c 0,27,28
 699 548 699 548 681.5 570 c 128,-1,29
 664 592 664 592 661 628 c 2,30,-1
 658 666 l 2,31,32
 657 690 657 690 652.5 706.5 c 128,-1,33
 648 723 648 723 638 733 c 128,-1,34
 628 743 628 743 612.5 747 c 128,-1,35
 597 751 597 751 573 751 c 0,36,37
 520 751 520 751 472.5 728.5 c 128,-1,38
 425 706 425 706 385 666 c 128,-1,39
 345 626 345 626 316 570 c 128,-1,40
 287 514 287 514 273 447 c 0,41,42
 257 372 257 372 263.5 309.5 c 128,-1,43
 270 247 270 247 296 202.5 c 128,-1,44
 322 158 322 158 366 133 c 128,-1,45
 410 108 410 108 469 108 c 0,46,47
 507 108 507 108 540 116.5 c 128,-1,48
 573 125 573 125 605.5 144 c 128,-1,49
 638 163 638 163 673.5 194.5 c 128,-1,50
 709 226 709 226 750 271 c 1,51,-1
 771 256 l 1,0,1
EndSplineSet
EndChar

StartChar: d
Encoding: 100 100 62
Width: 870
Flags: W
LayerCount: 2
Fore
SplineSet
589 -12 m 1,0,-1
 613 99 l 1,1,2
 555 37 555 37 496.5 10 c 128,-1,3
 438 -17 438 -17 365 -17 c 0,4,5
 293 -17 293 -17 239.5 10 c 128,-1,6
 186 37 186 37 154 86.5 c 128,-1,7
 122 136 122 136 113.5 204.5 c 128,-1,8
 105 273 105 273 122 357 c 0,9,10
 142 450 142 450 188 531 c 128,-1,11
 234 612 234 612 295.5 672 c 128,-1,12
 357 732 357 732 430.5 766.5 c 128,-1,13
 504 801 504 801 579 801 c 0,14,15
 605 801 605 801 626.5 797 c 128,-1,16
 648 793 648 793 667.5 784.5 c 128,-1,17
 687 776 687 776 706 761.5 c 128,-1,18
 725 747 725 747 746 726 c 1,19,-1
 804 998 l 2,20,21
 809 1024 809 1024 809 1041 c 128,-1,22
 809 1058 809 1058 802.5 1068 c 128,-1,23
 796 1078 796 1078 781 1082 c 128,-1,24
 766 1086 766 1086 742 1086 c 0,25,26
 731 1086 731 1086 722.5 1086 c 128,-1,27
 714 1086 714 1086 703 1085 c 1,28,-1
 709 1113 l 1,29,30
 753 1124 753 1124 788.5 1133 c 128,-1,31
 824 1142 824 1142 856 1151 c 128,-1,32
 888 1160 888 1160 918 1169 c 128,-1,33
 948 1178 948 1178 981 1189 c 1,34,-1
 990 1186 l 1,35,-1
 780 198 l 2,36,37
 773 165 773 165 772 145 c 128,-1,38
 771 125 771 125 779.5 115 c 128,-1,39
 788 105 788 105 805.5 102 c 128,-1,40
 823 99 823 99 852 99 c 0,41,42
 856 99 856 99 861.5 99 c 128,-1,43
 867 99 867 99 876 101 c 1,44,-1
 870 73 l 1,45,-1
 595 -17 l 1,46,-1
 589 -12 l 1,0,-1
714 578 m 2,47,48
 722 612 722 612 714 643.5 c 128,-1,49
 706 675 706 675 686 699 c 128,-1,50
 666 723 666 723 637 737.5 c 128,-1,51
 608 752 608 752 573 752 c 0,52,53
 523 752 523 752 478.5 729 c 128,-1,54
 434 706 434 706 396 663 c 128,-1,55
 358 620 358 620 330 560 c 128,-1,56
 302 500 302 500 286 427 c 0,57,58
 269 346 269 346 272.5 281 c 128,-1,59
 276 216 276 216 298 169.5 c 128,-1,60
 320 123 320 123 359 98 c 128,-1,61
 398 73 398 73 452 73 c 0,62,63
 530 73 530 73 589 125 c 0,64,65
 605 139 605 139 616 154 c 128,-1,66
 627 169 627 169 629 178 c 2,67,-1
 714 578 l 2,47,48
EndSplineSet
EndChar

StartChar: e
Encoding: 101 101 63
Width: 773
Flags: W
LayerCount: 2
Fore
SplineSet
796 274 m 1,0,1
 710 129 710 129 601 56 c 128,-1,2
 492 -17 492 -17 365 -17 c 0,3,4
 290 -17 290 -17 235 10 c 128,-1,5
 180 37 180 37 149 87.5 c 128,-1,6
 118 138 118 138 110 210 c 128,-1,7
 102 282 102 282 122 372 c 0,8,9
 143 471 143 471 188 550.5 c 128,-1,10
 233 630 233 630 294 685.5 c 128,-1,11
 355 741 355 741 428 771 c 128,-1,12
 501 801 501 801 577 801 c 0,13,14
 646 801 646 801 698 775 c 128,-1,15
 750 749 750 749 779 701 c 0,16,17
 790 681 790 681 797.5 660 c 128,-1,18
 805 639 805 639 808 613.5 c 128,-1,19
 811 588 811 588 811 556 c 128,-1,20
 811 524 811 524 807 482 c 1,21,-1
 271 482 l 1,22,23
 254 387 254 387 259.5 315.5 c 128,-1,24
 265 244 265 244 290.5 197 c 128,-1,25
 316 150 316 150 359.5 126.5 c 128,-1,26
 403 103 403 103 461 103 c 0,27,28
 503 103 503 103 541 113 c 128,-1,29
 579 123 579 123 616 144.5 c 128,-1,30
 653 166 653 166 691 201 c 128,-1,31
 729 236 729 236 771 286 c 1,32,-1
 796 274 l 1,0,1
642 538 m 1,33,34
 645 595 645 595 640 633 c 128,-1,35
 635 671 635 671 620.5 694.5 c 128,-1,36
 606 718 606 718 579.5 728 c 128,-1,37
 553 738 553 738 513 738 c 0,38,39
 432 738 432 738 377.5 689.5 c 128,-1,40
 323 641 323 641 287 538 c 1,41,-1
 642 538 l 1,33,34
EndSplineSet
EndChar

StartChar: f
Encoding: 102 102 64
Width: 580
Flags: W
LayerCount: 2
Fore
SplineSet
692 728 m 1,0,-1
 480 728 l 1,1,-1
 364 181 l 2,2,3
 354 132 354 132 352.5 102.5 c 128,-1,4
 351 73 351 73 364.5 56.5 c 128,-1,5
 378 40 378 40 408.5 34 c 128,-1,6
 439 28 439 28 492 26 c 1,7,-1
 487 0 l 1,8,-1
 35 0 l 1,9,-1
 40 26 l 1,10,11
 88 29 88 29 117.5 35.5 c 128,-1,12
 147 42 147 42 165.5 58.5 c 128,-1,13
 184 75 184 75 195.5 104 c 128,-1,14
 207 133 207 133 217 181 c 2,15,-1
 333 728 l 1,16,-1
 191 728 l 1,17,-1
 203 784 l 1,18,-1
 345 784 l 1,19,20
 357 836 357 836 369 875 c 128,-1,21
 381 914 381 914 394.5 946 c 128,-1,22
 408 978 408 978 425.5 1005.5 c 128,-1,23
 443 1033 443 1033 466 1062 c 0,24,25
 514 1122 514 1122 584.5 1155.5 c 128,-1,26
 655 1189 655 1189 737 1189 c 0,27,28
 776 1189 776 1189 808 1181 c 128,-1,29
 840 1173 840 1173 861 1158.5 c 128,-1,30
 882 1144 882 1144 891 1124.5 c 128,-1,31
 900 1105 900 1105 895 1081 c 0,32,33
 889 1051 889 1051 863 1030.5 c 128,-1,34
 837 1010 837 1010 807 1010 c 0,35,36
 785 1010 785 1010 770.5 1024 c 128,-1,37
 756 1038 756 1038 743 1073 c 0,38,39
 728 1111 728 1111 710.5 1125.5 c 128,-1,40
 693 1140 693 1140 665 1140 c 0,41,42
 614 1140 614 1140 581.5 1100.5 c 128,-1,43
 549 1061 549 1061 533 985 c 2,44,-1
 490 784 l 1,45,-1
 704 784 l 1,46,-1
 692 728 l 1,0,-1
EndSplineSet
EndChar

StartChar: g
Encoding: 103 103 65
Width: 870
Flags: W
LayerCount: 2
Fore
SplineSet
817 676 m 1,0,1
 826 634 826 634 826 601 c 128,-1,2
 826 568 826 568 818 530 c 0,3,4
 804 464 804 464 775 417 c 128,-1,5
 746 370 746 370 693 332 c 0,6,7
 638 292 638 292 583.5 275.5 c 128,-1,8
 529 259 529 259 474 259 c 0,9,10
 461 259 461 259 440.5 260.5 c 128,-1,11
 420 262 420 262 392 268 c 1,12,13
 373 263 373 263 352 250 c 128,-1,14
 331 237 331 237 312.5 221 c 128,-1,15
 294 205 294 205 280.5 188 c 128,-1,16
 267 171 267 171 264 158 c 0,17,18
 255 117 255 117 390 111 c 2,19,-1
 613 101 l 2,20,21
 709 96 709 96 755 46 c 128,-1,22
 801 -4 801 -4 783 -85 c 0,23,24
 773 -136 773 -136 741.5 -177.5 c 128,-1,25
 710 -219 710 -219 650 -261 c 0,26,27
 609 -289 609 -289 563 -311 c 128,-1,28
 517 -333 517 -333 468 -348 c 128,-1,29
 419 -363 419 -363 368.5 -371 c 128,-1,30
 318 -379 318 -379 269 -379 c 0,31,32
 207 -379 207 -379 155 -365.5 c 128,-1,33
 103 -352 103 -352 66.5 -329.5 c 128,-1,34
 30 -307 30 -307 13 -276.5 c 128,-1,35
 -4 -246 -4 -246 3 -211 c 0,36,37
 8 -186 8 -186 22.5 -162.5 c 128,-1,38
 37 -139 37 -139 63 -114 c 128,-1,39
 89 -89 89 -89 127.5 -60.5 c 128,-1,40
 166 -32 166 -32 219 2 c 1,41,42
 171 28 171 28 156 47.5 c 128,-1,43
 141 67 141 67 146 94 c 0,44,45
 151 115 151 115 162 131 c 128,-1,46
 173 147 173 147 195 166.5 c 128,-1,47
 217 186 217 186 253 213 c 128,-1,48
 289 240 289 240 342 284 c 1,49,50
 264 327 264 327 238 381 c 128,-1,51
 212 435 212 435 229 517 c 0,52,53
 242 578 242 578 276 630 c 128,-1,54
 310 682 310 682 358.5 720 c 128,-1,55
 407 758 407 758 465.5 779.5 c 128,-1,56
 524 801 524 801 586 801 c 0,57,58
 618 801 618 801 649.5 793 c 128,-1,59
 681 785 681 785 714 774 c 2,60,-1
 749 761 l 2,61,62
 773 752 773 752 794 747.5 c 128,-1,63
 815 743 815 743 841 743 c 2,64,-1
 976 743 l 1,65,-1
 962 676 l 1,66,-1
 817 676 l 1,0,1
255 -3 m 1,67,68
 221 -36 221 -36 199.5 -58 c 128,-1,69
 178 -80 178 -80 165.5 -96 c 128,-1,70
 153 -112 153 -112 147 -125 c 128,-1,71
 141 -138 141 -138 138 -153 c 0,72,73
 132 -182 132 -182 145 -205.5 c 128,-1,74
 158 -229 158 -229 187.5 -246 c 128,-1,75
 217 -263 217 -263 262 -272 c 128,-1,76
 307 -281 307 -281 365 -281 c 0,77,78
 438 -281 438 -281 501.5 -269 c 128,-1,79
 565 -257 565 -257 612.5 -234.5 c 128,-1,80
 660 -212 660 -212 691 -180.5 c 128,-1,81
 722 -149 722 -149 730 -111 c 0,82,83
 735 -87 735 -87 727 -71 c 128,-1,84
 719 -55 719 -55 695.5 -45 c 128,-1,85
 672 -35 672 -35 631.5 -30.5 c 128,-1,86
 591 -26 591 -26 532 -26 c 0,87,88
 500 -26 500 -26 460.5 -24 c 128,-1,89
 421 -22 421 -22 382 -19 c 128,-1,90
 343 -16 343 -16 309.5 -12 c 128,-1,91
 276 -8 276 -8 255 -3 c 1,67,68
387 583 m 2,92,93
 374 520 374 520 376 468.5 c 128,-1,94
 378 417 378 417 394 380.5 c 128,-1,95
 410 344 410 344 438.5 323.5 c 128,-1,96
 467 303 467 303 506 303 c 0,97,98
 566 303 566 303 610.5 345 c 128,-1,99
 655 387 655 387 671 462 c 0,100,101
 682 513 682 513 679 568.5 c 128,-1,102
 676 624 676 624 662 670 c 0,103,104
 650 709 650 709 621.5 730.5 c 128,-1,105
 593 752 593 752 553 752 c 0,106,107
 493 752 493 752 449 709 c 128,-1,108
 405 666 405 666 388 588 c 2,109,-1
 387 583 l 2,92,93
EndSplineSet
EndChar

StartChar: h
Encoding: 104 104 66
Width: 870
Flags: W
LayerCount: 2
Fore
SplineSet
311 178 m 2,0,1
 302 133 302 133 300 105 c 128,-1,2
 298 77 298 77 307.5 61 c 128,-1,3
 317 45 317 45 338.5 37.5 c 128,-1,4
 360 30 360 30 397 26 c 1,5,-1
 392 0 l 1,6,-1
 15 0 l 1,7,-1
 20 26 l 1,8,9
 58 31 58 31 82 38 c 128,-1,10
 106 45 106 45 121 60.5 c 128,-1,11
 136 76 136 76 145.5 104 c 128,-1,12
 155 132 155 132 164 178 c 2,13,-1
 339 998 l 2,14,15
 345 1026 345 1026 345 1043.5 c 128,-1,16
 345 1061 345 1061 337.5 1070.5 c 128,-1,17
 330 1080 330 1080 313 1083 c 128,-1,18
 296 1086 296 1086 268 1086 c 0,19,20
 262 1086 262 1086 257.5 1086 c 128,-1,21
 253 1086 253 1086 247 1085 c 1,22,-1
 253 1113 l 1,23,-1
 304 1126 l 2,24,25
 342 1136 342 1136 371 1144 c 128,-1,26
 400 1152 400 1152 425 1159.5 c 128,-1,27
 450 1167 450 1167 471.5 1174 c 128,-1,28
 493 1181 493 1181 516 1189 c 1,29,-1
 525 1184 l 1,30,-1
 413 654 l 1,31,32
 451 693 451 693 486.5 721 c 128,-1,33
 522 749 522 749 556 767 c 128,-1,34
 590 785 590 785 625.5 793 c 128,-1,35
 661 801 661 801 700 801 c 0,36,37
 913 801 913 801 854 524 c 2,38,-1
 780 178 l 2,39,40
 771 133 771 133 768 106 c 128,-1,41
 765 79 765 79 773 63.5 c 128,-1,42
 781 48 781 48 799.5 40 c 128,-1,43
 818 32 818 32 852 26 c 1,44,-1
 847 0 l 1,45,-1
 479 0 l 1,46,-1
 484 26 l 1,47,48
 523 30 523 30 547.5 37.5 c 128,-1,49
 572 45 572 45 588.5 61.5 c 128,-1,50
 605 78 605 78 615 105.5 c 128,-1,51
 625 133 625 133 634 178 c 2,52,-1
 707 522 l 2,53,54
 747 706 747 706 617 706 c 0,55,56
 591 706 591 706 566.5 700 c 128,-1,57
 542 694 542 694 516.5 681.5 c 128,-1,58
 491 669 491 669 462.5 648 c 128,-1,59
 434 627 434 627 400 597 c 1,60,-1
 311 178 l 2,0,1
EndSplineSet
EndChar

StartChar: i
Encoding: 105 105 67
Width: 484
Flags: W
LayerCount: 2
Fore
SplineSet
481 796 m 1,0,-1
 349 178 l 2,1,2
 339 131 339 131 337 102.5 c 128,-1,3
 335 74 335 74 345 58 c 128,-1,4
 355 42 355 42 379 35.5 c 128,-1,5
 403 29 403 29 445 26 c 1,6,-1
 440 0 l 1,7,-1
 28 0 l 1,8,-1
 33 26 l 1,9,10
 79 29 79 29 107 35.5 c 128,-1,11
 135 42 135 42 153.5 57.5 c 128,-1,12
 172 73 172 73 182.5 101.5 c 128,-1,13
 193 130 193 130 203 178 c 2,14,-1
 289 581 l 2,15,16
 301 639 301 639 293 662.5 c 128,-1,17
 285 686 285 686 253 686 c 0,18,19
 242 685 242 685 226 684 c 128,-1,20
 210 683 210 683 192 681 c 2,21,-1
 179 679 l 1,22,-1
 184 705 l 1,23,-1
 474 801 l 1,24,-1
 481 796 l 1,0,-1
475 1189 m 0,25,26
 494 1189 494 1189 509 1182 c 128,-1,27
 524 1175 524 1175 534 1163 c 128,-1,28
 544 1151 544 1151 547.5 1134.5 c 128,-1,29
 551 1118 551 1118 547 1100 c 0,30,31
 543 1081 543 1081 532.5 1065 c 128,-1,32
 522 1049 522 1049 507 1037 c 128,-1,33
 492 1025 492 1025 474 1018 c 128,-1,34
 456 1011 456 1011 437 1011 c 0,35,36
 400 1011 400 1011 380.5 1037 c 128,-1,37
 361 1063 361 1063 369 1100 c 0,38,39
 373 1118 373 1118 383.5 1134.5 c 128,-1,40
 394 1151 394 1151 408.5 1163 c 128,-1,41
 423 1175 423 1175 440 1182 c 128,-1,42
 457 1189 457 1189 475 1189 c 0,25,26
EndSplineSet
EndChar

StartChar: j
Encoding: 106 106 68
Width: 484
Flags: W
LayerCount: 2
Fore
SplineSet
336 0 m 2,0,1
 296 -188 296 -188 201.5 -283.5 c 128,-1,2
 107 -379 107 -379 -38 -379 c 0,3,4
 -73 -379 -73 -379 -101.5 -372 c 128,-1,5
 -130 -365 -130 -365 -149.5 -352 c 128,-1,6
 -169 -339 -169 -339 -177.5 -322 c 128,-1,7
 -186 -305 -186 -305 -182 -284 c 0,8,9
 -176 -255 -176 -255 -150.5 -235.5 c 128,-1,10
 -125 -216 -125 -216 -95 -216 c 0,11,12
 -74 -216 -74 -216 -58.5 -228.5 c 128,-1,13
 -43 -241 -43 -241 -24 -271 c 0,14,15
 -7 -299 -7 -299 5 -309.5 c 128,-1,16
 17 -320 17 -320 37 -320 c 0,17,18
 54 -320 54 -320 73.5 -311 c 128,-1,19
 93 -302 93 -302 104 -289 c 0,20,21
 114 -276 114 -276 122 -260 c 128,-1,22
 130 -244 130 -244 138 -220 c 128,-1,23
 146 -196 146 -196 154 -162 c 128,-1,24
 162 -128 162 -128 173 -78 c 2,25,-1
 313 581 l 2,26,27
 325 638 325 638 317 662 c 128,-1,28
 309 686 309 686 279 686 c 0,29,30
 265 686 265 686 247 684.5 c 128,-1,31
 229 683 229 683 209 681 c 2,32,-1
 200 679 l 1,33,-1
 206 706 l 1,34,35
 246 718 246 718 281.5 728.5 c 128,-1,36
 317 739 317 739 350.5 750.5 c 128,-1,37
 384 762 384 762 419.5 774 c 128,-1,38
 455 786 455 786 497 801 c 1,39,-1
 505 796 l 1,40,-1
 336 0 l 2,0,1
499 1189 m 0,41,42
 518 1189 518 1189 533 1182 c 128,-1,43
 548 1175 548 1175 557.5 1163 c 128,-1,44
 567 1151 567 1151 570.5 1134.5 c 128,-1,45
 574 1118 574 1118 570 1100 c 0,46,47
 562 1062 562 1062 530.5 1036.5 c 128,-1,48
 499 1011 499 1011 461 1011 c 0,49,50
 424 1011 424 1011 404.5 1037 c 128,-1,51
 385 1063 385 1063 393 1100 c 0,52,53
 397 1118 397 1118 407.5 1134.5 c 128,-1,54
 418 1151 418 1151 432.5 1163 c 128,-1,55
 447 1175 447 1175 464.5 1182 c 128,-1,56
 482 1189 482 1189 499 1189 c 0,41,42
EndSplineSet
EndChar

StartChar: k
Encoding: 107 107 69
Width: 870
Flags: W
LayerCount: 2
Fore
SplineSet
248 1113 m 1,0,-1
 304 1126 l 2,1,2
 344 1135 344 1135 375 1143 c 128,-1,3
 406 1151 406 1151 432.5 1158.5 c 128,-1,4
 459 1166 459 1166 483.5 1173.5 c 128,-1,5
 508 1181 508 1181 534 1189 c 1,6,-1
 541 1186 l 1,7,-1
 385 455 l 1,8,-1
 669 666 l 2,9,10
 691 683 691 683 705 699 c 128,-1,11
 719 715 719 715 722 726 c 0,12,13
 726 745 726 745 708.5 751 c 128,-1,14
 691 757 691 757 641 759 c 1,15,-1
 646 784 l 1,16,-1
 1002 784 l 1,17,-1
 996 757 l 1,18,-1
 982 757 l 2,19,20
 937 757 937 757 899 747 c 0,21,22
 878 741 878 741 846 724 c 128,-1,23
 814 707 814 707 772 680 c 128,-1,24
 730 653 730 653 680 617 c 128,-1,25
 630 581 630 581 574 538 c 2,26,-1
 513 491 l 1,27,-1
 708 153 l 2,28,29
 728 120 728 120 747.5 96.5 c 128,-1,30
 767 73 767 73 788 58 c 128,-1,31
 809 43 809 43 832 35.5 c 128,-1,32
 855 28 855 28 884 26 c 1,33,-1
 879 0 l 1,34,-1
 500 0 l 1,35,-1
 505 26 l 1,36,-1
 538 26 l 2,37,38
 553 26 553 26 565 33.5 c 128,-1,39
 577 41 577 41 580 52 c 0,40,41
 581 59 581 59 578.5 67 c 128,-1,42
 576 75 576 75 568 88 c 0,43,44
 560 98 560 98 560 105 c 2,45,-1
 381 437 l 1,46,-1
 313 116 l 2,47,48
 303 70 303 70 320 50.5 c 128,-1,49
 337 31 337 31 390 28 c 2,50,-1
 425 26 l 1,51,-1
 420 0 l 1,52,-1
 12 0 l 1,53,-1
 17 26 l 1,54,55
 66 34 66 34 93.5 40.5 c 128,-1,56
 121 47 121 47 136 58.5 c 128,-1,57
 151 70 151 70 158.5 89.5 c 128,-1,58
 166 109 166 109 173 143 c 2,59,-1
 351 982 l 2,60,61
 358 1013 358 1013 359 1033.5 c 128,-1,62
 360 1054 360 1054 353.5 1066 c 128,-1,63
 347 1078 347 1078 333.5 1083 c 128,-1,64
 320 1088 320 1088 299 1088 c 0,65,66
 285 1088 285 1088 272 1087 c 128,-1,67
 259 1086 259 1086 242 1085 c 1,68,-1
 248 1113 l 1,0,-1
EndSplineSet
EndChar

StartChar: l
Encoding: 108 108 70
Width: 484
Flags: W
LayerCount: 2
Fore
SplineSet
269 1113 m 1,0,1
 316 1124 316 1124 354 1133 c 128,-1,2
 392 1142 392 1142 426.5 1151 c 128,-1,3
 461 1160 461 1160 493.5 1169 c 128,-1,4
 526 1178 526 1178 562 1189 c 1,5,-1
 569 1186 l 1,6,-1
 348 146 l 2,7,8
 340 110 340 110 340 87.5 c 128,-1,9
 340 65 340 65 351.5 52.5 c 128,-1,10
 363 40 363 40 387.5 34.5 c 128,-1,11
 412 29 412 29 452 26 c 1,12,-1
 447 0 l 1,13,-1
 37 0 l 1,14,-1
 42 26 l 1,15,16
 84 29 84 29 111.5 36 c 128,-1,17
 139 43 139 43 157 57 c 128,-1,18
 175 71 175 71 185 93.5 c 128,-1,19
 195 116 195 116 203 151 c 2,20,-1
 379 982 l 2,21,22
 392 1043 392 1043 381 1065.5 c 128,-1,23
 370 1088 370 1088 329 1088 c 0,24,25
 318 1088 318 1088 303 1087 c 128,-1,26
 288 1086 288 1086 273 1085 c 2,27,-1
 263 1085 l 1,28,-1
 269 1113 l 1,0,1
EndSplineSet
EndChar

StartChar: m
Encoding: 109 109 71
Width: 1354
Flags: W
LayerCount: 2
Fore
SplineSet
186 722 m 1,0,1
 224 732 224 732 256 741 c 128,-1,2
 288 750 288 750 318.5 759.5 c 128,-1,3
 349 769 349 769 380 779 c 128,-1,4
 411 789 411 789 447 801 c 1,5,-1
 458 797 l 1,6,-1
 430 666 l 1,7,8
 493 707 493 707 536.5 733.5 c 128,-1,9
 580 760 580 760 613 775 c 128,-1,10
 646 790 646 790 672.5 795.5 c 128,-1,11
 699 801 699 801 728 801 c 0,12,13
 800 801 800 801 837 765 c 128,-1,14
 874 729 874 729 882 654 c 1,15,16
 969 731 969 731 1045 766 c 128,-1,17
 1121 801 1121 801 1197 801 c 0,18,19
 1399 801 1399 801 1333 491 c 2,20,-1
 1257 133 l 2,21,22
 1246 80 1246 80 1259 56.5 c 128,-1,23
 1272 33 1272 33 1310 30 c 2,24,-1
 1354 26 l 1,25,-1
 1349 0 l 1,26,-1
 968 0 l 1,27,-1
 973 26 l 1,28,29
 1011 30 1011 30 1035.5 36.5 c 128,-1,30
 1060 43 1060 43 1074.5 56 c 128,-1,31
 1089 69 1089 69 1098 91.5 c 128,-1,32
 1107 114 1107 114 1115 151 c 2,33,-1
 1193 518 l 2,34,35
 1204 572 1204 572 1205.5 609 c 128,-1,36
 1207 646 1207 646 1196 668.5 c 128,-1,37
 1185 691 1185 691 1162.5 701 c 128,-1,38
 1140 711 1140 711 1103 711 c 0,39,40
 1043 711 1043 711 992 686 c 128,-1,41
 941 661 941 661 890 604 c 1,42,-1
 797 166 l 2,43,44
 788 125 788 125 788 98.5 c 128,-1,45
 788 72 788 72 799 56 c 128,-1,46
 810 40 810 40 832.5 33.5 c 128,-1,47
 855 27 855 27 892 26 c 1,48,-1
 887 0 l 1,49,-1
 498 0 l 1,50,-1
 503 26 l 1,51,52
 541 29 541 29 565 34.5 c 128,-1,53
 589 40 589 40 605 53.5 c 128,-1,54
 621 67 621 67 630 89.5 c 128,-1,55
 639 112 639 112 647 150 c 2,56,-1
 728 528 l 2,57,58
 767 711 767 711 652 711 c 0,59,60
 629 711 629 711 603 705.5 c 128,-1,61
 577 700 577 700 551 691 c 128,-1,62
 525 682 525 682 501 669 c 128,-1,63
 477 656 477 656 458 641 c 0,64,65
 446 632 446 632 435.5 621 c 128,-1,66
 425 610 425 610 425 608 c 2,67,-1
 320 116 l 2,68,69
 315 91 315 91 317 74 c 128,-1,70
 319 57 319 57 330 47 c 128,-1,71
 341 37 341 37 362.5 32 c 128,-1,72
 384 27 384 27 419 26 c 1,73,-1
 414 0 l 1,74,-1
 28 0 l 1,75,-1
 33 26 l 1,76,77
 69 27 69 27 94.5 33 c 128,-1,78
 120 39 120 39 136.5 53 c 128,-1,79
 153 67 153 67 163.5 90 c 128,-1,80
 174 113 174 113 181 148 c 2,81,-1
 274 588 l 2,82,83
 288 651 288 651 279.5 675.5 c 128,-1,84
 271 700 271 700 236 700 c 0,85,86
 222 700 222 700 210 698.5 c 128,-1,87
 198 697 198 697 180 693 c 1,88,-1
 186 722 l 1,0,1
EndSplineSet
EndChar

StartChar: n
Encoding: 110 110 72
Width: 870
Flags: W
LayerCount: 2
Fore
SplineSet
181 722 m 1,0,1
 219 733 219 733 251 742 c 128,-1,2
 283 751 283 751 313 760 c 128,-1,3
 343 769 343 769 373 779 c 128,-1,4
 403 789 403 789 438 801 c 1,5,-1
 449 797 l 1,6,-1
 420 660 l 1,7,8
 474 702 474 702 513 729 c 128,-1,9
 552 756 552 756 584 772 c 128,-1,10
 616 788 616 788 644.5 794.5 c 128,-1,11
 673 801 673 801 703 801 c 0,12,13
 800 801 800 801 839.5 733 c 128,-1,14
 879 665 879 665 852 540 c 2,15,-1
 767 141 l 2,16,17
 761 109 761 109 761 88.5 c 128,-1,18
 761 68 761 68 770 55 c 128,-1,19
 779 42 779 42 798.5 35.5 c 128,-1,20
 818 29 818 29 849 26 c 1,21,-1
 844 0 l 1,22,-1
 482 0 l 1,23,-1
 487 26 l 1,24,25
 521 29 521 29 543.5 36.5 c 128,-1,26
 566 44 566 44 582 60.5 c 128,-1,27
 598 77 598 77 608.5 104 c 128,-1,28
 619 131 619 131 628 173 c 2,29,-1
 705 536 l 2,30,31
 724 624 724 624 701 664.5 c 128,-1,32
 678 705 678 705 614 705 c 0,33,34
 592 705 592 705 572 700.5 c 128,-1,35
 552 696 552 696 530 684.5 c 128,-1,36
 508 673 508 673 479.5 654 c 128,-1,37
 451 635 451 635 414 606 c 1,38,-1
 310 116 l 2,39,40
 305 93 305 93 307 77 c 128,-1,41
 309 61 309 61 320 50.5 c 128,-1,42
 331 40 331 40 352 34.5 c 128,-1,43
 373 29 373 29 405 26 c 1,44,-1
 400 0 l 1,45,-1
 31 0 l 1,46,-1
 36 26 l 1,47,48
 70 29 70 29 92 35.5 c 128,-1,49
 114 42 114 42 129.5 56.5 c 128,-1,50
 145 71 145 71 154.5 94.5 c 128,-1,51
 164 118 164 118 172 156 c 2,52,-1
 263 588 l 2,53,54
 277 652 277 652 268 676 c 128,-1,55
 259 700 259 700 223 700 c 0,56,57
 209 700 209 700 196.5 698.5 c 128,-1,58
 184 697 184 697 175 693 c 1,59,-1
 181 722 l 1,0,1
EndSplineSet
EndChar

StartChar: o
Encoding: 111 111 73
Width: 870
Flags: W
LayerCount: 2
Fore
SplineSet
605 801 m 0,0,1
 689 801 689 801 753 771.5 c 128,-1,2
 817 742 817 742 857 689.5 c 128,-1,3
 897 637 897 637 910 564.5 c 128,-1,4
 923 492 923 492 905 407 c 0,5,6
 886 317 886 317 840 239.5 c 128,-1,7
 794 162 794 162 730 105 c 128,-1,8
 666 48 666 48 588 15.5 c 128,-1,9
 510 -17 510 -17 428 -17 c 0,10,11
 345 -17 345 -17 281.5 14 c 128,-1,12
 218 45 218 45 178.5 100 c 128,-1,13
 139 155 139 155 126.5 230 c 128,-1,14
 114 305 114 305 133 394 c 0,15,16
 152 484 152 484 196.5 558.5 c 128,-1,17
 241 633 241 633 303.5 687 c 128,-1,18
 366 741 366 741 443 771 c 128,-1,19
 520 801 520 801 605 801 c 0,0,1
571 752 m 0,20,21
 524 752 524 752 482.5 732.5 c 128,-1,22
 441 713 441 713 406.5 677.5 c 128,-1,23
 372 642 372 642 346.5 591.5 c 128,-1,24
 321 541 321 541 308 479 c 0,25,26
 291 398 291 398 289 317.5 c 128,-1,27
 287 237 287 237 304.5 173.5 c 128,-1,28
 322 110 322 110 359 70.5 c 128,-1,29
 396 31 396 31 458 31 c 0,30,31
 507 31 507 31 550.5 52.5 c 128,-1,32
 594 74 594 74 630 115 c 128,-1,33
 666 156 666 156 692.5 214.5 c 128,-1,34
 719 273 719 273 734 347 c 0,35,36
 753 436 753 436 750.5 510.5 c 128,-1,37
 748 585 748 585 726.5 638.5 c 128,-1,38
 705 692 705 692 665.5 722 c 128,-1,39
 626 752 626 752 571 752 c 0,20,21
EndSplineSet
EndChar

StartChar: p
Encoding: 112 112 74
Width: 870
Flags: W
LayerCount: 2
Fore
SplineSet
166 712 m 1,0,1
 204 723 204 723 236.5 733 c 128,-1,2
 269 743 269 743 301 753.5 c 128,-1,3
 333 764 333 764 365.5 775.5 c 128,-1,4
 398 787 398 787 436 801 c 1,5,-1
 446 797 l 1,6,-1
 417 663 l 1,7,8
 491 735 491 735 557 768 c 128,-1,9
 623 801 623 801 698 801 c 0,10,11
 761 801 761 801 808.5 773.5 c 128,-1,12
 856 746 856 746 884 696.5 c 128,-1,13
 912 647 912 647 919.5 579 c 128,-1,14
 927 511 927 511 910 430 c 0,15,16
 890 335 890 335 844 253.5 c 128,-1,17
 798 172 798 172 736 112 c 128,-1,18
 674 52 674 52 599.5 17.5 c 128,-1,19
 525 -17 525 -17 448 -17 c 0,20,21
 421 -17 421 -17 399 -13.5 c 128,-1,22
 377 -10 377 -10 358.5 -1.5 c 128,-1,23
 340 7 340 7 323 21.5 c 128,-1,24
 306 36 306 36 289 58 c 1,25,-1
 231 -216 l 2,26,27
 222 -257 222 -257 222 -282.5 c 128,-1,28
 222 -308 222 -308 235.5 -322 c 128,-1,29
 249 -336 249 -336 278 -341 c 128,-1,30
 307 -346 307 -346 356 -347 c 1,31,-1
 349 -377 l 1,32,-1
 -72 -377 l 1,33,-1
 -66 -349 l 1,34,35
 -26 -345 -26 -345 -1 -338 c 128,-1,36
 24 -331 24 -331 40.5 -318 c 128,-1,37
 57 -305 57 -305 66 -283.5 c 128,-1,38
 75 -262 75 -262 82 -228 c 2,39,-1
 255 586 l 2,40,41
 263 622 263 622 263 642 c 128,-1,42
 263 662 263 662 254.5 672 c 128,-1,43
 246 682 246 682 226.5 684 c 128,-1,44
 207 686 207 686 176 686 c 0,45,46
 172 686 172 686 168 686 c 128,-1,47
 164 686 164 686 160 684 c 2,48,-1
 166 712 l 1,0,1
309 153 m 2,49,50
 305 133 305 133 317 113 c 128,-1,51
 329 93 329 93 352 76 c 128,-1,52
 375 59 375 59 405 48.5 c 128,-1,53
 435 38 435 38 466 38 c 0,54,55
 513 38 513 38 556.5 61.5 c 128,-1,56
 600 85 600 85 637 127.5 c 128,-1,57
 674 170 674 170 701.5 230 c 128,-1,58
 729 290 729 290 744 362 c 0,59,60
 761 438 761 438 758.5 499.5 c 128,-1,61
 756 561 756 561 737.5 604.5 c 128,-1,62
 719 648 719 648 684.5 672 c 128,-1,63
 650 696 650 696 602 696 c 0,64,65
 572 696 572 696 538 685.5 c 128,-1,66
 504 675 504 675 475 658 c 128,-1,67
 446 641 446 641 425 620.5 c 128,-1,68
 404 600 404 600 400 581 c 2,69,-1
 309 153 l 2,49,50
EndSplineSet
EndChar

StartChar: q
Encoding: 113 113 75
Width: 870
Flags: W
LayerCount: 2
Fore
SplineSet
890 796 m 1,0,-1
 908 796 l 1,1,-1
 686 -246 l 2,2,3
 680 -273 680 -273 680.5 -290.5 c 128,-1,4
 681 -308 681 -308 690 -319.5 c 128,-1,5
 699 -331 699 -331 719 -338.5 c 128,-1,6
 739 -346 739 -346 773 -354 c 1,7,-1
 768 -377 l 1,8,-1
 358 -377 l 1,9,-1
 364 -349 l 1,10,11
 411 -345 411 -345 442.5 -337.5 c 128,-1,12
 474 -330 474 -330 495 -315.5 c 128,-1,13
 516 -301 516 -301 527.5 -277 c 128,-1,14
 539 -253 539 -253 547 -216 c 2,15,-1
 616 111 l 1,16,17
 546 48 546 48 470 15.5 c 128,-1,18
 394 -17 394 -17 316 -17 c 0,19,20
 254 -17 254 -17 209 10.5 c 128,-1,21
 164 38 164 38 138 87.5 c 128,-1,22
 112 137 112 137 106 205.5 c 128,-1,23
 100 274 100 274 117 357 c 0,24,25
 137 451 137 451 184 532.5 c 128,-1,26
 231 614 231 614 295.5 674 c 128,-1,27
 360 734 360 734 437.5 768 c 128,-1,28
 515 802 515 802 597 802 c 0,29,30
 622 802 622 802 645 799 c 128,-1,31
 668 796 668 796 690 788.5 c 128,-1,32
 712 781 712 781 734 769 c 128,-1,33
 756 757 756 757 783 739 c 1,34,-1
 890 796 l 1,0,-1
716 580 m 2,35,36
 753 754 753 754 592 754 c 0,37,38
 536 754 536 754 486.5 730.5 c 128,-1,39
 437 707 437 707 396.5 663.5 c 128,-1,40
 356 620 356 620 326 558 c 128,-1,41
 296 496 296 496 280 420 c 256,42,43
 264 344 264 344 267 283 c 128,-1,44
 270 222 270 222 290.5 178.5 c 128,-1,45
 311 135 311 135 348 111.5 c 128,-1,46
 385 88 385 88 438 88 c 0,47,48
 478 88 478 88 520.5 103 c 128,-1,49
 563 118 563 118 599 143 c 0,50,51
 614 153 614 153 623 170.5 c 128,-1,52
 632 188 632 188 639 221 c 2,53,-1
 716 580 l 2,35,36
EndSplineSet
EndChar

StartChar: r
Encoding: 114 114 76
Width: 580
Flags: W
LayerCount: 2
Fore
SplineSet
162 706 m 1,0,1
 203 718 203 718 237.5 728.5 c 128,-1,2
 272 739 272 739 304 750.5 c 128,-1,3
 336 762 336 762 369 774 c 128,-1,4
 402 786 402 786 439 801 c 1,5,-1
 448 797 l 1,6,-1
 414 637 l 1,7,8
 456 683 456 683 489 714.5 c 128,-1,9
 522 746 522 746 550 765 c 128,-1,10
 578 784 578 784 604 792.5 c 128,-1,11
 630 801 630 801 657 801 c 0,12,13
 702 801 702 801 722 776.5 c 128,-1,14
 742 752 742 752 733 709 c 0,15,16
 725 672 725 672 702.5 651 c 128,-1,17
 680 630 680 630 648 630 c 0,18,19
 631 630 631 630 616.5 638 c 128,-1,20
 602 646 602 646 586 665 c 0,21,22
 575 678 575 678 566 684.5 c 128,-1,23
 557 691 557 691 546 691 c 0,24,25
 529 691 529 691 505 676.5 c 128,-1,26
 481 662 481 662 458 640.5 c 128,-1,27
 435 619 435 619 417 594 c 128,-1,28
 399 569 399 569 395 548 c 2,29,-1
 312 156 l 2,30,31
 304 119 304 119 305.5 95 c 128,-1,32
 307 71 307 71 320 56 c 128,-1,33
 333 41 333 41 360 34.5 c 128,-1,34
 387 28 387 28 432 26 c 1,35,-1
 427 0 l 1,36,-1
 8 0 l 1,37,-1
 13 26 l 1,38,39
 57 34 57 34 83.5 41.5 c 128,-1,40
 110 49 110 49 125 61.5 c 128,-1,41
 140 74 140 74 148.5 93.5 c 128,-1,42
 157 113 157 113 164 146 c 2,43,-1
 256 581 l 2,44,45
 268 639 268 639 259 662.5 c 128,-1,46
 250 686 250 686 218 686 c 0,47,48
 202 686 202 686 189 684.5 c 128,-1,49
 176 683 176 683 156 679 c 1,50,-1
 162 706 l 1,0,1
EndSplineSet
EndChar

StartChar: s
Encoding: 115 115 77
Width: 677
Flags: W
LayerCount: 2
Fore
SplineSet
638 547 m 1,0,1
 635 605 635 605 625.5 645.5 c 128,-1,2
 616 686 616 686 599 711.5 c 128,-1,3
 582 737 582 737 555.5 749 c 128,-1,4
 529 761 529 761 492 761 c 0,5,6
 432 761 432 761 387.5 728 c 128,-1,7
 343 695 343 695 332 643 c 0,8,9
 325 607 325 607 337.5 576 c 128,-1,10
 350 545 350 545 382 524 c 2,11,-1
 547 412 l 2,12,13
 614 366 614 366 638.5 318 c 128,-1,14
 663 270 663 270 649 206 c 0,15,16
 640 160 640 160 611.5 119.5 c 128,-1,17
 583 79 583 79 543 48.5 c 128,-1,18
 503 18 503 18 455 0.5 c 128,-1,19
 407 -17 407 -17 356 -17 c 0,20,21
 337 -17 337 -17 307 -12 c 128,-1,22
 277 -7 277 -7 246.5 -1.5 c 128,-1,23
 216 4 216 4 190.5 9 c 128,-1,24
 165 14 165 14 155 14 c 0,25,26
 140 14 140 14 131.5 10 c 128,-1,27
 123 6 123 6 111 -7 c 1,28,-1
 88 -7 l 1,29,-1
 146 264 l 1,30,-1
 174 264 l 1,31,32
 175 227 175 227 176.5 200 c 128,-1,33
 178 173 178 173 182 152 c 128,-1,34
 186 131 186 131 192.5 114.5 c 128,-1,35
 199 98 199 98 210 82 c 0,36,37
 229 53 229 53 263.5 37 c 128,-1,38
 298 21 298 21 343 21 c 0,39,40
 410 21 410 21 456 55 c 128,-1,41
 502 89 502 89 515 146 c 0,42,43
 532 226 532 226 452 277 c 2,44,-1
 362 334 l 2,45,46
 313 365 313 365 280.5 394.5 c 128,-1,47
 248 424 248 424 230 454 c 128,-1,48
 212 484 212 484 208 516 c 128,-1,49
 204 548 204 548 212 585 c 0,50,51
 222 632 222 632 248.5 671.5 c 128,-1,52
 275 711 275 711 312.5 739.5 c 128,-1,53
 350 768 350 768 396.5 783.5 c 128,-1,54
 443 799 443 799 495 799 c 0,55,56
 528 799 528 799 556.5 794 c 128,-1,57
 585 789 585 789 612 778 c 0,58,59
 625 773 625 773 635.5 769.5 c 128,-1,60
 646 766 646 766 654 766 c 256,61,62
 662 766 662 766 665 767.5 c 128,-1,63
 668 769 668 769 683 780 c 2,64,-1
 688 784 l 1,65,-1
 707 784 l 1,66,-1
 657 547 l 1,67,-1
 638 547 l 1,0,1
EndSplineSet
EndChar

StartChar: t
Encoding: 116 116 78
Width: 484
Flags: W
LayerCount: 2
Fore
SplineSet
598 728 m 1,0,-1
 422 728 l 1,1,-1
 316 229 l 2,2,3
 299 147 299 147 312 110 c 128,-1,4
 325 73 325 73 374 73 c 0,5,6
 403 73 403 73 430 87 c 128,-1,7
 457 101 457 101 491 134 c 1,8,-1
 509 115 l 1,9,10
 451 46 451 46 394 14.5 c 128,-1,11
 337 -17 337 -17 273 -17 c 0,12,13
 118 -17 118 -17 165 204 c 2,14,-1
 276 728 l 1,15,-1
 184 728 l 1,16,17
 178 732 178 732 180 739 c 0,18,19
 183 755 183 755 216 773 c 0,20,21
 226 776 226 776 248 792 c 128,-1,22
 270 808 270 808 298.5 833 c 128,-1,23
 327 858 327 858 359.5 890.5 c 128,-1,24
 392 923 392 923 424 959 c 0,25,26
 437 973 437 973 447 984.5 c 128,-1,27
 457 996 457 996 470 1008 c 1,28,29
 478 1008 478 1008 479 1003.5 c 128,-1,30
 480 999 480 999 477 985 c 2,31,-1
 434 784 l 1,32,-1
 610 784 l 1,33,-1
 598 728 l 1,0,-1
EndSplineSet
EndChar

StartChar: u
Encoding: 117 117 79
Width: 870
Flags: W
LayerCount: 2
Fore
SplineSet
847 63 m 1,0,1
 812 54 812 54 780.5 45.5 c 128,-1,2
 749 37 749 37 719.5 28 c 128,-1,3
 690 19 690 19 658.5 8.5 c 128,-1,4
 627 -2 627 -2 591 -15 c 1,5,-1
 585 -12 l 1,6,-1
 616 133 l 1,7,-1
 525 58 l 2,8,9
 480 21 480 21 429.5 2 c 128,-1,10
 379 -17 379 -17 330 -17 c 0,11,12
 282 -17 282 -17 247 -1 c 128,-1,13
 212 15 212 15 190 44.5 c 128,-1,14
 168 74 168 74 162 115.5 c 128,-1,15
 156 157 156 157 167 209 c 2,16,-1
 260 648 l 2,17,18
 267 678 267 678 266 698.5 c 128,-1,19
 265 719 265 719 255.5 731.5 c 128,-1,20
 246 744 246 744 226 750.5 c 128,-1,21
 206 757 206 757 176 759 c 1,22,-1
 181 784 l 1,23,-1
 435 784 l 1,24,-1
 314 216 l 2,25,26
 309 189 309 189 313.5 164.5 c 128,-1,27
 318 140 318 140 331.5 122 c 128,-1,28
 345 104 345 104 365 93.5 c 128,-1,29
 385 83 385 83 411 83 c 0,30,31
 490 83 490 83 577 143 c 0,32,33
 598 157 598 157 610 177.5 c 128,-1,34
 622 198 622 198 629 235 c 2,35,-1
 716 644 l 2,36,37
 723 677 723 677 722.5 697.5 c 128,-1,38
 722 718 722 718 710 730 c 128,-1,39
 698 742 698 742 673.5 747 c 128,-1,40
 649 752 649 752 610 754 c 1,41,-1
 616 784 l 1,42,-1
 892 784 l 1,43,-1
 765 186 l 2,44,45
 759 156 759 156 759 137 c 128,-1,46
 759 118 759 118 768 106.5 c 128,-1,47
 777 95 777 95 795 91 c 128,-1,48
 813 87 813 87 843 87 c 2,49,-1
 852 87 l 1,50,-1
 847 63 l 1,0,1
EndSplineSet
EndChar

StartChar: v
Encoding: 118 118 80
Width: 870
Flags: W
LayerCount: 2
Fore
SplineSet
990 757 m 1,0,1
 971 755 971 755 957 750 c 128,-1,2
 943 745 943 745 928.5 731 c 128,-1,3
 914 717 914 717 895.5 691 c 128,-1,4
 877 665 877 665 848 621 c 2,5,-1
 508 63 l 2,6,7
 477 12 477 12 462 -6.5 c 128,-1,8
 447 -25 447 -25 439 -25 c 0,9,10
 428 -25 428 -25 423 -3 c 128,-1,11
 418 19 418 19 412 58 c 2,12,-1
 309 557 l 2,13,14
 293 624 293 624 282.5 663.5 c 128,-1,15
 272 703 272 703 260 723 c 128,-1,16
 248 743 248 743 233 749.5 c 128,-1,17
 218 756 218 756 193 757 c 1,18,-1
 199 784 l 1,19,-1
 540 784 l 1,20,-1
 534 757 l 1,21,22
 489 753 489 753 469 742.5 c 128,-1,23
 449 732 449 732 444 709 c 0,24,25
 442 697 442 697 442 679.5 c 128,-1,26
 442 662 442 662 446 644 c 2,27,-1
 529 198 l 1,28,-1
 797 649 l 2,29,30
 813 675 813 675 819 701 c 0,31,32
 829 750 829 750 748 757 c 1,33,-1
 754 784 l 1,34,-1
 996 784 l 1,35,-1
 990 757 l 1,0,1
EndSplineSet
EndChar

StartChar: w
Encoding: 119 119 81
Width: 1257
Flags: W
LayerCount: 2
Fore
SplineSet
1374 784 m 1,0,-1
 1368 757 l 1,1,2
 1354 752 1354 752 1344.5 747 c 128,-1,3
 1335 742 1335 742 1326 732.5 c 128,-1,4
 1317 723 1317 723 1305.5 707 c 128,-1,5
 1294 691 1294 691 1276 663 c 2,6,-1
 909 61 l 2,7,8
 893 35 893 35 882.5 18 c 128,-1,9
 872 1 872 1 864.5 -8.5 c 128,-1,10
 857 -18 857 -18 852 -21.5 c 128,-1,11
 847 -25 847 -25 841 -25 c 0,12,13
 836 -25 836 -25 833 -22.5 c 128,-1,14
 830 -20 830 -20 827.5 -11.5 c 128,-1,15
 825 -3 825 -3 822.5 11.5 c 128,-1,16
 820 26 820 26 816 50 c 2,17,-1
 746 462 l 1,18,-1
 461 43 l 2,19,20
 437 9 437 9 424 -8 c 128,-1,21
 411 -25 411 -25 403 -25 c 0,22,23
 388 -25 388 -25 375 52 c 2,24,-1
 266 648 l 2,25,26
 258 681 258 681 252 701.5 c 128,-1,27
 246 722 246 722 238.5 734 c 128,-1,28
 231 746 231 746 221.5 751 c 128,-1,29
 212 756 212 756 197 757 c 1,30,-1
 203 784 l 1,31,-1
 516 784 l 1,32,-1
 510 757 l 1,33,34
 461 751 461 751 442 738 c 128,-1,35
 423 725 423 725 416 695 c 0,36,37
 413 683 413 683 414 671.5 c 128,-1,38
 415 660 415 660 417 648 c 2,39,-1
 493 193 l 1,40,-1
 725 540 l 1,41,42
 716 606 716 606 709.5 647 c 128,-1,43
 703 688 703 688 692 711.5 c 128,-1,44
 681 735 681 735 663.5 744.5 c 128,-1,45
 646 754 646 754 616 757 c 1,46,-1
 622 784 l 1,47,-1
 975 784 l 1,48,-1
 969 757 l 1,49,50
 938 752 938 752 917.5 747.5 c 128,-1,51
 897 743 897 743 884 736 c 128,-1,52
 871 729 871 729 865 719 c 128,-1,53
 859 709 859 709 856 694 c 0,54,55
 854 686 854 686 853.5 680 c 128,-1,56
 853 674 853 674 853.5 664.5 c 128,-1,57
 854 655 854 655 856.5 638.5 c 128,-1,58
 859 622 859 622 863 592 c 2,59,-1
 926 202 l 1,60,-1
 1165 588 l 2,61,62
 1187 623 1187 623 1201.5 653 c 128,-1,63
 1216 683 1216 683 1220 703 c 0,64,65
 1225 726 1225 726 1211 737 c 128,-1,66
 1197 748 1197 748 1154 757 c 1,67,-1
 1160 784 l 1,68,-1
 1374 784 l 1,0,-1
EndSplineSet
EndChar

StartChar: x
Encoding: 120 120 82
Width: 870
Flags: W
LayerCount: 2
Fore
SplineSet
489 26 m 1,0,1
 531 28 531 28 546.5 36.5 c 128,-1,2
 562 45 562 45 567 68 c 0,3,4
 570 83 570 83 564 99 c 2,5,-1
 457 343 l 1,6,-1
 274 129 l 2,7,8
 228 76 228 76 224 58 c 0,9,10
 220 41 220 41 235 33.5 c 128,-1,11
 250 26 250 26 287 26 c 1,12,-1
 282 0 l 1,13,-1
 30 0 l 1,14,-1
 35 26 l 1,15,16
 57 28 57 28 73 32 c 128,-1,17
 89 36 89 36 104.5 45 c 128,-1,18
 120 54 120 54 137.5 71 c 128,-1,19
 155 88 155 88 180 115 c 2,20,-1
 440 402 l 1,21,-1
 329 653 l 2,22,23
 316 683 316 683 304 703 c 128,-1,24
 292 723 292 723 279.5 735 c 128,-1,25
 267 747 267 747 252 752 c 128,-1,26
 237 757 237 757 218 757 c 2,27,-1
 202 757 l 1,28,-1
 208 784 l 1,29,-1
 568 784 l 1,30,-1
 562 757 l 1,31,32
 523 756 523 756 503 746.5 c 128,-1,33
 483 737 483 737 479 719 c 0,34,35
 476 702 476 702 489 660.5 c 128,-1,36
 502 619 502 619 526 564 c 1,37,-1
 544 530 l 1,38,39
 584 576 584 576 612.5 606 c 128,-1,40
 641 636 641 636 659 656.5 c 128,-1,41
 677 677 677 677 687 691 c 128,-1,42
 697 705 697 705 700 719 c 0,43,44
 704 737 704 737 691 746 c 128,-1,45
 678 755 678 755 639 757 c 1,46,-1
 645 784 l 1,47,-1
 920 784 l 1,48,-1
 914 757 l 1,49,50
 872 756 872 756 831 736 c 128,-1,51
 790 716 790 716 757 681 c 2,52,-1
 568 472 l 1,53,-1
 718 131 l 2,54,55
 732 102 732 102 745 82 c 128,-1,56
 758 62 758 62 772 49.5 c 128,-1,57
 786 37 786 37 802.5 31.5 c 128,-1,58
 819 26 819 26 839 26 c 1,59,-1
 834 0 l 1,60,-1
 484 0 l 1,61,-1
 489 26 l 1,0,1
EndSplineSet
EndChar

StartChar: y
Encoding: 121 121 83
Width: 870
Flags: W
LayerCount: 2
Fore
SplineSet
987 757 m 1,0,1
 971 755 971 755 958.5 750.5 c 128,-1,2
 946 746 946 746 934.5 737 c 128,-1,3
 923 728 923 728 911.5 714 c 128,-1,4
 900 700 900 700 887 679 c 2,5,-1
 468 -31 l 2,6,7
 413 -125 413 -125 365 -191 c 128,-1,8
 317 -257 317 -257 272.5 -299 c 128,-1,9
 228 -341 228 -341 185.5 -360 c 128,-1,10
 143 -379 143 -379 100 -379 c 0,11,12
 73 -379 73 -379 50.5 -371.5 c 128,-1,13
 28 -364 28 -364 14 -350.5 c 128,-1,14
 0 -337 0 -337 -5.5 -318.5 c 128,-1,15
 -11 -300 -11 -300 -7 -279 c 0,16,17
 0 -247 0 -247 27 -224.5 c 128,-1,18
 54 -202 54 -202 84 -202 c 0,19,20
 105 -202 105 -202 127.5 -206.5 c 128,-1,21
 150 -211 150 -211 172 -221 c 0,22,23
 183 -226 183 -226 192.5 -229.5 c 128,-1,24
 202 -233 202 -233 210 -233 c 0,25,26
 228 -233 228 -233 258 -213 c 128,-1,27
 288 -193 288 -193 317 -155 c 0,28,29
 331 -137 331 -137 349 -108.5 c 128,-1,30
 367 -80 367 -80 384 -51.5 c 128,-1,31
 401 -23 401 -23 413 0.5 c 128,-1,32
 425 24 425 24 427 33 c 0,33,34
 431 53 431 53 420.5 98 c 128,-1,35
 410 143 410 143 387 209 c 2,36,-1
 372 261 l 1,37,-1
 370 275 l 1,38,-1
 262 703 l 2,39,40
 251 749 251 749 186 759 c 1,41,-1
 191 784 l 1,42,-1
 549 784 l 1,43,-1
 543 757 l 1,44,45
 486 755 486 755 462 744.5 c 128,-1,46
 438 734 438 734 433 711 c 0,47,48
 427 683 427 683 435 644 c 2,49,-1
 543 204 l 1,50,-1
 813 684 l 2,51,52
 818 693 818 693 822 700.5 c 128,-1,53
 826 708 826 708 827 714 c 0,54,55
 836 757 836 757 752 757 c 1,56,-1
 758 784 l 1,57,-1
 993 784 l 1,58,-1
 987 757 l 1,0,1
EndSplineSet
EndChar

StartChar: z
Encoding: 122 122 84
Width: 773
Flags: W
LayerCount: 2
Fore
SplineSet
703 0 m 1,0,-1
 47 0 l 1,1,-1
 52 26 l 1,2,-1
 665 731 l 1,3,-1
 424 731 l 2,4,5
 385 731 385 731 358.5 725 c 128,-1,6
 332 719 332 719 312 702 c 128,-1,7
 292 685 292 685 277 655.5 c 128,-1,8
 262 626 262 626 245 578 c 1,9,-1
 215 578 l 1,10,-1
 259 784 l 1,11,-1
 867 784 l 1,12,-1
 861 757 l 1,13,-1
 244 52 l 1,14,-1
 484 52 l 2,15,16
 551 52 551 52 597 63.5 c 128,-1,17
 643 75 643 75 666 98 c 0,18,19
 676 108 676 108 685 119.5 c 128,-1,20
 694 131 694 131 703.5 147.5 c 128,-1,21
 713 164 713 164 723.5 186.5 c 128,-1,22
 734 209 734 209 747 242 c 1,23,-1
 777 235 l 1,24,-1
 703 0 l 1,0,-1
EndSplineSet
EndChar

StartChar: braceleft
Encoding: 123 123 85
Width: 836
Flags: W
LayerCount: 2
Fore
SplineSet
542 -315 m 1,0,1
 499 -315 499 -315 468 -312.5 c 128,-1,2
 437 -310 437 -310 414 -305 c 128,-1,3
 391 -300 391 -300 373.5 -291.5 c 128,-1,4
 356 -283 356 -283 341 -271 c 0,5,6
 309 -247 309 -247 299.5 -196.5 c 128,-1,7
 290 -146 290 -146 306 -71 c 2,8,-1
 372 237 l 2,9,10
 381 282 381 282 381.5 313.5 c 128,-1,11
 382 345 382 345 369.5 367.5 c 128,-1,12
 357 390 357 390 332 405.5 c 128,-1,13
 307 421 307 421 266 435 c 1,14,15
 313 448 313 448 344.5 463.5 c 128,-1,16
 376 479 376 479 398 501 c 128,-1,17
 420 523 420 523 433 554.5 c 128,-1,18
 446 586 446 586 456 632 c 2,19,-1
 522 942 l 2,20,21
 537 1013 537 1013 561 1059 c 128,-1,22
 585 1105 585 1105 625 1132 c 128,-1,23
 665 1159 665 1159 722.5 1170.5 c 128,-1,24
 780 1182 780 1182 860 1184 c 1,25,-1
 856 1164 l 1,26,27
 808 1152 808 1152 774 1135.5 c 128,-1,28
 740 1119 740 1119 716.5 1094.5 c 128,-1,29
 693 1070 693 1070 677.5 1034.5 c 128,-1,30
 662 999 662 999 651 950 c 2,31,-1
 589 658 l 2,32,33
 578 604 578 604 563 567 c 128,-1,34
 548 530 548 530 524 504.5 c 128,-1,35
 500 479 500 479 465 462.5 c 128,-1,36
 430 446 430 446 379 433 c 1,37,38
 425 421 425 421 453 405 c 128,-1,39
 481 389 481 389 494.5 364 c 128,-1,40
 508 339 508 339 507 302 c 128,-1,41
 506 265 506 265 494 211 c 2,42,-1
 432 -82 l 2,43,44
 422 -131 422 -131 422.5 -166 c 128,-1,45
 423 -201 423 -201 436 -226 c 128,-1,46
 449 -251 449 -251 476 -267.5 c 128,-1,47
 503 -284 503 -284 546 -296 c 1,48,-1
 542 -315 l 1,0,1
EndSplineSet
EndChar

StartChar: bar
Encoding: 124 124 86
Width: 348
Flags: W
LayerCount: 2
Fore
SplineSet
365 1176 m 1,0,-1
 480 1176 l 1,1,-1
 225 -25 l 1,2,-1
 110 -25 l 1,3,-1
 365 1176 l 1,0,-1
EndSplineSet
EndChar

StartChar: asciitilde
Encoding: 126 126 87
Width: 942
Flags: W
LayerCount: 2
Fore
SplineSet
974 472 m 1,0,1
 935 430 935 430 903 401.5 c 128,-1,2
 871 373 871 373 842 356 c 128,-1,3
 813 339 813 339 785.5 331.5 c 128,-1,4
 758 324 758 324 728 324 c 256,5,6
 698 324 698 324 676 327 c 128,-1,7
 654 330 654 330 628 340 c 128,-1,8
 602 350 602 350 568.5 368.5 c 128,-1,9
 535 387 535 387 483 418 c 0,10,11
 463 430 463 430 437 436 c 128,-1,12
 411 442 411 442 385 442 c 0,13,14
 365 442 365 442 348.5 437.5 c 128,-1,15
 332 433 332 433 314.5 423 c 128,-1,16
 297 413 297 413 279 396 c 128,-1,17
 261 379 261 379 239 354 c 1,18,-1
 156 409 l 1,19,20
 195 451 195 451 226.5 479 c 128,-1,21
 258 507 258 507 287.5 524.5 c 128,-1,22
 317 542 317 542 344.5 549.5 c 128,-1,23
 372 557 372 557 402 557 c 0,24,25
 431 557 431 557 453.5 554 c 128,-1,26
 476 551 476 551 501.5 541 c 128,-1,27
 527 531 527 531 561 512.5 c 128,-1,28
 595 494 595 494 646 463 c 0,29,30
 666 450 666 450 691.5 444.5 c 128,-1,31
 717 439 717 439 744 439 c 0,32,33
 763 439 763 439 780.5 443 c 128,-1,34
 798 447 798 447 815 457.5 c 128,-1,35
 832 468 832 468 850.5 485 c 128,-1,36
 869 502 869 502 892 528 c 1,37,-1
 974 472 l 1,0,1
EndSplineSet
EndChar

StartChar: ccedilla
Encoding: 231 231 90
Width: 805
Flags: W
LayerCount: 2
Fore
SplineSet
775 198 m 1,0,-1
 764 142 l 1,1,2
 616 37 616 37 445 -9 c 1,3,-1
 408 -65 l 1,4,5
 481 -86 481 -86 481 -146 c 0,6,7
 481 -197 481 -197 424.5 -240.5 c 128,-1,8
 368 -284 368 -284 301 -284 c 0,9,10
 272 -284 272 -284 232 -277 c 1,11,-1
 287 -201 l 1,12,13
 322 -223 322 -223 348 -223 c 0,14,15
 412 -223 412 -223 412 -172 c 0,16,17
 412 -117 412 -117 311 -111 c 1,18,-1
 376 -19 l 1,19,20
 145 5 145 5 145 228 c 0,21,22
 145 445 145 445 302 622 c 128,-1,23
 459 799 459 799 652 799 c 0,24,25
 736 799 736 799 819 762 c 1,26,-1
 770 578 l 1,27,-1
 725 578 l 1,28,-1
 728 589 l 2,29,30
 735 622 735 622 735 638 c 0,31,32
 735 737 735 737 599 737 c 0,33,34
 475 737 475 737 382.5 595 c 128,-1,35
 290 453 290 453 290 263 c 0,36,37
 290 62 290 62 446 62 c 0,38,39
 563 62 563 62 775 198 c 1,0,-1
EndSplineSet
EndChar

StartChar: icircumflex
Encoding: 238 238 95
Width: 468
Flags: W
LayerCount: 2
Fore
SplineSet
328 0 m 1,0,-1
 140 0 l 1,1,-1
 140 1117 l 1,2,-1
 328 1117 l 1,3,-1
 328 0 l 1,0,-1
521 1297 m 1,4,-1
 370 1297 l 1,5,-1
 231 1560 l 1,6,-1
 93 1297 l 1,7,-1
 -54 1297 l 1,8,-1
 120 1676 l 1,9,-1
 347 1676 l 1,10,-1
 521 1297 l 1,4,-1
EndSplineSet
EndChar

StartChar: idieresis
Encoding: 239 239 96
Width: 468
Flags: W
LayerCount: 2
Fore
SplineSet
328 0 m 1,0,-1
 140 0 l 1,1,-1
 140 1117 l 1,2,-1
 328 1117 l 1,3,-1
 328 0 l 1,0,-1
506 1304 m 1,4,-1
 317 1304 l 1,5,-1
 317 1499 l 1,6,-1
 506 1499 l 1,7,-1
 506 1304 l 1,4,-1
151 1304 m 1,8,-1
 -38 1304 l 1,9,-1
 -38 1499 l 1,10,-1
 151 1499 l 1,11,-1
 151 1304 l 1,8,-1
EndSplineSet
EndChar

StartChar: dagger
Encoding: 8224 8224 101
Width: 932
Flags: W
LayerCount: 2
Fore
SplineSet
347 -231 m 1,0,-1
 567 622 l 1,1,-1
 248 592 l 1,2,-1
 297 700 l 1,3,-1
 576 668 l 1,4,-1
 607 1066 l 1,5,-1
 755 1093 l 1,6,-1
 621 668 l 1,7,-1
 941 700 l 1,8,-1
 895 592 l 1,9,-1
 612 622 l 1,10,-1
 496 -213 l 1,11,-1
 347 -231 l 1,0,-1
EndSplineSet
EndChar

StartChar: degree
Encoding: 176 176 102
Width: 409
Flags: W
LayerCount: 2
Fore
SplineSet
395 844 m 0,0,1
 344 844 344 844 307.5 880 c 128,-1,2
 271 916 271 916 271 968 c 0,3,4
 271 1021 271 1021 307.5 1057 c 128,-1,5
 344 1093 344 1093 395 1093 c 0,6,7
 447 1093 447 1093 483 1057 c 128,-1,8
 519 1021 519 1021 519 968 c 0,9,10
 519 916 519 916 483 880 c 128,-1,11
 447 844 447 844 395 844 c 0,0,1
395 888 m 256,12,13
 427 888 427 888 450.5 912 c 128,-1,14
 474 936 474 936 474 968 c 256,15,16
 474 1000 474 1000 450.5 1024 c 128,-1,17
 427 1048 427 1048 395 1048 c 256,18,19
 363 1048 363 1048 339 1024 c 128,-1,20
 315 1000 315 1000 315 968 c 256,21,22
 315 936 315 936 339 912 c 128,-1,23
 363 888 363 888 395 888 c 256,12,13
EndSplineSet
EndChar

StartChar: cent
Encoding: 162 162 103
Width: 693
Flags: W
LayerCount: 2
Fore
SplineSet
365 -18 m 1,0,-1
 404 176 l 1,1,2
 142 195 142 195 142 355 c 0,3,4
 142 459 142 459 242 534.5 c 128,-1,5
 342 610 342 610 492 622 c 1,6,-1
 527 799 l 1,7,-1
 572 799 l 1,8,-1
 537 622 l 1,9,10
 637 617 637 617 715 601 c 1,11,-1
 689 471 l 1,12,-1
 644 471 l 1,13,14
 644 477 644 477 645 488 c 0,15,16
 648 509 648 509 648 517 c 0,17,18
 648 572 648 572 528 578 c 1,19,-1
 459 229 l 1,20,21
 567 229 567 229 661 280 c 1,22,-1
 650 229 l 1,23,24
 544 176 544 176 448 176 c 1,25,-1
 409 -18 l 1,26,-1
 365 -18 l 1,0,-1
415 232 m 1,27,-1
 484 578 l 1,28,29
 272 547 272 547 272 383 c 0,30,31
 272 255 272 255 415 232 c 1,27,-1
EndSplineSet
EndChar

StartChar: sterling
Encoding: 163 163 104
Width: 874
Flags: W
LayerCount: 2
Fore
SplineSet
17 0 m 1,0,-1
 109 88 l 1,1,-1
 122 88 l 2,2,3
 229 88 229 88 272.5 136.5 c 128,-1,4
 316 185 316 185 347 343 c 2,5,-1
 356 391 l 1,6,-1
 196 391 l 1,7,-1
 205 436 l 1,8,-1
 365 436 l 1,9,-1
 378 499 l 2,10,11
 407 642 407 642 496.5 721 c 128,-1,12
 586 800 586 800 718 800 c 0,13,14
 797 800 797 800 892 765 c 1,15,-1
 858 586 l 1,16,-1
 808 586 l 1,17,-1
 810 598 l 2,18,19
 812 608 812 608 812 620 c 0,20,21
 812 746 812 746 679 746 c 0,22,23
 614 746 614 746 584.5 710 c 128,-1,24
 555 674 555 674 535 569 c 2,25,-1
 508 436 l 1,26,-1
 748 436 l 1,27,-1
 739 391 l 1,28,-1
 499 391 l 1,29,-1
 492 359 l 2,30,31
 473 265 473 265 427.5 208 c 128,-1,32
 382 151 382 151 275 88 c 1,33,-1
 480 88 l 2,34,35
 617 88 617 88 679 102.5 c 128,-1,36
 741 117 741 117 819 167 c 1,37,-1
 808 113 l 1,38,39
 735 35 735 35 665.5 7.5 c 128,-1,40
 596 -20 596 -20 470 -20 c 1,41,-1
 442 -19 l 1,42,-1
 17 0 l 1,0,-1
EndSplineSet
EndChar

StartChar: section
Encoding: 167 167 105
Width: 932
Flags: W
LayerCount: 2
Fore
SplineSet
107 -153 m 1,0,-1
 232 -80 l 1,1,2
 348 -178 348 -178 481 -178 c 0,3,4
 564 -178 564 -178 621.5 -127.5 c 128,-1,5
 679 -77 679 -77 679 -5 c 0,6,7
 679 48 679 48 645.5 80.5 c 128,-1,8
 612 113 612 113 513 160 c 2,9,-1
 440 193 l 2,10,11
 247 283 247 283 247 409 c 0,12,13
 247 528 247 528 409 652 c 1,14,15
 328 717 328 717 328 815 c 0,16,17
 328 938 328 938 440 1015.5 c 128,-1,18
 552 1093 552 1093 727 1093 c 0,19,20
 814 1093 814 1093 933 1060 c 1,21,-1
 897 879 l 1,22,-1
 853 879 l 1,23,24
 857 904 857 904 857 916 c 0,25,26
 857 1039 857 1039 652 1039 c 0,27,28
 560 1039 560 1039 500.5 987 c 128,-1,29
 441 935 441 935 441 853 c 0,30,31
 441 798 441 798 466 774.5 c 128,-1,32
 491 751 491 751 613 686 c 2,33,-1
 674 652 l 2,34,35
 854 553 854 553 854 444 c 0,36,37
 854 319 854 319 703 200 c 1,38,39
 801 136 801 136 801 40 c 0,40,41
 801 -75 801 -75 684.5 -153 c 128,-1,42
 568 -231 568 -231 397 -231 c 0,43,44
 244 -231 244 -231 107 -153 c 1,0,-1
667 229 m 1,45,46
 747 319 747 319 747 394 c 0,47,48
 747 470 747 470 628 527 c 2,49,-1
 558 562 l 2,50,51
 495 593 495 593 445 625 c 1,52,53
 355 545 355 545 355 456 c 0,54,55
 355 382 355 382 474 326 c 2,56,-1
 571 279 l 2,57,58
 607 263 607 263 667 229 c 1,45,46
EndSplineSet
EndChar

StartChar: bullet
Encoding: 8226 8226 106
Width: 931
Flags: W
LayerCount: 2
Fore
SplineSet
817 662 m 256,0,1
 817 517 817 517 713.5 414 c 128,-1,2
 610 311 610 311 465 311 c 256,3,4
 320 311 320 311 217 414 c 128,-1,5
 114 517 114 517 114 662 c 256,6,7
 114 807 114 807 217 910 c 128,-1,8
 320 1013 320 1013 465 1013 c 256,9,10
 610 1013 610 1013 713.5 910 c 128,-1,11
 817 807 817 807 817 662 c 256,0,1
EndSplineSet
EndChar

StartChar: paragraph
Encoding: 182 182 107
Width: 932
Flags: W
LayerCount: 2
Fore
SplineSet
365 -239 m 1,0,-1
 511 496 l 1,1,2
 241 542 241 542 241 747 c 0,3,4
 241 876 241 876 346.5 968 c 128,-1,5
 452 1060 452 1060 628 1085 c 1,6,-1
 660 1244 l 1,7,-1
 704 1244 l 1,8,-1
 673 1085 l 1,9,-1
 703 1086 l 2,10,11
 744 1086 744 1086 796 1080 c 1,12,-1
 828 1244 l 1,13,-1
 873 1244 l 1,14,-1
 839 1071 l 1,15,16
 891 1057 891 1057 948 1036 c 1,17,-1
 938 988 l 1,18,19
 898 1005 898 1005 830 1024 c 1,20,-1
 742 586 l 1,21,22
 794 603 794 603 869 643 c 1,23,-1
 859 586 l 1,24,25
 794 549 794 549 732 530 c 1,26,-1
 578 -239 l 1,27,-1
 534 -239 l 1,28,-1
 684 514 l 1,29,30
 597 496 597 496 556 496 c 1,31,-1
 409 -239 l 1,32,-1
 365 -239 l 1,0,-1
695 568 m 1,33,-1
 787 1031 l 1,34,35
 738 1040 738 1040 704 1040 c 0,36,37
 691 1040 691 1040 664 1039 c 1,38,-1
 567 553 l 1,39,40
 625 553 625 553 695 568 c 1,33,-1
EndSplineSet
EndChar

StartChar: registered
Encoding: 174 174 108
Width: 897
Flags: W
LayerCount: 2
Fore
SplineSet
580 445 m 0,0,1
 448 445 448 445 354.5 538.5 c 128,-1,2
 261 632 261 632 261 764 c 256,3,4
 261 896 261 896 354.5 990 c 128,-1,5
 448 1084 448 1084 580 1084 c 0,6,7
 714 1084 714 1084 807 990 c 128,-1,8
 900 896 900 896 900 764 c 256,9,10
 900 632 900 632 806.5 538.5 c 128,-1,11
 713 445 713 445 580 445 c 0,0,1
580 484 m 0,12,13
 695 484 695 484 777.5 567 c 128,-1,14
 860 650 860 650 860 764 c 256,15,16
 860 878 860 878 777.5 961 c 128,-1,17
 695 1044 695 1044 580 1044 c 0,18,19
 466 1044 466 1044 383.5 961 c 128,-1,20
 301 878 301 878 301 764 c 256,21,22
 301 650 301 650 383.5 567 c 128,-1,23
 466 484 466 484 580 484 c 0,12,13
529 737 m 1,24,-1
 501 596 l 1,25,-1
 394 596 l 1,26,-1
 403 639 l 1,27,-1
 456 639 l 1,28,-1
 511 915 l 1,29,-1
 458 915 l 1,30,-1
 466 959 l 1,31,-1
 598 959 l 2,32,33
 751 959 751 959 751 875 c 0,34,35
 751 800 751 800 650 750 c 1,36,-1
 685 639 l 1,37,-1
 747 639 l 1,38,-1
 738 596 l 1,39,-1
 641 596 l 1,40,-1
 591 737 l 1,41,-1
 529 737 l 1,24,-1
538 782 m 1,42,-1
 574 782 l 2,43,44
 697 782 697 782 697 866 c 0,45,46
 697 915 697 915 607 915 c 2,47,-1
 564 915 l 1,48,-1
 538 782 l 1,42,-1
EndSplineSet
EndChar

StartChar: copyright
Encoding: 169 169 109
Width: 1244
Flags: W
LayerCount: 2
Fore
SplineSet
725 -27 m 0,0,1
 495 -27 495 -27 330.5 137 c 128,-1,2
 166 301 166 301 166 533 c 256,3,4
 166 765 166 765 330.5 929 c 128,-1,5
 495 1093 495 1093 725 1093 c 0,6,7
 958 1093 958 1093 1122 929 c 128,-1,8
 1286 765 1286 765 1286 533 c 256,9,10
 1286 301 1286 301 1122 137 c 128,-1,11
 958 -27 958 -27 725 -27 c 0,0,1
725 18 m 0,12,13
 939 18 939 18 1090 169 c 128,-1,14
 1241 320 1241 320 1241 533 c 256,15,16
 1241 746 1241 746 1090 897 c 128,-1,17
 939 1048 939 1048 725 1048 c 0,18,19
 513 1048 513 1048 362 897 c 128,-1,20
 211 746 211 746 211 533 c 256,21,22
 211 320 211 320 362 169 c 128,-1,23
 513 18 513 18 725 18 c 0,12,13
890 246 m 1,24,25
 785 213 785 213 704 213 c 0,26,27
 580 213 580 213 508 279.5 c 128,-1,28
 436 346 436 346 436 462 c 0,29,30
 436 625 436 625 541 734.5 c 128,-1,31
 646 844 646 844 805 844 c 0,32,33
 896 844 896 844 1003 814 c 1,34,-1
 967 675 l 1,35,-1
 915 684 l 1,36,-1
 923 766 l 1,37,38
 854 798 854 798 792 798 c 0,39,40
 688 798 688 798 616 700 c 128,-1,41
 544 602 544 602 544 462 c 0,42,43
 544 271 544 271 722 271 c 0,44,45
 823 271 823 271 902 307 c 1,46,-1
 890 246 l 1,24,25
EndSplineSet
EndChar

StartChar: trademark
Encoding: 8482 8482 110
Width: 1333
Flags: W
LayerCount: 2
Fore
SplineSet
440 1021 m 1,0,-1
 307 1021 l 1,1,-1
 288 923 l 1,2,-1
 225 923 l 1,3,-1
 254 1066 l 1,4,-1
 751 1066 l 1,5,-1
 723 923 l 1,6,-1
 661 923 l 1,7,-1
 679 1021 l 1,8,-1
 546 1021 l 1,9,-1
 456 569 l 1,10,-1
 554 569 l 1,11,-1
 545 524 l 1,12,-1
 243 524 l 1,13,-1
 253 569 l 1,14,-1
 350 569 l 1,15,-1
 440 1021 l 1,0,-1
1011 569 m 1,16,-1
 942 956 l 1,17,-1
 857 524 l 1,18,-1
 688 524 l 1,19,-1
 697 569 l 1,20,-1
 794 569 l 1,21,-1
 884 1021 l 1,22,-1
 787 1021 l 1,23,-1
 796 1066 l 1,24,-1
 1036 1066 l 1,25,-1
 1092 747 l 1,26,-1
 1265 1066 l 1,27,-1
 1481 1066 l 1,28,-1
 1473 1021 l 1,29,-1
 1375 1021 l 1,30,-1
 1285 569 l 1,31,-1
 1383 569 l 1,32,-1
 1373 524 l 1,33,-1
 1178 524 l 1,34,-1
 1270 985 l 1,35,-1
 1041 569 l 1,36,-1
 1011 569 l 1,16,-1
EndSplineSet
EndChar

StartChar: acute
Encoding: 180 180 111
Width: 256
Flags: W
LayerCount: 2
Fore
SplineSet
118 999 m 1,0,1
 195 1083 195 1083 192 1046 c 1,2,3
 183 1014 183 1014 135.5 924 c 128,-1,4
 88 834 88 834 66 802 c 1,5,6
 55 796 55 796 62 848 c 1,7,8
 83 919 83 919 118 999 c 1,0,1
EndSplineSet
EndChar

StartChar: dieresis
Encoding: 168 168 112
Width: 862
Flags: W
LayerCount: 2
Fore
SplineSet
495 923 m 1,0,-1
 408 1033 l 1,1,-1
 520 1119 l 1,2,-1
 607 1003 l 1,3,-1
 495 923 l 1,0,-1
841 923 m 1,4,-1
 752 1035 l 1,5,-1
 866 1119 l 1,6,-1
 951 1004 l 1,7,-1
 841 923 l 1,4,-1
EndSplineSet
EndChar

StartChar: plusminus
Encoding: 177 177 113
Width: 932
Flags: W
LayerCount: 2
Fore
SplineSet
76 0 m 1,0,-1
 92 80 l 1,1,-1
 873 80 l 1,2,-1
 858 0 l 1,3,-1
 76 0 l 1,0,-1
469 213 m 1,4,-1
 525 493 l 1,5,-1
 174 493 l 1,6,-1
 189 573 l 1,7,-1
 541 573 l 1,8,-1
 596 852 l 1,9,-1
 676 852 l 1,10,-1
 621 573 l 1,11,-1
 971 573 l 1,12,-1
 956 493 l 1,13,-1
 605 493 l 1,14,-1
 549 213 l 1,15,-1
 469 213 l 1,4,-1
EndSplineSet
EndChar

StartChar: yen
Encoding: 165 165 114
Width: 965
Flags: W
LayerCount: 2
Fore
SplineSet
156 0 m 1,0,-1
 247 99 l 1,1,2
 269 97 269 97 279 97 c 0,3,4
 415 97 415 97 477 257 c 1,5,-1
 272 257 l 1,6,-1
 280 301 l 1,7,-1
 489 301 l 1,8,9
 495 346 495 346 499 409 c 1,10,-1
 301 409 l 1,11,-1
 310 453 l 1,12,-1
 499 453 l 1,13,14
 499 465 499 465 499 470 c 0,15,16
 499 567 499 567 463.5 631 c 128,-1,17
 428 695 428 695 375 695 c 256,18,19
 322 695 322 695 250 638 c 128,-1,20
 178 581 178 581 139 509 c 1,21,-1
 106 534 l 1,22,23
 172 650 172 650 268.5 724.5 c 128,-1,24
 365 799 365 799 452 799 c 0,25,26
 612 799 612 799 612 518 c 1,27,-1
 611 472 l 1,28,29
 736 799 736 799 971 799 c 0,30,31
 1045 799 1045 799 1100 765 c 1,32,-1
 1016 653 l 1,33,34
 967 684 967 684 915 684 c 0,35,36
 742 684 742 684 651 453 c 1,37,-1
 835 453 l 1,38,-1
 826 409 l 1,39,-1
 643 409 l 1,40,-1
 634 369 l 2,41,42
 627 335 627 335 609 301 c 1,43,-1
 805 301 l 1,44,-1
 796 257 l 1,45,-1
 585 257 l 1,46,47
 519 138 519 138 389 91 c 1,48,-1
 624 77 l 1,49,-1
 534 -18 l 1,50,-1
 156 0 l 1,0,-1
EndSplineSet
EndChar

StartChar: mu1
Encoding: 181 181 115
Width: 992
Flags: W
LayerCount: 2
Fore
SplineSet
100 -302 m 1,0,-1
 155 -76 l 1,1,-1
 270 500 l 2,2,3
 282 560 282 560 282 611 c 0,4,5
 282 693 282 693 206 782 c 1,6,-1
 368 790 l 1,7,8
 427 740 427 740 427 623 c 0,9,10
 427 576 427 576 409 481 c 2,11,-1
 355 213 l 2,12,13
 347 176 347 176 347 161 c 0,14,15
 347 106 347 106 391 106 c 0,16,17
 446 106 446 106 553.5 229 c 128,-1,18
 661 352 661 352 753 519 c 1,19,-1
 805 782 l 1,20,-1
 958 790 l 1,21,-1
 905 569 l 1,22,-1
 834 213 l 2,23,24
 818 132 818 132 818 106 c 0,25,26
 818 53 818 53 861 53 c 0,27,28
 931 53 931 53 1075 218 c 1,29,-1
 1062 151 l 1,30,31
 905 -18 905 -18 779 -18 c 0,32,33
 675 -18 675 -18 675 91 c 0,34,35
 675 128 675 128 692 213 c 2,36,-1
 727 391 l 1,37,-1
 717 391 l 1,38,39
 517 0 517 0 312 0 c 1,40,-1
 255 -284 l 1,41,-1
 100 -302 l 1,0,-1
EndSplineSet
EndChar

StartChar: logicalnot
Encoding: 172 172 116
Width: 932
Flags: W
LayerCount: 2
Fore
SplineSet
177 510 m 1,0,-1
 193 590 l 1,1,-1
 975 590 l 1,2,-1
 906 248 l 1,3,-1
 814 248 l 1,4,-1
 866 510 l 1,5,-1
 177 510 l 1,0,-1
EndSplineSet
EndChar

StartChar: florin
Encoding: 402 402 117
Width: 679
Flags: W
LayerCount: 2
Fore
SplineSet
158 -231 m 1,0,-1
 210 -18 l 1,1,-1
 286 364 l 1,2,-1
 108 364 l 1,3,-1
 117 409 l 1,4,-1
 294 409 l 1,5,-1
 298 427 l 2,6,7
 330 586 330 586 463 692.5 c 128,-1,8
 596 799 596 799 761 799 c 0,9,10
 818 799 818 799 860 784 c 1,11,-1
 764 678 l 1,12,13
 712 729 712 729 643 729 c 0,14,15
 500 729 500 729 457 512 c 2,16,-1
 436 409 l 1,17,-1
 623 409 l 1,18,-1
 614 364 l 1,19,-1
 427 364 l 1,20,-1
 313 -213 l 1,21,-1
 158 -231 l 1,0,-1
EndSplineSet
EndChar

StartChar: ellipsis
Encoding: 8230 8230 118
Width: 1474
Flags: W
LayerCount: 2
Fore
SplineSet
178 0 m 1,0,-1
 206 142 l 1,1,-1
 348 142 l 1,2,-1
 319 0 l 1,3,-1
 178 0 l 1,0,-1
667 0 m 1,4,-1
 695 142 l 1,5,-1
 837 142 l 1,6,-1
 808 0 l 1,7,-1
 667 0 l 1,4,-1
1155 0 m 1,8,-1
 1183 142 l 1,9,-1
 1326 142 l 1,10,-1
 1297 0 l 1,11,-1
 1155 0 l 1,8,-1
EndSplineSet
EndChar

StartChar: OE
Encoding: 338 338 119
Width: 1477
Flags: W
LayerCount: 2
Fore
SplineSet
816 0 m 1,0,-1
 831 70 l 1,1,2
 711 -27 711 -27 549 -27 c 0,3,4
 371 -27 371 -27 269 81 c 128,-1,5
 167 189 167 189 167 378 c 0,6,7
 167 661 167 661 358 877 c 128,-1,8
 549 1093 549 1093 799 1093 c 0,9,10
 931 1093 931 1093 1017 1007 c 1,11,-1
 1029 1066 l 1,12,-1
 1593 1066 l 1,13,-1
 1529 862 l 1,14,-1
 1484 862 l 1,15,16
 1490 891 1490 891 1490 913 c 0,17,18
 1490 969 1490 969 1424.5 990.5 c 128,-1,19
 1359 1012 1359 1012 1187 1012 c 2,20,-1
 1165 1012 l 1,21,-1
 1082 586 l 1,22,-1
 1402 586 l 1,23,-1
 1329 512 l 1,24,25
 1165 533 1165 533 1107 533 c 2,26,-1
 1071 533 l 1,27,-1
 1012 218 l 2,28,29
 1002 167 1002 167 1002 156 c 0,30,31
 1002 80 1002 80 1228 80 c 0,32,33
 1348 80 1348 80 1453 160 c 1,34,-1
 1442 103 l 1,35,36
 1318 -23 1318 -23 1203 -23 c 0,37,38
 1183 -23 1183 -23 1161 -21 c 2,39,-1
 816 0 l 1,0,-1
888 361 m 2,40,-1
 961 723 l 2,41,42
 974 786 974 786 974 841 c 0,43,44
 974 933 974 933 916.5 990.5 c 128,-1,45
 859 1048 859 1048 769 1048 c 0,46,47
 604 1048 604 1048 466.5 844 c 128,-1,48
 329 640 329 640 329 395 c 0,49,50
 329 218 329 218 396.5 117.5 c 128,-1,51
 464 17 464 17 585 17 c 0,52,53
 818 17 818 17 888 361 c 2,40,-1
EndSplineSet
EndChar

StartChar: oe
Encoding: 339 339 120
Width: 1350
Flags: W
LayerCount: 2
Fore
SplineSet
706 145 m 1,0,1
 535 -18 535 -18 370 -18 c 0,2,3
 273 -18 273 -18 209 55 c 128,-1,4
 145 128 145 128 145 237 c 0,5,6
 145 448 145 448 302.5 623.5 c 128,-1,7
 460 799 460 799 650 799 c 0,8,9
 794 799 794 799 859 630 c 1,10,11
 1025 799 1025 799 1183 799 c 0,12,13
 1246 799 1246 799 1286.5 758 c 128,-1,14
 1327 717 1327 717 1327 651 c 0,15,16
 1327 508 1327 508 1192.5 414 c 128,-1,17
 1058 320 1058 320 841 311 c 1,18,-1
 840 278 l 1,19,20
 840 66 840 66 998 66 c 0,21,22
 1113 66 1113 66 1327 200 c 1,23,-1
 1316 146 l 1,24,25
 1083 -18 1083 -18 917 -18 c 0,26,27
 758 -18 758 -18 706 145 c 1,0,1
431 35 m 0,28,29
 544 35 544 35 636 178.5 c 128,-1,30
 728 322 728 322 728 499 c 0,31,32
 728 607 728 607 689 672 c 128,-1,33
 650 737 650 737 584 737 c 0,34,35
 472 737 472 737 382 594 c 128,-1,36
 292 451 292 451 292 272 c 0,37,38
 292 35 292 35 431 35 c 0,28,29
844 355 m 1,39,40
 1004 368 1004 368 1097.5 438.5 c 128,-1,41
 1191 509 1191 509 1191 620 c 0,42,43
 1191 733 1191 733 1110 733 c 0,44,45
 1024 733 1024 733 941.5 616 c 128,-1,46
 859 499 859 499 844 355 c 1,39,40
EndSplineSet
EndChar

StartChar: endash
Encoding: 8211 8211 121
Width: 434
Flags: W
LayerCount: 2
Fore
SplineSet
434 154 m 1,0,-1
 0 154 l 1,1,-1
 0 234 l 1,2,-1
 434 234 l 1,3,-1
 434 154 l 1,0,-1
EndSplineSet
EndChar

StartChar: emdash
Encoding: 8212 8212 122
Width: 1862
Flags: W
LayerCount: 2
Fore
SplineSet
1866 572 m 1,0,-1
 -4 572 l 1,1,-1
 -4 732 l 1,2,-1
 1866 732 l 1,3,-1
 1866 572 l 1,0,-1
EndSplineSet
EndChar

StartChar: quotedblleft
Encoding: 8220 8220 123
Width: 662
Flags: W
LayerCount: 2
Fore
SplineSet
351 861 m 1,0,-1
 190 861 l 1,1,-1
 163 989 l 2,2,3
 122 1185 122 1185 244 1254 c 1,4,-1
 270 1214 l 1,5,6
 188 1162 188 1162 216 1029 c 1,7,-1
 316 1029 l 1,8,-1
 351 861 l 1,0,-1
123 861 m 1,9,-1
 -37 861 l 1,10,-1
 -64 989 l 2,11,12
 -105 1185 -105 1185 16 1254 c 1,13,-1
 42 1214 l 1,14,15
 -39 1162 -39 1162 -11 1029 c 1,16,-1
 88 1029 l 1,17,-1
 123 861 l 1,9,-1
EndSplineSet
EndChar

StartChar: quotedblright
Encoding: 8221 8221 124
Width: 662
Flags: W
LayerCount: 2
Fore
SplineSet
-120 1254 m 1,0,-1
 40 1254 l 1,1,-1
 67 1126 l 2,2,3
 109 930 109 930 -13 861 c 1,4,-1
 -39 901 l 1,5,6
 43 953 43 953 15 1086 c 1,7,-1
 -84 1086 l 1,8,-1
 -120 1254 l 1,0,-1
107 1254 m 1,9,-1
 268 1254 l 1,10,-1
 295 1126 l 2,11,12
 337 930 337 930 214 861 c 1,13,-1
 188 901 l 1,14,15
 271 953 271 953 243 1086 c 1,16,-1
 143 1086 l 1,17,-1
 107 1254 l 1,9,-1
EndSplineSet
EndChar

StartChar: divide
Encoding: 247 247 125
Width: 1093
Flags: W
LayerCount: 2
Fore
SplineSet
624 674 m 1,0,-1
 466 674 l 1,1,-1
 466 855 l 1,2,-1
 624 855 l 1,3,-1
 624 674 l 1,0,-1
933 383 m 1,4,-1
 157 383 l 1,5,-1
 157 489 l 1,6,-1
 933 489 l 1,7,-1
 933 383 l 1,4,-1
624 17 m 1,8,-1
 466 17 l 1,9,-1
 466 198 l 1,10,-1
 624 198 l 1,11,-1
 624 17 l 1,8,-1
EndSplineSet
EndChar

StartChar: lozenge
Encoding: 9674 9674 126
Width: 1118
Flags: W
LayerCount: 2
Fore
SplineSet
854 699 m 1,0,-1
 518 197 l 1,1,-1
 -31 699 l 1,2,-1
 304 1202 l 1,3,-1
 854 699 l 1,0,-1
699 699 m 1,4,-1
 339 1036 l 1,5,-1
 122 699 l 1,6,-1
 482 364 l 1,7,-1
 699 699 l 1,4,-1
EndSplineSet
EndChar

StartChar: Euro
Encoding: 8364 8364 128
Width: 812
Flags: W
LayerCount: 2
Fore
SplineSet
210 464 m 1,0,1
 252 596 252 596 371.5 697.5 c 128,-1,2
 491 799 491 799 674 799 c 0,3,4
 773 799 773 799 885 769 c 1,5,-1
 845 624 l 1,6,-1
 795 624 l 1,7,8
 801 653 801 653 801 665 c 0,9,10
 801 701 801 701 757 726 c 128,-1,11
 713 751 713 751 649 751 c 0,12,13
 445 751 445 751 349 464 c 1,14,-1
 686 464 l 1,15,-1
 677 420 l 1,16,-1
 337 420 l 2,17,18
 335 418 335 418 332 404 c 2,19,-1
 325 365 l 1,20,-1
 325 360 l 1,21,-1
 665 360 l 1,22,-1
 656 315 l 1,23,-1
 319 315 l 1,24,-1
 319 289 l 2,25,26
 319 178 319 178 370 115.5 c 128,-1,27
 421 53 421 53 512 53 c 0,28,29
 636 53 636 53 765 135 c 1,30,-1
 755 72 l 1,31,32
 604 -18 604 -18 459 -18 c 0,33,34
 324 -18 324 -18 249.5 59 c 128,-1,35
 175 136 175 136 175 274 c 0,36,37
 175 300 175 300 175 315 c 1,38,-1
 111 315 l 1,39,-1
 120 360 l 1,40,-1
 182 360 l 1,41,-1
 182 364 l 1,42,43
 189 401 189 401 194 420 c 1,44,-1
 118 420 l 1,45,-1
 127 464 l 1,46,-1
 210 464 l 1,0,1
EndSplineSet
EndChar

StartChar: guilsinglleft
Encoding: 8249 8249 129
Width: 560
Flags: W
LayerCount: 2
Fore
SplineSet
375 71 m 1,0,1
 304 237 304 237 167 391 c 1,2,3
 358 507 358 507 437 653 c 1,4,-1
 587 711 l 1,5,6
 536 589 536 589 315 441 c 1,7,8
 423 310 423 310 499 138 c 1,9,-1
 375 71 l 1,0,1
EndSplineSet
EndChar

StartChar: guilsinglright
Encoding: 8250 8250 130
Width: 560
Flags: W
LayerCount: 2
Fore
SplineSet
339 711 m 1,0,1
 410 545 410 545 546 391 c 1,2,3
 356 275 356 275 276 128 c 1,4,-1
 128 71 l 1,5,6
 178 193 178 193 400 341 c 1,7,8
 293 470 293 470 215 643 c 1,9,-1
 339 711 l 1,0,1
EndSplineSet
EndChar

StartChar: daggerdbl
Encoding: 8225 8225 133
Width: 932
Flags: W
LayerCount: 2
Fore
SplineSet
349 -231 m 1,0,-1
 481 185 l 1,1,-1
 161 154 l 1,2,-1
 211 261 l 1,3,-1
 490 229 l 1,4,-1
 567 616 l 1,5,-1
 247 586 l 1,6,-1
 297 693 l 1,7,-1
 575 661 l 1,8,-1
 608 1066 l 1,9,-1
 758 1093 l 1,10,-1
 620 661 l 1,11,-1
 940 693 l 1,12,-1
 889 586 l 1,13,-1
 611 616 l 1,14,-1
 535 229 l 1,15,-1
 855 261 l 1,16,-1
 804 154 l 1,17,-1
 525 185 l 1,18,-1
 499 -213 l 1,19,-1
 349 -231 l 1,0,-1
EndSplineSet
EndChar

StartChar: middot.001
Encoding: 8729 8729 134
Width: 620
Flags: W
LayerCount: 2
Fore
SplineSet
319 516 m 1,0,-1
 80 516 l 1,1,-1
 22 789 l 1,2,-1
 261 789 l 1,3,-1
 319 516 l 1,0,-1
EndSplineSet
EndChar

StartChar: quotesinglbase
Encoding: 8218 8218 135
Width: 418
Flags: W
LayerCount: 2
Fore
SplineSet
103 128 m 1,0,-1
 247 231 l 1,1,-1
 353 90 l 1,2,3
 345 -56 345 -56 262.5 -134.5 c 128,-1,4
 180 -213 180 -213 36 -213 c 1,5,-1
 76 -168 l 1,6,7
 189 -158 189 -158 211 -18 c 1,8,-1
 103 128 l 1,0,-1
EndSplineSet
EndChar

StartChar: quotedblbase
Encoding: 8222 8222 136
Width: 684
Flags: W
LayerCount: 2
Fore
SplineSet
91 92 m 1,0,-1
 204 178 l 1,1,-1
 292 64 l 1,2,3
 270 -213 270 -213 31 -213 c 1,4,-1
 60 -168 l 1,5,6
 166 -148 166 -148 179 -16 c 1,7,-1
 91 92 l 1,0,-1
401 92 m 1,8,-1
 516 178 l 1,9,-1
 602 64 l 1,10,11
 581 -213 581 -213 341 -213 c 1,12,-1
 372 -168 l 1,13,14
 476 -148 476 -148 490 -16 c 1,15,-1
 401 92 l 1,8,-1
EndSplineSet
EndChar

StartChar: perthousand
Encoding: 8240 8240 137
Width: 1571
Flags: W
LayerCount: 2
Fore
SplineSet
385 533 m 0,0,1
 304 533 304 533 254.5 584.5 c 128,-1,2
 205 636 205 636 205 722 c 0,3,4
 205 865 205 865 286.5 965.5 c 128,-1,5
 368 1066 368 1066 483 1066 c 0,6,7
 567 1066 567 1066 617.5 1014.5 c 128,-1,8
 668 963 668 963 668 877 c 0,9,10
 668 733 668 733 585.5 633 c 128,-1,11
 503 533 503 533 385 533 c 0,0,1
311 715 m 0,12,13
 311 578 311 578 398 578 c 0,14,15
 463 578 463 578 517 671.5 c 128,-1,16
 571 765 571 765 571 881 c 0,17,18
 571 1022 571 1022 483 1022 c 0,19,20
 416 1022 416 1022 363.5 928 c 128,-1,21
 311 834 311 834 311 715 c 0,12,13
850 0 m 0,22,23
 769 0 769 0 719.5 51.5 c 128,-1,24
 670 103 670 103 670 189 c 0,25,26
 670 331 670 331 751 432 c 128,-1,27
 832 533 832 533 947 533 c 0,28,29
 1031 533 1031 533 1081.5 481.5 c 128,-1,30
 1132 430 1132 430 1132 344 c 0,31,32
 1132 200 1132 200 1049.5 100 c 128,-1,33
 967 0 967 0 850 0 c 0,22,23
776 182 m 0,34,35
 776 44 776 44 862 44 c 0,36,37
 929 44 929 44 982 138 c 128,-1,38
 1035 232 1035 232 1035 348 c 0,39,40
 1035 490 1035 490 948 490 c 0,41,42
 880 490 880 490 828 395.5 c 128,-1,43
 776 301 776 301 776 182 c 0,34,35
131 -27 m 1,44,-1
 1111 1093 l 1,45,-1
 1206 1093 l 1,46,-1
 225 -27 l 1,47,-1
 131 -27 l 1,44,-1
1376 0 m 0,48,49
 1294 0 1294 0 1244.5 51.5 c 128,-1,50
 1195 103 1195 103 1195 189 c 0,51,52
 1195 331 1195 331 1276.5 432 c 128,-1,53
 1358 533 1358 533 1473 533 c 0,54,55
 1557 533 1557 533 1607.5 481.5 c 128,-1,56
 1658 430 1658 430 1658 344 c 0,57,58
 1658 200 1658 200 1575.5 100 c 128,-1,59
 1493 0 1493 0 1376 0 c 0,48,49
1301 183 m 0,60,61
 1301 44 1301 44 1389 44 c 0,62,63
 1453 44 1453 44 1507 138 c 128,-1,64
 1561 232 1561 232 1561 347 c 0,65,66
 1561 490 1561 490 1473 490 c 0,67,68
 1406 490 1406 490 1353.5 395.5 c 128,-1,69
 1301 301 1301 301 1301 183 c 0,60,61
EndSplineSet
EndChar

StartChar: circumflex
Encoding: 710 710 139
Width: 862
Flags: W
LayerCount: 2
Fore
SplineSet
870 976 m 1,0,-1
 783 923 l 1,1,2
 729 984 729 984 693 1082 c 1,3,4
 652 1032 652 1032 574 953 c 0,5,6
 571 949 571 949 553 931 c 1,7,-1
 452 923 l 1,8,9
 607 1037 607 1037 674 1120 c 1,10,-1
 772 1182 l 1,11,12
 805 1069 805 1069 870 976 c 1,0,-1
EndSplineSet
EndChar

StartChar: cedilla
Encoding: 184 184 140
Width: 862
Flags: W
LayerCount: 2
Fore
SplineSet
456 0 m 1,0,-1
 414 -64 l 1,1,2
 485 -86 485 -86 485 -147 c 0,3,4
 485 -198 485 -198 428.5 -241 c 128,-1,5
 372 -284 372 -284 303 -284 c 0,6,7
 272 -284 272 -284 237 -277 c 1,8,-1
 292 -201 l 1,9,10
 326 -223 326 -223 352 -223 c 0,11,12
 416 -223 416 -223 416 -171 c 0,13,14
 416 -112 416 -112 318 -112 c 1,15,-1
 394 0 l 1,16,-1
 456 0 l 1,0,-1
EndSplineSet
EndChar

StartChar: brokenbar
Encoding: 166 166 141
Width: 355
Flags: W
LayerCount: 2
Fore
SplineSet
86 -213 m 1,0,-1
 203 373 l 1,1,-1
 301 373 l 1,2,-1
 184 -213 l 1,3,-1
 86 -213 l 1,0,-1
238 551 m 1,4,-1
 355 1137 l 1,5,-1
 453 1137 l 1,6,-1
 337 551 l 1,7,-1
 238 551 l 1,4,-1
EndSplineSet
EndChar

StartChar: minus
Encoding: 8722 8722 142
Width: 1490
Flags: W
LayerCount: 2
Fore
SplineSet
1186 572 m 1,0,-1
 60 572 l 1,1,-1
 26 732 l 1,2,-1
 1152 732 l 1,3,-1
 1186 572 l 1,0,-1
EndSplineSet
EndChar

StartChar: multiply
Encoding: 215 215 143
Width: 820
Flags: W
LayerCount: 2
Fore
SplineSet
245 397 m 1,0,-1
 22 581 l 1,1,-1
 96 675 l 1,2,-1
 319 491 l 1,3,-1
 466 678 l 1,4,-1
 580 584 l 1,5,-1
 433 397 l 1,6,-1
 667 204 l 1,7,-1
 593 110 l 1,8,-1
 359 303 l 1,9,-1
 213 117 l 1,10,-1
 99 211 l 1,11,-1
 245 397 l 1,0,-1
EndSplineSet
EndChar

StartChar: onesuperior
Encoding: 185 185 144
Width: 596
Flags: W
LayerCount: 2
Fore
SplineSet
573 1093 m 1,0,-1
 487 657 l 2,1,2
 476 607 476 607 476 589 c 0,3,4
 476 570 476 570 532 563 c 1,5,-1
 591 560 l 1,6,-1
 582 516 l 1,7,-1
 210 516 l 1,8,-1
 218 560 l 1,9,-1
 279 563 l 2,10,11
 328 567 328 567 337.5 578 c 128,-1,12
 347 589 347 589 362 657 c 2,13,-1
 418 938 l 2,14,15
 423 960 423 960 423 978 c 0,16,17
 423 1004 423 1004 355 1013 c 2,18,-1
 310 1021 l 1,19,-1
 319 1066 l 1,20,-1
 573 1093 l 1,0,-1
EndSplineSet
EndChar

StartChar: twosuperior
Encoding: 178 178 145
Width: 596
Flags: W
LayerCount: 2
Fore
SplineSet
187 516 m 1,0,-1
 207 617 l 1,1,2
 362 712 362 712 454.5 803.5 c 128,-1,3
 547 895 547 895 547 952 c 0,4,5
 547 1046 547 1046 463 1046 c 0,6,7
 352 1046 352 1046 331 928 c 1,8,-1
 278 928 l 1,9,-1
 304 1059 l 1,10,11
 400 1093 400 1093 484 1093 c 0,12,13
 674 1093 674 1093 674 959 c 0,14,15
 674 887 674 887 624.5 842 c 128,-1,16
 575 797 575 797 297 617 c 1,17,-1
 607 617 l 1,18,-1
 587 516 l 1,19,-1
 187 516 l 1,0,-1
EndSplineSet
EndChar

StartChar: threesuperior
Encoding: 179 179 146
Width: 596
Flags: W
LayerCount: 2
Fore
SplineSet
185 545 m 1,0,-1
 257 620 l 1,1,2
 337 556 337 556 418 556 c 0,3,4
 460 556 460 556 490.5 587 c 128,-1,5
 521 618 521 618 521 661 c 0,6,7
 521 776 521 776 345 776 c 0,8,9
 323 776 323 776 301 773 c 1,10,-1
 331 859 l 1,11,12
 350 860 350 860 365 860 c 0,13,14
 412 860 412 860 466 849 c 1,15,16
 547 886 547 886 547 961 c 0,17,18
 547 1046 547 1046 454 1046 c 0,19,20
 365 1046 365 1046 342 941 c 1,21,-1
 289 941 l 1,22,-1
 311 1057 l 1,23,24
 398 1093 398 1093 484 1093 c 0,25,26
 662 1093 662 1093 662 984 c 0,27,28
 662 893 662 893 520 829 c 1,29,30
 625 790 625 790 625 693 c 0,31,32
 625 616 625 616 554.5 563 c 128,-1,33
 484 510 484 510 378 510 c 0,34,35
 289 510 289 510 185 545 c 1,0,-1
EndSplineSet
EndChar

StartChar: onehalf
Encoding: 189 189 147
Width: 1262
Flags: W
LayerCount: 2
Fore
SplineSet
528 1093 m 1,0,-1
 442 657 l 2,1,2
 432 606 432 606 432 589 c 0,3,4
 432 570 432 570 488 563 c 1,5,-1
 547 560 l 1,6,-1
 538 516 l 1,7,-1
 165 516 l 1,8,-1
 174 560 l 1,9,-1
 235 563 l 2,10,11
 283 567 283 567 293 578 c 128,-1,12
 303 589 303 589 318 657 c 2,13,-1
 373 938 l 2,14,15
 378 960 378 960 378 978 c 0,16,17
 378 1004 378 1004 310 1013 c 2,18,-1
 265 1021 l 1,19,-1
 274 1066 l 1,20,-1
 528 1093 l 1,0,-1
160 -27 m 1,21,-1
 1180 1093 l 1,22,-1
 1280 1093 l 1,23,-1
 257 -27 l 1,24,-1
 160 -27 l 1,21,-1
778 0 m 1,25,-1
 797 103 l 1,26,27
 952 197 952 197 1045 288 c 128,-1,28
 1138 379 1138 379 1138 436 c 0,29,30
 1138 530 1138 530 1053 530 c 0,31,32
 942 530 942 530 922 413 c 1,33,-1
 868 413 l 1,34,-1
 895 544 l 1,35,36
 989 578 989 578 1075 578 c 0,37,38
 1264 578 1264 578 1264 445 c 0,39,40
 1264 373 1264 373 1214.5 328 c 128,-1,41
 1165 283 1165 283 887 103 c 1,42,-1
 1197 103 l 1,43,-1
 1177 0 l 1,44,-1
 778 0 l 1,25,-1
EndSplineSet
EndChar

StartChar: onequarter
Encoding: 188 188 148
Width: 1262
Flags: W
LayerCount: 2
Fore
SplineSet
546 1093 m 1,0,-1
 460 657 l 2,1,2
 450 606 450 606 450 589 c 0,3,4
 450 570 450 570 506 563 c 1,5,-1
 565 560 l 1,6,-1
 556 516 l 1,7,-1
 183 516 l 1,8,-1
 192 560 l 1,9,-1
 253 563 l 2,10,11
 301 567 301 567 311 578 c 128,-1,12
 321 589 321 589 336 657 c 2,13,-1
 391 938 l 2,14,15
 396 960 396 960 396 978 c 0,16,17
 396 1004 396 1004 328 1013 c 2,18,-1
 283 1021 l 1,19,-1
 292 1066 l 1,20,-1
 546 1093 l 1,0,-1
178 -27 m 1,21,-1
 1198 1093 l 1,22,-1
 1298 1093 l 1,23,-1
 275 -27 l 1,24,-1
 178 -27 l 1,21,-1
981 164 m 1,25,-1
 732 182 l 1,26,-1
 747 261 l 1,27,-1
 1102 578 l 1,28,-1
 1170 578 l 1,29,-1
 1102 236 l 1,30,-1
 1212 229 l 1,31,-1
 1168 149 l 1,32,-1
 1086 157 l 1,33,34
 1076 102 1076 102 1076 74 c 0,35,36
 1076 52 1076 52 1129 49 c 2,37,-1
 1189 45 l 1,38,-1
 1180 0 l 1,39,-1
 820 0 l 1,40,-1
 829 45 l 1,41,-1
 886 49 l 2,42,43
 937 52 937 52 952 64 c 128,-1,44
 967 76 967 76 973 117 c 0,45,46
 976 134 976 134 981 164 c 1,25,-1
997 244 m 1,47,-1
 1038 446 l 1,48,-1
 823 255 l 1,49,-1
 997 244 l 1,47,-1
EndSplineSet
EndChar

StartChar: threequarters
Encoding: 190 190 149
Width: 1262
Flags: W
LayerCount: 2
Fore
SplineSet
174 545 m 1,0,-1
 247 620 l 1,1,2
 326 556 326 556 407 556 c 0,3,4
 448 556 448 556 478.5 587 c 128,-1,5
 509 618 509 618 509 661 c 0,6,7
 509 776 509 776 333 776 c 0,8,9
 311 776 311 776 289 773 c 1,10,-1
 319 859 l 1,11,12
 338 860 338 860 355 860 c 0,13,14
 401 860 401 860 455 849 c 1,15,16
 535 886 535 886 535 961 c 0,17,18
 535 1046 535 1046 442 1046 c 0,19,20
 354 1046 354 1046 330 941 c 1,21,-1
 277 941 l 1,22,-1
 301 1057 l 1,23,24
 387 1093 387 1093 472 1093 c 0,25,26
 651 1093 651 1093 651 984 c 0,27,28
 651 893 651 893 508 829 c 1,29,30
 614 790 614 790 614 693 c 0,31,32
 614 616 614 616 543 563 c 128,-1,33
 472 510 472 510 366 510 c 0,34,35
 277 510 277 510 174 545 c 1,0,-1
178 -27 m 1,36,-1
 1198 1093 l 1,37,-1
 1298 1093 l 1,38,-1
 275 -27 l 1,39,-1
 178 -27 l 1,36,-1
981 164 m 1,40,-1
 732 182 l 1,41,-1
 747 261 l 1,42,-1
 1102 578 l 1,43,-1
 1170 578 l 1,44,-1
 1102 236 l 1,45,-1
 1212 229 l 1,46,-1
 1168 149 l 1,47,-1
 1086 157 l 1,48,49
 1076 102 1076 102 1076 74 c 0,50,51
 1076 52 1076 52 1129 49 c 2,52,-1
 1189 45 l 1,53,-1
 1180 0 l 1,54,-1
 820 0 l 1,55,-1
 829 45 l 1,56,-1
 886 49 l 2,57,58
 938 52 938 52 952.5 64 c 128,-1,59
 967 76 967 76 973 117 c 0,60,61
 976 134 976 134 981 164 c 1,40,-1
997 244 m 1,62,-1
 1038 446 l 1,63,-1
 823 255 l 1,64,-1
 997 244 l 1,62,-1
EndSplineSet
EndChar

StartChar: macron
Encoding: 175 175 150
Width: 1118
Flags: W
LayerCount: 2
Fore
SplineSet
1134 1659 m 1,0,-1
 -16 1659 l 1,1,-1
 -16 1789 l 1,2,-1
 1134 1789 l 1,3,-1
 1134 1659 l 1,0,-1
EndSplineSet
EndChar

StartChar: periodcentered
Encoding: 183 183 151
Width: 724
Flags: W
LayerCount: 2
Fore
SplineSet
482 832 m 1,0,-1
 243 832 l 1,1,-1
 243 1117 l 1,2,-1
 482 1117 l 1,3,-1
 482 832 l 1,0,-1
EndSplineSet
EndChar

StartChar: H22073
Encoding: 9633 9633 152
Width: 1237
Flags: W
LayerCount: 2
Fore
SplineSet
-54 944 m 1,0,-1
 889 944 l 1,1,-1
 1090 0 l 1,2,-1
 146 0 l 1,3,-1
 -54 944 l 1,0,-1
37 868 m 1,4,-1
 205 76 l 1,5,-1
 997 76 l 1,6,-1
 829 868 l 1,7,-1
 37 868 l 1,4,-1
EndSplineSet
EndChar

StartChar: H18543
Encoding: 9642 9642 153
Width: 1089
Flags: W
LayerCount: 2
Fore
SplineSet
674 994 m 1,0,-1
 822 300 l 1,1,-1
 128 300 l 1,2,-1
 -19 994 l 1,3,-1
 674 994 l 1,0,-1
EndSplineSet
EndChar

StartChar: H18551
Encoding: 9643 9643 154
Width: 1089
Flags: W
LayerCount: 2
Fore
SplineSet
676 996 m 1,0,-1
 824 301 l 1,1,-1
 129 301 l 1,2,-1
 -18 996 l 1,3,-1
 676 996 l 1,0,-1
586 882 m 1,4,-1
 119 882 l 1,5,-1
 218 415 l 1,6,-1
 685 415 l 1,7,-1
 586 882 l 1,4,-1
EndSplineSet
EndChar

StartChar: H18533
Encoding: 9679 9679 155
Width: 1339
Flags: W
LayerCount: 2
Fore
SplineSet
51 719 m 0,0,1
 8 920 8 920 119 1061 c 128,-1,2
 230 1202 230 1202 429 1202 c 0,3,4
 629 1202 629 1202 800 1061 c 128,-1,5
 971 920 971 920 1014 719 c 0,6,7
 1056 521 1056 521 945 380 c 128,-1,8
 834 239 834 239 634 239 c 0,9,10
 435 239 435 239 264 380 c 128,-1,11
 93 521 93 521 51 719 c 0,0,1
EndSplineSet
EndChar

StartChar: openbullet
Encoding: 9702 9702 156
Width: 1089
Flags: W
LayerCount: 2
Fore
SplineSet
295 1171 m 0,0,1
 451 1171 451 1171 585 1060.5 c 128,-1,2
 719 950 719 950 752 794 c 256,3,4
 785 638 785 638 698 528 c 128,-1,5
 611 418 611 418 455 418 c 256,6,7
 299 418 299 418 165.5 528 c 128,-1,8
 32 638 32 638 0 794 c 0,9,10
 -33 950 -33 950 52.5 1060.5 c 128,-1,11
 138 1171 138 1171 295 1171 c 0,0,1
319 1057 m 0,12,13
 210 1057 210 1057 150 979.5 c 128,-1,14
 90 902 90 902 113 794 c 0,15,16
 136 685 136 685 229 608.5 c 128,-1,17
 322 532 322 532 430 532 c 256,18,19
 538 532 538 532 599.5 608.5 c 128,-1,20
 661 685 661 685 638 794 c 0,21,22
 615 902 615 902 522 979.5 c 128,-1,23
 429 1057 429 1057 319 1057 c 0,12,13
EndSplineSet
EndChar

StartChar: currency
Encoding: 164 164 157
Width: 932
Flags: W
LayerCount: 2
Fore
SplineSet
769 322 m 1,0,-1
 879 184 l 1,1,-1
 841 153 l 1,2,-1
 732 292 l 1,3,4
 616 214 616 214 504 214 c 0,5,6
 394 214 394 214 310 292 c 1,7,-1
 145 153 l 1,8,-1
 120 184 l 1,9,-1
 286 322 l 1,10,11
 243 397 243 397 243 470 c 0,12,13
 243 613 243 613 369 743 c 1,14,-1
 259 882 l 1,15,-1
 297 913 l 1,16,-1
 407 775 l 1,17,18
 521 852 521 852 634 852 c 0,19,20
 744 852 744 852 828 775 c 1,21,-1
 994 913 l 1,22,-1
 1019 882 l 1,23,-1
 852 743 l 1,24,25
 895 668 895 668 895 596 c 0,26,27
 895 455 895 455 769 322 c 1,0,-1
818 579 m 0,28,29
 818 666 818 666 762 721.5 c 128,-1,30
 706 777 706 777 620 777 c 0,31,32
 502 777 502 777 411 688 c 128,-1,33
 320 599 320 599 320 485 c 0,34,35
 320 400 320 400 376.5 344.5 c 128,-1,36
 433 289 433 289 519 289 c 0,37,38
 635 289 635 289 726.5 377.5 c 128,-1,39
 818 466 818 466 818 579 c 0,28,29
EndSplineSet
EndChar

StartChar: uniFFFC
Encoding: 65532 65532 158
Width: 2048
Flags: W
LayerCount: 2
Fore
SplineSet
2048 1150 m 1,0,-1
 1948 1150 l 1,1,-1
 1948 1373 l 1,2,-1
 1725 1373 l 1,3,-1
 1725 1473 l 1,4,-1
 2048 1473 l 1,5,-1
 2048 1150 l 1,0,-1
1473 1373 m 1,6,-1
 1150 1373 l 1,7,-1
 1150 1473 l 1,8,-1
 1473 1473 l 1,9,-1
 1473 1373 l 1,6,-1
2048 575 m 1,10,-1
 1948 575 l 1,11,-1
 1948 898 l 1,12,-1
 2048 898 l 1,13,-1
 2048 575 l 1,10,-1
1782 611 m 2,14,15
 1782 370 1782 370 1571 370 c 0,16,17
 1485 370 1485 370 1433 415 c 1,18,-1
 1506 494 l 1,19,20
 1531 468 1531 468 1571 468 c 0,21,22
 1666 468 1666 468 1666 606 c 2,23,-1
 1666 1090 l 1,24,-1
 1782 1090 l 1,25,-1
 1782 611 l 2,14,15
898 1373 m 1,26,-1
 575 1373 l 1,27,-1
 575 1473 l 1,28,-1
 898 1473 l 1,29,-1
 898 1373 l 1,26,-1
2048 0 m 1,30,-1
 1725 0 l 1,31,-1
 1725 100 l 1,32,-1
 1948 100 l 1,33,-1
 1948 323 l 1,34,-1
 2048 323 l 1,35,-1
 2048 0 l 1,30,-1
1423 591 m 0,36,37
 1423 382 1423 382 1149 382 c 2,38,-1
 909 382 l 1,39,-1
 909 1090 l 1,40,-1
 1144 1090 l 2,41,42
 1393 1090 1393 1090 1393 904 c 0,43,44
 1393 813 1393 813 1304 759 c 1,45,46
 1423 713 1423 713 1423 591 c 0,36,37
323 1373 m 1,47,-1
 100 1373 l 1,48,-1
 100 1150 l 1,49,-1
 0 1150 l 1,50,-1
 0 1473 l 1,51,-1
 323 1473 l 1,52,-1
 323 1373 l 1,47,-1
1473 0 m 1,53,-1
 1150 0 l 1,54,-1
 1150 100 l 1,55,-1
 1473 100 l 1,56,-1
 1473 0 l 1,53,-1
854 735 m 0,57,58
 854 562 854 562 772 466 c 128,-1,59
 690 370 690 370 537 370 c 256,60,61
 384 370 384 370 303.5 466 c 128,-1,62
 223 562 223 562 223 735 c 0,63,64
 223 910 223 910 303.5 1006 c 128,-1,65
 384 1102 384 1102 537 1102 c 256,66,67
 690 1102 690 1102 772 1006 c 128,-1,68
 854 910 854 910 854 735 c 0,57,58
100 575 m 1,69,-1
 0 575 l 1,70,-1
 0 898 l 1,71,-1
 100 898 l 1,72,-1
 100 575 l 1,69,-1
898 0 m 1,73,-1
 575 0 l 1,74,-1
 575 100 l 1,75,-1
 898 100 l 1,76,-1
 898 0 l 1,73,-1
323 0 m 1,77,-1
 0 0 l 1,78,-1
 0 323 l 1,79,-1
 100 323 l 1,80,-1
 100 100 l 1,81,-1
 323 100 l 1,82,-1
 323 0 l 1,77,-1
1277 893 m 0,83,84
 1277 992 1277 992 1114 992 c 2,85,-1
 1025 992 l 1,86,-1
 1025 798 l 1,87,-1
 1126 798 l 2,88,89
 1277 798 1277 798 1277 893 c 0,83,84
1307 591 m 0,90,91
 1307 700 1307 700 1136 700 c 2,92,-1
 1025 700 l 1,93,-1
 1025 480 l 1,94,-1
 1149 480 l 2,95,96
 1307 480 1307 480 1307 591 c 0,90,91
738 735 m 0,97,98
 738 1004 738 1004 537 1004 c 0,99,100
 339 1004 339 1004 339 735 c 0,101,102
 339 468 339 468 537 468 c 0,103,104
 738 468 738 468 738 735 c 0,97,98
EndSplineSet
EndChar

StartChar: dotbelowcomb
Encoding: 65538 -1 160
Width: 0
Flags: W
LayerCount: 2
Fore
SplineSet
666 -382 m 1,0,-1
 452 -382 l 1,1,-1
 452 -187 l 1,2,-1
 666 -187 l 1,3,-1
 666 -382 l 1,0,-1
EndSplineSet
EndChar

StartChar: zerowidthnonjoiner
Encoding: 8204 8204 175
Width: 0
GlyphClass: 2
Flags: W
LayerCount: 2
Fore
SplineSet
36 1289 m 1,0,-1
 36 -275 l 1,1,-1
 -36 -275 l 1,2,-1
 -36 1289 l 1,3,-1
 36 1289 l 1,0,-1
EndSplineSet
EndChar

StartChar: zerowidthjoiner
Encoding: 8205 8205 176
Width: 0
GlyphClass: 2
Flags: W
LayerCount: 2
Fore
SplineSet
36 -275 m 1,0,-1
 -36 -275 l 1,1,-1
 -36 1114 l 1,2,-1
 -170 978 l 1,3,-1
 -219 1027 l 1,4,-1
 -48 1196 l 1,5,-1
 -219 1364 l 1,6,-1
 -170 1413 l 1,7,-1
 0 1242 l 1,8,-1
 170 1413 l 1,9,-1
 219 1364 l 1,10,-1
 48 1196 l 1,11,-1
 219 1027 l 1,12,-1
 170 978 l 1,13,-1
 36 1114 l 1,14,-1
 36 -275 l 1,0,-1
EndSplineSet
EndChar

StartChar: lefttorightmark
Encoding: 8206 8206 177
Width: 0
GlyphClass: 2
Flags: W
LayerCount: 2
Fore
SplineSet
430 1198 m 1,0,-1
 213 984 l 1,1,-1
 164 1033 l 1,2,-1
 301 1163 l 1,3,-1
 35 1163 l 1,4,-1
 35 -275 l 1,5,-1
 -36 -275 l 1,6,-1
 -36 1234 l 1,7,-1
 301 1234 l 1,8,-1
 164 1364 l 1,9,-1
 213 1413 l 1,10,-1
 430 1198 l 1,0,-1
EndSplineSet
EndChar

StartChar: righttoleftmark
Encoding: 8207 8207 178
Width: 0
GlyphClass: 2
Flags: W
LayerCount: 2
Fore
SplineSet
35 -275 m 1,0,-1
 -36 -275 l 1,1,-1
 -36 1163 l 1,2,-1
 -302 1163 l 1,3,-1
 -165 1033 l 1,4,-1
 -214 984 l 1,5,-1
 -431 1198 l 1,6,-1
 -214 1413 l 1,7,-1
 -165 1364 l 1,8,-1
 -302 1234 l 1,9,-1
 35 1234 l 1,10,-1
 35 -275 l 1,0,-1
EndSplineSet
EndChar

StartChar: afii57388.001
Encoding: 1644 1644 179
Width: 353
GlyphClass: 2
Flags: W
LayerCount: 2
Fore
SplineSet
210 654 m 0,0,1
 200 627 200 627 185 603 c 0,2,3
 180 597 180 597 173.5 593.5 c 128,-1,4
 167 590 167 590 162 590 c 128,-1,5
 157 590 157 590 154.5 593 c 128,-1,6
 152 596 152 596 155 603 c 0,7,8
 187 660 187 660 202.5 713.5 c 128,-1,9
 218 767 218 767 218 800 c 1,10,11
 194 806 194 806 179 816 c 128,-1,12
 164 826 164 826 155 837.5 c 128,-1,13
 146 849 146 849 143 859 c 128,-1,14
 140 869 140 869 140 874 c 0,15,16
 140 890 140 890 145.5 907 c 128,-1,17
 151 924 151 924 160.5 937.5 c 128,-1,18
 170 951 170 951 183.5 959.5 c 128,-1,19
 197 968 197 968 213 968 c 0,20,21
 272 968 272 968 272 874 c 0,22,23
 272 859 272 859 268 835 c 128,-1,24
 264 811 264 811 256 781.5 c 128,-1,25
 248 752 248 752 236.5 719.5 c 128,-1,26
 225 687 225 687 210 654 c 0,0,1
EndSplineSet
EndChar

StartChar: afii57409
Encoding: 1569 1569 180
Width: 891
GlyphClass: 2
Flags: W
AnchorPoint: "Anchor-1" 495 -300 basechar 0
AnchorPoint: "Anchor-0" 315 750 basechar 0
LayerCount: 2
Fore
SplineSet
773 153 m 1,0,-1
 195 -5 l 1,1,-1
 173 98 l 1,2,-1
 318 162 l 1,3,4
 237 227 237 227 216 327 c 0,5,6
 197 417 197 417 247.5 486.5 c 128,-1,7
 298 556 298 556 388 556 c 0,8,9
 520 556 520 556 606 477 c 1,10,-1
 587 379 l 1,11,12
 484 430 484 430 419 430 c 0,13,14
 378 430 378 430 344 408 c 0,15,16
 303 382 303 382 311 344 c 0,17,18
 324 284 324 284 400 253 c 0,19,20
 457 229 457 229 525 229 c 0,21,22
 555 229 555 229 745 285 c 1,23,-1
 773 153 l 1,0,-1
EndSplineSet
EndChar

StartChar: afii57440
Encoding: 1600 1600 181
Width: 701
GlyphClass: 2
Flags: W
LayerCount: 2
Fore
SplineSet
732 0 m 1,0,-1
 -32 0 l 1,1,-1
 -63 150 l 1,2,-1
 700 150 l 1,3,-1
 732 0 l 1,0,-1
EndSplineSet
EndChar

StartChar: afii57453
Encoding: 1613 1613 182
Width: 0
GlyphClass: 4
Flags: W
AnchorPoint: "Anchor-3" 0 0 mark 0
AnchorPoint: "Anchor-1" 0 0 mark 0
LayerCount: 2
Fore
SplineSet
236 -50 m 1,0,-1
 -197 -173 l 1,1,-1
 -231 -98 l 1,2,-1
 201 29 l 1,3,-1
 236 -50 l 1,0,-1
200 118 m 1,4,-1
 -232 -5 l 1,5,-1
 -266 70 l 1,6,-1
 166 197 l 1,7,-1
 200 118 l 1,4,-1
EndSplineSet
EndChar

StartChar: afii57455.001
Encoding: 65539 -1 183
Width: 596
GlyphClass: 4
Flags: W
LayerCount: 2
Fore
SplineSet
161 1690 m 0,0,1
 184 1581 184 1581 99 1497 c 1,2,-1
 175 1451 l 1,3,-1
 137 1398 l 1,4,5
 101 1417 101 1417 54 1460 c 1,6,7
 -61 1364 -61 1364 -226 1328 c 1,8,-1
 -271 1394 l 1,9,10
 -95 1455 -95 1455 -31 1520 c 1,11,12
 -85 1580 -85 1580 -92 1613 c 0,13,14
 -105 1672 -105 1672 -69 1733.5 c 128,-1,15
 -33 1795 -33 1795 23 1795 c 0,16,17
 69 1795 69 1795 110.5 1765 c 128,-1,18
 152 1735 152 1735 161 1690 c 0,0,1
93 1659 m 0,19,20
 81 1715 81 1715 16 1715 c 0,21,22
 -9 1715 -9 1715 -27.5 1685 c 128,-1,23
 -46 1655 -46 1655 -41 1628 c 0,24,25
 -31 1581 -31 1581 36 1552 c 1,26,27
 104 1608 104 1608 93 1659 c 0,19,20
EndSplineSet
EndChar

StartChar: afii57458.001
Encoding: 65540 -1 184
Width: 465
GlyphClass: 4
Flags: W
LayerCount: 2
Fore
SplineSet
231 629 m 0,0,1
 245 561 245 561 214 512 c 0,2,3
 180 461 180 461 113 461 c 0,4,5
 55 461 55 461 9.5 498 c 128,-1,6
 -36 535 -36 535 -48 592 c 0,7,8
 -69 689 -69 689 -34 746 c 0,9,10
 -7 793 -7 793 37 793 c 0,11,12
 87 793 87 793 147 751 c 0,13,14
 215 701 215 701 231 629 c 0,0,1
169 621 m 0,15,16
 160 662 160 662 121 688 c 0,17,18
 86 712 86 712 43 712 c 0,19,20
 22 712 22 712 9.5 680.5 c 128,-1,21
 -3 649 -3 649 0 626 c 0,22,23
 16 553 16 553 95 553 c 0,24,25
 128 553 128 553 150 570 c 0,26,27
 175 589 175 589 169 621 c 0,15,16
EndSplineSet
EndChar

StartChar: afii57381
Encoding: 1642 1642 185
Width: 939
GlyphClass: 2
Flags: W
LayerCount: 2
Fore
SplineSet
96 1036 m 1,0,-1
 8 921 l 1,1,-1
 -133 1037 l 1,2,-1
 -40 1150 l 1,3,-1
 96 1036 l 1,0,-1
450 1157 m 1,4,-1
 260 -102 l 1,5,-1
 193 -80 l 1,6,-1
 374 1179 l 1,7,-1
 450 1157 l 1,4,-1
821 85 m 1,8,-1
 733 -32 l 1,9,-1
 591 85 l 1,10,-1
 684 198 l 1,11,-1
 821 85 l 1,8,-1
EndSplineSet
EndChar

StartChar: afii57461
Encoding: 1643 1643 186
Width: 985
GlyphClass: 2
Flags: W
LayerCount: 2
Fore
SplineSet
228 -521 m 1,0,-1
 664 502 l 1,1,-1
 778 502 l 1,2,-1
 342 -521 l 1,3,-1
 228 -521 l 1,0,-1
EndSplineSet
EndChar

StartChar: afii63167
Encoding: 1645 1645 187
Width: 1118
GlyphClass: 2
Flags: W
LayerCount: 2
Fore
SplineSet
694 729 m 1,0,-1
 1057 733 l 1,1,-1
 1057 610 l 1,2,-1
 702 612 l 1,3,-1
 971 352 l 1,4,-1
 883 264 l 1,5,-1
 616 539 l 1,6,-1
 623 168 l 1,7,-1
 498 168 l 1,8,-1
 502 539 l 1,9,-1
 236 264 l 1,10,-1
 147 352 l 1,11,-1
 422 614 l 1,12,-1
 63 610 l 1,13,-1
 63 733 l 1,14,-1
 420 729 l 1,15,-1
 170 975 l 1,16,-1
 258 1065 l 1,17,-1
 502 817 l 1,18,-1
 498 1176 l 1,19,-1
 623 1176 l 1,20,-1
 616 813 l 1,21,-1
 860 1065 l 1,22,-1
 948 975 l 1,23,-1
 694 729 l 1,0,-1
EndSplineSet
EndChar

StartChar: afii57459
Encoding: 65541 -1 188
Width: 538
GlyphClass: 2
Flags: W
LayerCount: 2
Fore
SplineSet
425 350 m 0,0,1
 499 1 499 1 141 0 c 2,2,-1
 -70 0 l 1,3,-1
 -101 150 l 1,4,-1
 92 150 l 2,5,6
 193 150 193 150 268 187 c 0,7,8
 337 221 337 221 330 250 c 2,9,-1
 317 315 l 1,10,11
 260 276 260 276 177 276 c 0,12,13
 89 276 89 276 36 334 c 0,14,15
 -1 375 -1 375 -13 432 c 0,16,17
 -31 516 -31 516 -2 625 c 0,18,19
 33 762 33 762 124 762 c 0,20,21
 223 762 223 762 321 598 c 0,22,23
 400 467 400 467 425 350 c 0,0,1
264 443 m 1,24,25
 198 612 198 612 131 612 c 0,26,27
 102 612 102 612 83 563 c 0,28,29
 65 518 65 518 72 486 c 0,30,31
 89 409 89 409 169 409 c 0,32,33
 233 409 233 409 264 443 c 1,24,25
EndSplineSet
EndChar

StartChar: afii57543
Encoding: 65542 -1 189
Width: 548
Flags: W
LayerCount: 2
Fore
SplineSet
547 1 m 1,0,-1
 493 1 l 2,1,2
 318 1 318 1 237 123 c 1,3,4
 222 68 222 68 169.5 34.5 c 128,-1,5
 117 1 117 1 53 1 c 2,6,-1
 -70 1 l 1,7,-1
 -101 150 l 1,8,-1
 13 150 l 2,9,10
 87 150 87 150 130 184 c 0,11,12
 180 223 180 223 165 294 c 2,13,-1
 152 357 l 1,14,-1
 248 384 l 1,15,16
 280 239 280 239 341 189 c 0,17,18
 389 150 389 150 486 150 c 2,19,-1
 516 150 l 1,20,-1
 547 1 l 1,0,-1
EndSplineSet
EndChar

StartChar: afii57534
Encoding: 1749 1749 190
Width: 639
GlyphClass: 2
Flags: W
LayerCount: 2
Fore
SplineSet
536 231 m 0,0,1
 559 123 559 123 513 53 c 0,2,3
 465 -21 465 -21 359 -21 c 0,4,5
 273 -21 273 -21 209 36.5 c 128,-1,6
 145 94 145 94 126 181 c 0,7,8
 109 259 109 259 122 322 c 0,9,10
 127 350 127 350 169 471 c 1,11,-1
 142 490 l 1,12,-1
 185 625 l 1,13,14
 497 415 497 415 536 231 c 0,0,1
430 230 m 0,15,16
 419 282 419 282 351 346 c 0,17,18
 300 395 300 395 245 427 c 1,19,20
 199 283 199 283 208 242 c 0,21,22
 233 126 233 126 338 126 c 0,23,24
 384 126 384 126 411.5 155.5 c 128,-1,25
 439 185 439 185 430 230 c 0,15,16
EndSplineSet
EndChar

StartChar: afii64240
Encoding: 65543 -1 191
Width: 382
Flags: W
LayerCount: 2
Fore
SplineSet
278 131 m 1,0,-1
 208 3 l 1,1,-1
 58 90 l 1,2,-1
 127 221 l 1,3,-1
 278 131 l 1,0,-1
EndSplineSet
EndChar

StartChar: afii64241
Encoding: 65544 -1 192
Width: 544
Flags: W
LayerCount: 2
Fore
SplineSet
429 125 m 1,0,-1
 366 14 l 1,1,-1
 235 98 l 1,2,-1
 175 -2 l 1,3,-1
 36 84 l 1,4,-1
 104 197 l 1,5,-1
 230 115 l 1,6,-1
 289 211 l 1,7,-1
 429 125 l 1,0,-1
EndSplineSet
EndChar

StartChar: afii63954
Encoding: 65545 -1 193
Width: 506
Flags: W
LayerCount: 2
Fore
SplineSet
279 309 m 1,0,-1
 218 197 l 1,1,-1
 75 285 l 1,2,-1
 140 394 l 1,3,-1
 279 309 l 1,0,-1
448 134 m 1,4,-1
 386 21 l 1,5,-1
 242 111 l 1,6,-1
 181 5 l 1,7,-1
 41 92 l 1,8,-1
 106 205 l 1,9,-1
 245 117 l 1,10,-1
 305 221 l 1,11,-1
 448 134 l 1,4,-1
EndSplineSet
EndChar

StartChar: afii57382
Encoding: 65546 -1 194
Width: 484
Flags: W
LayerCount: 2
Fore
SplineSet
264 -312 m 1,0,-1
 317 -210 l 1,1,-1
 449 -294 l 1,2,-1
 392 -393 l 1,3,-1
 264 -312 l 1,0,-1
89 -125 m 1,4,-1
 147 -20 l 1,5,-1
 281 -104 l 1,6,-1
 338 -6 l 1,7,-1
 470 -87 l 1,8,-1
 408 -192 l 1,9,-1
 280 -110 l 1,10,-1
 222 -206 l 1,11,-1
 89 -125 l 1,4,-1
EndSplineSet
EndChar

StartChar: afii64242
Encoding: 65547 -1 195
Width: 417
Flags: W
LayerCount: 2
Fore
SplineSet
315 258 m 0,0,1
 369 1 369 1 71 0 c 2,2,-1
 -52 0 l 1,3,-1
 -83 150 l 1,4,-1
 47 150 l 2,5,6
 220 150 220 150 200 243 c 0,7,8
 189 293 189 293 124 359 c 2,9,-1
 81 403 l 1,10,-1
 160 516 l 1,11,12
 284 404 284 404 315 258 c 0,0,1
EndSplineSet
EndChar

StartChar: afii62881
Encoding: 59416 59416 196
Width: 0
GlyphClass: 4
Flags: W
AnchorPoint: "Anchor-2" 0 0 mark 0
AnchorPoint: "Anchor-0" 0 0 mark 0
LayerCount: 2
Fore
SplineSet
138 422 m 1,0,-1
 -295 299 l 1,1,-1
 -329 374 l 1,2,-1
 103 501 l 1,3,-1
 138 422 l 1,0,-1
102 590 m 1,4,-1
 -331 467 l 1,5,-1
 -365 542 l 1,6,-1
 67 669 l 1,7,-1
 102 590 l 1,4,-1
134 302 m 1,8,9
 167 239 167 239 179 183 c 0,10,11
 212 25 212 25 87 25 c 0,12,13
 31 25 31 25 -24 112 c 1,14,15
 -65 -14 -65 -14 -146 -14 c 256,16,17
 -227 -14 -227 -14 -247 83 c 0,18,19
 -261 147 -261 147 -237 217 c 1,20,-1
 -193 217 l 1,21,22
 -196 164 -196 164 -190 136 c 0,23,24
 -180 89 -180 89 -131 89 c 0,25,26
 -58 89 -58 89 -69 244 c 1,27,-1
 -19 265 l 1,28,29
 0 197 0 197 7 176 c 0,30,31
 32 125 32 125 77 125 c 0,32,33
 130 125 130 125 115 195 c 0,34,35
 107 231 107 231 81 283 c 1,36,-1
 134 302 l 1,8,9
EndSplineSet
Ligature2: "'ccmp' Glyph Composition/Decomposition in Arabic lookup 4 subtable" afii57457 afii57451
EndChar

StartChar: afii57373
Encoding: 65548 -1 200
Width: 484
Flags: W
LayerCount: 2
Fore
SplineSet
332 424 m 1,0,-1
 -30 326 l 1,1,-1
 -44 393 l 1,2,-1
 45 434 l 1,3,4
 -14 483 -14 483 -24 531 c 0,5,6
 -36 587 -36 587 0 633.5 c 128,-1,7
 36 680 36 680 92 680 c 0,8,9
 159 680 159 680 216 642 c 1,10,-1
 204 585 l 1,11,12
 157 600 157 600 106 600 c 0,13,14
 81 600 81 600 57 586 c 0,15,16
 29 569 29 569 33 546 c 0,17,18
 48 477 48 477 167 477 c 0,19,20
 183 477 183 477 312 519 c 1,21,-1
 332 424 l 1,0,-1
EndSplineSet
EndChar

StartChar: afii57374
Encoding: 65549 -1 201
Width: 574
GlyphClass: 2
Flags: W
LayerCount: 2
Fore
SplineSet
573 1 m 1,0,-1
 554 1 l 2,1,2
 379 1 379 1 251 91 c 1,3,4
 130 0 130 0 11 0 c 2,5,-1
 -70 0 l 1,6,-1
 -101 150 l 1,7,-1
 -4 150 l 2,8,9
 73 150 73 150 120 187 c 1,10,11
 46 249 46 249 21 363 c 0,12,13
 1 457 1 457 71 547 c 0,14,15
 137 632 137 632 212 632 c 256,16,17
 287 632 287 632 357 550 c 0,18,19
 417 478 417 478 434 399 c 0,20,21
 464 257 464 257 361 176 c 1,22,23
 427 150 427 150 527 150 c 2,24,-1
 542 150 l 1,25,-1
 573 1 l 1,0,-1
333 359 m 0,26,27
 325 396 325 396 292 437 c 0,28,29
 255 483 255 483 220 483 c 0,30,31
 184 483 184 483 150 444.5 c 128,-1,32
 116 406 116 406 124 370 c 0,33,34
 131 337 131 337 169 294 c 0,35,36
 210 248 210 248 241 248 c 0,37,38
 269 248 269 248 304 289.5 c 128,-1,39
 339 331 339 331 333 359 c 0,26,27
EndSplineSet
EndChar

StartChar: afii57375
Encoding: 1619 1619 202
Width: 772
GlyphClass: 2
Flags: W
LayerCount: 2
Fore
SplineSet
424 1258 m 1,0,1
 401 1202 401 1202 350 1165 c 0,2,3
 295 1125 295 1125 232 1125 c 0,4,5
 194 1125 194 1125 117 1138 c 128,-1,6
 40 1151 40 1151 3 1151 c 0,7,8
 -60 1151 -60 1151 -112 1104 c 1,9,-1
 -188 1176 l 1,10,11
 -128 1260 -128 1260 -39 1260 c 0,12,13
 -3 1260 -3 1260 71 1248.5 c 128,-1,14
 145 1237 145 1237 182 1237 c 0,15,16
 294 1237 294 1237 371 1325 c 1,17,-1
 424 1258 l 1,0,1
EndSplineSet
EndChar

StartChar: afii57471
Encoding: 65550 -1 203
Width: 1673
Flags: W
LayerCount: 2
Fore
SplineSet
1673 0 m 1,0,-1
 1642 0 l 2,1,2
 1465 1 1465 1 1403 151 c 1,3,4
 1281 -41 1281 -41 670 -41 c 0,5,6
 393 -41 393 -41 259 20 c 0,7,8
 109 89 109 89 73 256 c 0,9,10
 51 361 51 361 95 445 c 1,11,-1
 195 416 l 1,12,13
 172 347 172 347 185 286 c 0,14,15
 210 166 210 166 370 128 c 0,16,17
 447 110 447 110 620 110 c 2,18,-1
 669 110 l 2,19,20
 881 110 881 110 1061 140 c 0,21,22
 1356 189 1356 189 1352 302 c 2,23,-1
 1350 358 l 1,24,-1
 1427 385 l 1,25,26
 1451 272 1451 272 1485 223 c 0,27,28
 1535 150 1535 150 1634 150 c 2,29,-1
 1641 150 l 1,30,-1
 1673 0 l 1,0,-1
EndSplineSet
EndChar

StartChar: afii52258
Encoding: 65551 -1 204
Width: 1742
GlyphClass: 2
Flags: W
LayerCount: 2
Fore
SplineSet
1742 0 m 1,0,-1
 1670 0 l 2,1,2
 1483 1 1483 1 1357 97 c 1,3,4
 1245 29 1245 29 1043 -9 c 0,5,6
 871 -41 871 -41 696 -41 c 0,7,8
 419 -41 419 -41 285 20 c 0,9,10
 135 89 135 89 99 256 c 0,11,12
 77 361 77 361 121 445 c 1,13,-1
 221 416 l 1,14,15
 198 347 198 347 211 286 c 0,16,17
 235 171 235 171 368 132 c 0,18,19
 444 110 444 110 593 110 c 2,20,-1
 695 110 l 2,21,22
 1085 110 1085 110 1224 187 c 1,23,24
 1152 240 1152 240 1126 363 c 0,25,26
 1107 456 1107 456 1176 547 c 0,27,28
 1242 632 1242 632 1316 632 c 0,29,30
 1393 632 1393 632 1463 546 c 0,31,32
 1523 471 1523 471 1541 389 c 0,33,34
 1553 333 1553 333 1529.5 264 c 128,-1,35
 1506 195 1506 195 1463 170 c 1,36,37
 1509 150 1509 150 1642 150 c 2,38,-1
 1710 150 l 1,39,-1
 1742 0 l 1,0,-1
1435 370 m 0,40,41
 1427 409 1427 409 1396 444 c 0,42,43
 1362 483 1362 483 1325 483 c 0,44,45
 1286 483 1286 483 1253 445.5 c 128,-1,46
 1220 408 1220 408 1228 370 c 0,47,48
 1235 337 1235 337 1274 295 c 0,49,50
 1314 250 1314 250 1345 250 c 0,51,52
 1380 250 1380 250 1411.5 292 c 128,-1,53
 1443 334 1443 334 1435 370 c 0,40,41
EndSplineSet
EndChar

StartChar: afii62889
Encoding: 65552 -1 210
Width: 1199
Flags: W
LayerCount: 2
Fore
SplineSet
1199 0 m 1,0,-1
 1155 0 l 1,1,2
 1176 -221 1176 -221 1063 -362 c 0,3,4
 946 -509 946 -509 726 -509 c 0,5,6
 475 -509 475 -509 321 -358 c 0,7,8
 202 -241 202 -241 165 -68 c 0,9,10
 132 85 132 85 188 213 c 1,11,-1
 296 172 l 1,12,13
 261 56 261 56 290 -81 c 0,14,15
 319 -220 319 -220 454 -296 c 0,16,17
 570 -361 570 -361 717 -361 c 0,18,19
 884 -361 884 -361 971 -256 c 0,20,21
 1054 -155 1054 -155 1043 0 c 1,22,-1
 958 0 l 1,23,24
 724 6 724 6 686 186 c 0,25,26
 665 285 665 285 694 375 c 0,27,28
 727 480 727 480 813 480 c 0,29,30
 911 480 911 480 1006 355 c 0,31,32
 1081 257 1081 257 1116 150 c 1,33,-1
 1167 150 l 1,34,-1
 1199 0 l 1,0,-1
992 150 m 1,35,36
 977 200 977 200 937 260 c 0,37,38
 887 337 887 337 841 337 c 0,39,40
 808 337 808 337 789 300 c 0,41,42
 772 267 772 267 779 232 c 0,43,44
 798 144 798 144 921 150 c 1,45,-1
 992 150 l 1,35,36
EndSplineSet
EndChar

StartChar: afii62887
Encoding: 65553 -1 211
Width: 1610
Flags: W
LayerCount: 2
Fore
SplineSet
1507 280 m 0,0,1
 1545 103 1545 103 1242 20 c 0,2,3
 1020 -41 1020 -41 686 -41 c 0,4,5
 409 -41 409 -41 275 20 c 0,6,7
 125 89 125 89 89 256 c 0,8,9
 67 361 67 361 111 445 c 1,10,-1
 211 416 l 1,11,12
 188 347 188 347 201 286 c 0,13,14
 226 167 226 167 386 129 c 0,15,16
 465 110 465 110 636 110 c 2,17,-1
 685 110 l 2,18,19
 863 110 863 110 1089 142 c 0,20,21
 1420 189 1420 189 1403 272 c 0,22,23
 1387 344 1387 344 1277 445 c 1,24,-1
 1344 562 l 1,25,26
 1475 429 1475 429 1507 280 c 0,0,1
EndSplineSet
EndChar

StartChar: afii62888
Encoding: 1697 1697 212
Width: 1593
GlyphClass: 2
Flags: W
LayerCount: 2
Fore
SplineSet
1459 377 m 0,0,1
 1493 218 1493 218 1405 129 c 0,2,3
 1337 60 1337 60 1172 19 c 0,4,5
 932 -41 932 -41 665 -41 c 0,6,7
 388 -41 388 -41 254 20 c 0,8,9
 104 89 104 89 68 256 c 0,10,11
 46 361 46 361 90 445 c 1,12,-1
 190 416 l 1,13,14
 167 347 167 347 180 286 c 0,15,16
 204 171 204 171 337 132 c 0,17,18
 413 110 413 110 562 110 c 2,19,-1
 664 110 l 2,20,21
 992 110 992 110 1189 174 c 0,22,23
 1330 220 1330 220 1352 271 c 0,24,25
 1362 294 1362 294 1352 342 c 1,26,27
 1294 304 1294 304 1211 304 c 0,28,29
 1140 304 1140 304 1087.5 346 c 128,-1,30
 1035 388 1035 388 1020 459 c 0,31,32
 1002 542 1002 542 1032 653 c 0,33,34
 1068 790 1068 790 1158 790 c 0,35,36
 1257 790 1257 790 1356 625 c 0,37,38
 1434 495 1434 495 1459 377 c 0,0,1
1298 471 m 1,39,40
 1232 640 1232 640 1165 640 c 0,41,42
 1135 640 1135 640 1117 591 c 0,43,44
 1100 547 1100 547 1107 514 c 0,45,46
 1124 436 1124 436 1203 436 c 0,47,48
 1267 436 1267 436 1298 471 c 1,39,40
EndSplineSet
Substitution2: "'fina' Terminal Forms in Arabic lookup 3 subtable" afii52258
Substitution2: "'medi' Medial Forms in Arabic lookup 2 subtable" afii57374
Substitution2: "'init' Initial Forms in Arabic lookup 0 subtable" afii57459
EndChar

StartChar: afii57567
Encoding: 1705 1705 219
Width: 1721
GlyphClass: 2
Flags: W
AnchorPoint: "Anchor-1" 765 -465 basechar 0
AnchorPoint: "Anchor-0" 390 1005 basechar 0
LayerCount: 2
Fore
SplineSet
1480 1227 m 1,0,-1
 1493 1072 l 1,1,2
 1108 898 1108 898 917 740 c 1,3,4
 1257 505 1257 505 1298 311 c 0,5,6
 1320 211 1320 211 1265 142 c 0,7,8
 1121 -41 1121 -41 677 -41 c 0,9,10
 441 -41 441 -41 322 -1 c 0,11,12
 122 65 122 65 81 256 c 0,13,14
 59 361 59 361 103 445 c 1,15,-1
 202 416 l 1,16,17
 179 347 179 347 192 286 c 0,18,19
 210 202 210 202 279 162 c 0,20,21
 370 110 370 110 575 110 c 2,22,-1
 603 110 l 2,23,24
 1223 110 1223 110 1183 297 c 0,25,26
 1166 378 1166 378 1053 476 c 0,27,28
 1034 493 1034 493 803 669 c 1,29,30
 781 801 781 801 805 822 c 0,31,32
 1058 1046 1058 1046 1480 1227 c 1,0,-1
EndSplineSet
Substitution2: "'fina' Terminal Forms in Arabic lookup 3 subtable" afii62964
Substitution2: "'medi' Medial Forms in Arabic lookup 2 subtable" afii52306
Substitution2: "'init' Initial Forms in Arabic lookup 0 subtable" afii52305
EndChar

StartChar: afii62964
Encoding: 64399 64399 220
Width: 1807
GlyphClass: 2
Flags: W
AnchorPoint: "Anchor-1" 705 -555 basechar 0
AnchorPoint: "Anchor-0" 375 1050 basechar 0
LayerCount: 2
Fore
SplineSet
1807 0 m 1,0,-1
 1776 0 l 2,1,2
 1517 1 1517 1 1240 342 c 1,3,4
 1249 319 1249 319 1253 297 c 0,5,6
 1294 104 1294 104 1035 16 c 0,7,8
 867 -41 867 -41 653 -41 c 0,9,10
 376 -41 376 -41 242 20 c 0,11,12
 92 89 92 89 56 256 c 0,13,14
 34 361 34 361 78 445 c 1,15,-1
 178 416 l 1,16,17
 155 347 155 347 168 286 c 0,18,19
 205 110 205 110 550 110 c 2,20,-1
 579 110 l 2,21,22
 759 110 759 110 926 145 c 0,23,24
 1185 199 1185 199 1161 313 c 0,25,26
 1142 403 1142 403 1052 475 c 0,27,28
 1030 492 1030 492 815 654 c 1,29,30
 788 798 788 798 802 810 c 0,31,32
 911 900 911 900 1147 1042 c 0,33,34
 1376 1179 1376 1179 1513 1240 c 1,35,-1
 1526 1086 l 1,36,37
 1379 1019 1379 1019 1183 907 c 0,38,39
 970 786 970 786 912 731 c 1,40,-1
 1092 604 l 2,41,42
 1186 534 1186 534 1253 471 c 0,43,44
 1596 150 1596 150 1737 150 c 2,45,-1
 1775 150 l 1,46,-1
 1807 0 l 1,0,-1
EndSplineSet
EndChar

StartChar: afii52305
Encoding: 64400 64400 221
Width: 756
GlyphClass: 2
Flags: W
AnchorPoint: "Anchor-1" 300 -525 basechar 0
AnchorPoint: "Anchor-0" 0 1200 basechar 0
LayerCount: 2
Fore
SplineSet
512 1230 m 1,0,-1
 525 1075 l 1,1,2
 146 904 146 904 -50 744 c 1,3,4
 290 508 290 508 331 314 c 0,5,6
 350 222 350 222 306 137 c 0,7,8
 235 1 235 1 -3 0 c 2,9,-1
 -70 0 l 1,10,-1
 -101 150 l 1,11,-1
 32 150 l 2,12,13
 248 150 248 150 216 297 c 0,14,15
 199 379 199 379 87 478 c 0,16,17
 64 498 64 498 -163 672 c 1,18,19
 -185 807 -185 807 -161 826 c 0,20,21
 90 1031 90 1031 512 1230 c 1,0,-1
EndSplineSet
EndChar

StartChar: afii52306
Encoding: 64401 64401 222
Width: 851
GlyphClass: 2
Flags: W
AnchorPoint: "Anchor-1" 450 -495 basechar 0
AnchorPoint: "Anchor-0" 90 1200 basechar 0
LayerCount: 2
Fore
SplineSet
851 0 m 1,0,-1
 820 0 l 2,1,2
 572 1 572 1 293 336 c 1,3,4
 304 306 304 306 310 278 c 0,5,6
 341 133 341 133 248 61 c 0,7,8
 168 1 168 1 16 0 c 2,9,-1
 -70 0 l 1,10,-1
 -101 150 l 1,11,-1
 -24 150 l 2,12,13
 249 150 249 150 214 313 c 0,14,15
 197 392 197 392 107 466 c 0,16,17
 29 527 29 527 -127 651 c 1,18,19
 -155 796 -155 796 -141 807 c 0,20,21
 -35 895 -35 895 204 1039 c 0,22,23
 433 1176 433 1176 570 1237 c 1,24,-1
 582 1083 l 1,25,26
 437 1017 437 1017 239 904 c 0,27,28
 25 782 25 782 -30 728 c 1,29,30
 29 686 29 686 148 601 c 0,31,32
 233 540 233 540 306 471 c 0,33,34
 474 315 474 315 556 254 c 0,35,36
 696 150 696 150 786 150 c 2,37,-1
 819 150 l 1,38,-1
 851 0 l 1,0,-1
EndSplineSet
EndChar

StartChar: afii57509
Encoding: 1711 1711 223
Width: 1703
GlyphClass: 2
Flags: W
AnchorPoint: "Anchor-1" 720 -570 basechar 0
AnchorPoint: "Anchor-0" 330 1065 basechar 0
LayerCount: 2
Fore
SplineSet
1415 1387 m 1,0,-1
 1428 1284 l 1,1,2
 1311 1231 1311 1231 1114 1114 c 2,3,-1
 798 924 l 1,4,-1
 789 1012 l 1,5,6
 1162 1252 1162 1252 1415 1387 c 1,0,-1
1466 1179 m 1,7,-1
 1479 1022 l 1,8,9
 1320 956 1320 956 1147 862 c 0,10,11
 988 775 988 775 933 728 c 1,12,13
 1069 633 1069 633 1130 575 c 0,14,15
 1267 445 1267 445 1295 314 c 0,16,17
 1318 204 1318 204 1263 142 c 0,18,19
 1100 -41 1100 -41 675 -41 c 0,20,21
 398 -41 398 -41 264 20 c 0,22,23
 114 89 114 89 78 256 c 0,24,25
 56 361 56 361 100 445 c 1,26,-1
 200 416 l 1,27,28
 177 347 177 347 190 286 c 0,29,30
 214 171 214 171 347 132 c 0,31,32
 423 110 423 110 572 110 c 2,33,-1
 601 110 l 2,34,35
 1220 110 1220 110 1187 292 c 0,36,37
 1175 359 1175 359 1087 444 c 0,38,39
 1008 520 1008 520 823 651 c 1,40,41
 803 774 803 774 828 794 c 0,42,43
 1089 1011 1089 1011 1466 1179 c 1,7,-1
EndSplineSet
Substitution2: "'fina' Terminal Forms in Arabic lookup 3 subtable" afii62967
Substitution2: "'medi' Medial Forms in Arabic lookup 2 subtable" afii62966
Substitution2: "'init' Initial Forms in Arabic lookup 0 subtable" afii62965
EndChar

StartChar: afii62967
Encoding: 64403 64403 224
Width: 1820
GlyphClass: 2
Flags: W
AnchorPoint: "Anchor-1" 675 -540 basechar 0
AnchorPoint: "Anchor-0" 345 1065 basechar 0
LayerCount: 2
Fore
SplineSet
1481 1387 m 1,0,-1
 1483 1281 l 1,1,2
 1373 1234 1373 1234 1150 1109 c 2,3,-1
 804 914 l 1,4,-1
 797 999 l 1,5,6
 1271 1289 1271 1289 1481 1387 c 1,0,-1
1820 0 m 1,7,-1
 1789 0 l 2,8,9
 1530 1 1530 1 1253 342 c 1,10,11
 1262 319 1262 319 1266 297 c 0,12,13
 1307 104 1307 104 1048 16 c 0,14,15
 880 -41 880 -41 666 -41 c 0,16,17
 389 -41 389 -41 255 20 c 0,18,19
 105 89 105 89 69 256 c 0,20,21
 47 361 47 361 91 445 c 1,22,-1
 191 416 l 1,23,24
 168 347 168 347 181 286 c 0,25,26
 218 110 218 110 563 110 c 2,27,-1
 592 110 l 2,28,29
 772 110 772 110 939 145 c 0,30,31
 1198 199 1198 199 1174 313 c 0,32,33
 1155 403 1155 403 1055 474 c 0,34,35
 981 524 981 524 834 624 c 1,36,37
 805 774 805 774 823 789 c 0,38,39
 928 877 928 877 1162 1008 c 0,40,41
 1376 1128 1376 1128 1519 1188 c 1,42,-1
 1532 1033 l 1,43,44
 1402 988 1402 988 1216 891 c 0,45,46
 1009 783 1009 783 933 710 c 1,47,48
 1018 654 1018 654 1104 598 c 0,49,50
 1205 530 1205 530 1266 471 c 0,51,52
 1605 150 1605 150 1750 150 c 2,53,-1
 1788 150 l 1,54,-1
 1820 0 l 1,7,-1
EndSplineSet
EndChar

StartChar: afii62965
Encoding: 64404 64404 225
Width: 731
GlyphClass: 2
Flags: W
AnchorPoint: "Anchor-1" 330 -450 basechar 0
AnchorPoint: "Anchor-0" -75 1350 basechar 0
LayerCount: 2
Fore
SplineSet
446 1384 m 1,0,-1
 460 1281 l 1,1,2
 342 1229 342 1229 145 1111 c 2,3,-1
 -169 921 l 1,4,-1
 -177 1009 l 1,5,6
 194 1249 194 1249 446 1384 c 1,0,-1
499 1176 m 1,7,-1
 512 1019 l 1,8,9
 354 954 354 954 180 859 c 0,10,11
 20 771 20 771 -34 725 c 1,12,13
 98 633 98 633 162 572 c 0,14,15
 300 441 300 441 327 311 c 0,16,17
 393 1 393 1 16 0 c 2,18,-1
 -70 0 l 1,19,-1
 -101 150 l 1,20,-1
 32 150 l 2,21,22
 249 150 249 150 219 289 c 0,23,24
 194 407 194 407 -143 648 c 1,25,26
 -163 771 -163 771 -140 791 c 0,27,28
 119 1007 119 1007 499 1176 c 1,7,-1
EndSplineSet
EndChar

StartChar: afii62966
Encoding: 64405 64405 226
Width: 851
GlyphClass: 2
Flags: W
AnchorPoint: "Anchor-1" 375 -495 basechar 0
AnchorPoint: "Anchor-0" 45 1320 basechar 0
LayerCount: 2
Fore
SplineSet
521 1384 m 1,0,-1
 524 1278 l 1,1,2
 422 1235 422 1235 191 1105 c 2,3,-1
 -154 911 l 1,4,-1
 -162 996 l 1,5,6
 311 1286 311 1286 521 1384 c 1,0,-1
851 0 m 1,7,-1
 820 0 l 2,8,9
 572 1 572 1 293 336 c 1,10,11
 304 306 304 306 310 278 c 0,12,13
 341 133 341 133 248 61 c 0,14,15
 168 1 168 1 16 0 c 2,16,-1
 -70 0 l 1,17,-1
 -101 150 l 1,18,-1
 -24 150 l 2,19,20
 249 150 249 150 214 313 c 0,21,22
 202 371 202 371 99 455 c 0,23,24
 93 460 93 460 -125 621 c 1,25,26
 -154 772 -154 772 -137 786 c 0,27,28
 -31 874 -31 874 202 1005 c 0,29,30
 413 1123 413 1123 560 1185 c 1,31,-1
 573 1030 l 1,32,33
 443 985 443 985 257 888 c 0,34,35
 50 780 50 780 -26 707 c 1,36,37
 -5 692 -5 692 150 590 c 0,38,39
 245 527 245 527 306 471 c 0,40,41
 474 315 474 315 556 254 c 0,42,43
 696 150 696 150 786 150 c 2,44,-1
 819 150 l 1,45,-1
 851 0 l 1,7,-1
EndSplineSet
EndChar

StartChar: afii57555
Encoding: 1740 1740 227
Width: 1330
GlyphClass: 2
Flags: W
AnchorPoint: "Anchor-1" 645 -840 basechar 0
AnchorPoint: "Anchor-0" 255 765 basechar 0
LayerCount: 2
Fore
SplineSet
1150 660 m 1,0,-1
 1129 528 l 1,1,2
 1077 549 1077 549 1012 549 c 0,3,4
 916 549 916 549 827 483 c 0,5,6
 733 413 733 413 729 325 c 0,7,8
 729 317 729 317 731 306 c 0,9,10
 741 260 741 260 804.5 253.5 c 128,-1,11
 868 247 868 247 1018 232 c 0,12,13
 1204 211 1204 211 1235 63 c 0,14,15
 1267 -88 1267 -88 1071 -220 c 0,16,17
 884 -346 884 -346 670 -346 c 0,18,19
 461 -346 461 -346 321 -252 c 0,20,21
 167 -149 167 -149 124 53 c 0,22,23
 87 227 87 227 147 372 c 1,24,-1
 255 329 l 1,25,26
 212 207 212 207 235 96 c 0,27,28
 297 -196 297 -196 660 -196 c 0,29,30
 782 -196 782 -196 908 -150 c 0,31,32
 1039 -102 1039 -102 1113 -27 c 0,33,34
 1149 10 1149 10 1143 38 c 0,35,36
 1136 75 1136 75 1069 83 c 0,37,38
 792 115 792 115 750 129 c 0,39,40
 659 160 659 160 635 274 c 0,41,42
 602 430 602 430 727 568 c 0,43,44
 848 701 848 701 1006 701 c 0,45,46
 1084 701 1084 701 1150 660 c 1,0,-1
EndSplineSet
Substitution2: "'fina' Terminal Forms in Arabic lookup 3 subtable" afii52364
Substitution2: "'medi' Medial Forms in Arabic lookup 2 subtable" afii62832
Substitution2: "'init' Initial Forms in Arabic lookup 0 subtable" uniFBFE
EndChar

StartChar: afii52364
Encoding: 64509 64509 228
Width: 1129
GlyphClass: 2
Flags: W
AnchorPoint: "Anchor-1" 660 -990 basechar 0
AnchorPoint: "Anchor-0" 480 600 basechar 0
LayerCount: 2
Fore
SplineSet
1129 0 m 1,0,-1
 930 0 l 2,1,2
 781 1 781 1 788 -32 c 0,3,4
 794 -57 794 -57 912 -76 c 0,5,6
 1034 -95 1034 -95 1073 -113 c 0,7,8
 1153 -149 1153 -149 1172 -237 c 0,9,10
 1201 -374 1201 -374 1003 -469 c 0,11,12
 842 -548 842 -548 685 -548 c 0,13,14
 476 -548 476 -548 338 -450 c 0,15,16
 190 -344 190 -344 146 -138 c 0,17,18
 114 11 114 11 166 174 c 1,19,-1
 282 137 l 1,20,21
 246 5 246 5 270 -105 c 0,22,23
 301 -253 301 -253 414 -329 c 0,24,25
 517 -397 517 -397 669 -397 c 0,26,27
 930 -397 930 -397 1062 -278 c 0,28,29
 1074 -267 1074 -267 1072 -256 c 0,30,31
 1069 -241 1069 -241 1046 -238 c 0,32,33
 843 -208 843 -208 767 -177 c 0,34,35
 742 -166 742 -166 719 -133 c 128,-1,36
 696 -100 696 -100 690 -72 c 0,37,38
 643 150 643 150 1033 150 c 2,39,-1
 1097 150 l 1,40,-1
 1129 0 l 1,0,-1
EndSplineSet
EndChar

StartChar: afii62882
Encoding: 64606 64606 229
Width: 0
GlyphClass: 4
Flags: W
AnchorPoint: "Anchor-2" 0 0 mark 0
AnchorPoint: "Anchor-0" 0 0 mark 0
LayerCount: 2
Fore
SplineSet
111 709 m 0,0,1
 133 603 133 603 51 518 c 1,2,-1
 127 473 l 1,3,-1
 88 416 l 1,4,5
 33 445 33 445 0 473 c 1,6,7
 -118 383 -118 383 -275 345 c 1,8,-1
 -322 412 l 1,9,10
 -312 416 -312 416 -297 424 c 1,11,12
 -243 481 -243 481 -254 532 c 0,13,14
 -260 561 -260 561 -296 561 c 0,15,16
 -320 561 -320 561 -351 536 c 1,17,-1
 -381 581 l 1,18,19
 -354 623 -354 623 -288 623 c 0,20,21
 -207 623 -207 623 -193 558 c 0,22,23
 -181 500 -181 500 -220 452 c 0,24,25
 -220 448 -220 448 -213 446 c 1,26,27
 -110 481 -110 481 -71 524 c 1,28,29
 -130 581 -130 581 -140 629 c 0,30,31
 -153 687 -153 687 -118 747 c 0,32,33
 -82 811 -82 811 -25 811 c 0,34,35
 19 811 19 811 60 782 c 128,-1,36
 101 753 101 753 111 709 c 0,0,1
45 678 m 0,37,38
 33 734 33 734 -31 734 c 0,39,40
 -54 734 -54 734 -71.5 706 c 128,-1,41
 -89 678 -89 678 -84 655 c 0,42,43
 -72 600 -72 600 -15 573 c 1,44,45
 59 614 59 614 45 678 c 0,37,38
149 313 m 1,46,47
 181 250 181 250 193 194 c 0,48,49
 227 36 227 36 102 36 c 0,50,51
 46 36 46 36 -10 123 c 1,52,53
 -50 -3 -50 -3 -131 -3 c 256,54,55
 -212 -3 -212 -3 -232 94 c 0,56,57
 -246 158 -246 158 -222 228 c 1,58,-1
 -178 228 l 1,59,60
 -182 175 -182 175 -176 147 c 0,61,62
 -166 100 -166 100 -117 100 c 0,63,64
 -44 100 -44 100 -55 255 c 1,65,-1
 -4 276 l 1,66,67
 13 208 13 208 22 187 c 0,68,69
 47 136 47 136 92 136 c 0,70,71
 145 136 145 136 130 206 c 0,72,73
 122 242 122 242 96 294 c 1,74,-1
 149 313 l 1,46,47
EndSplineSet
Ligature2: "'ccmp' Glyph Composition/Decomposition in Arabic lookup 4 subtable" afii57457 afii57452
EndChar

StartChar: afii62883
Encoding: 64607 64607 230
Width: 0
GlyphClass: 4
Flags: W
AnchorPoint: "Anchor-2" 0 0 mark 0
AnchorPoint: "Anchor-0" 0 0 mark 0
LayerCount: 2
Fore
SplineSet
230 129 m 1,0,-1
 -203 6 l 1,1,-1
 -237 81 l 1,2,-1
 195 208 l 1,3,-1
 230 129 l 1,0,-1
194 297 m 1,4,-1
 -238 174 l 1,5,-1
 -272 249 l 1,6,-1
 160 376 l 1,7,-1
 194 297 l 1,4,-1
63 727 m 1,8,9
 95 664 95 664 107 608 c 0,10,11
 141 450 141 450 16 450 c 0,12,13
 -39 450 -39 450 -96 537 c 1,14,15
 -136 411 -136 411 -217 411 c 256,16,17
 -298 411 -298 411 -318 508 c 0,18,19
 -332 572 -332 572 -308 642 c 1,20,-1
 -264 642 l 1,21,22
 -268 589 -268 589 -262 561 c 0,23,24
 -252 514 -252 514 -203 514 c 0,25,26
 -130 514 -130 514 -141 669 c 1,27,-1
 -90 690 l 1,28,29
 -72 622 -72 622 -63 601 c 0,30,31
 -38 550 -38 550 6 550 c 0,32,33
 59 550 59 550 44 620 c 0,34,35
 36 656 36 656 10 708 c 1,36,-1
 63 727 l 1,8,9
EndSplineSet
Ligature2: "'ccmp' Glyph Composition/Decomposition in Arabic lookup 4 subtable" afii57457 afii57453
EndChar

StartChar: afii62884
Encoding: 64608 64608 231
Width: 0
GlyphClass: 4
Flags: W
AnchorPoint: "Anchor-2" 0 0 mark 0
AnchorPoint: "Anchor-0" 0 0 mark 0
LayerCount: 2
Fore
SplineSet
154 461 m 1,0,-1
 -280 339 l 1,1,-1
 -313 413 l 1,2,-1
 119 540 l 1,3,-1
 154 461 l 1,0,-1
149 313 m 1,4,5
 181 250 181 250 193 194 c 0,6,7
 227 36 227 36 102 36 c 0,8,9
 46 36 46 36 -10 123 c 1,10,11
 -50 -3 -50 -3 -131 -3 c 256,12,13
 -212 -3 -212 -3 -232 94 c 0,14,15
 -246 158 -246 158 -222 228 c 1,16,-1
 -178 228 l 1,17,18
 -182 175 -182 175 -176 147 c 0,19,20
 -166 100 -166 100 -117 100 c 0,21,22
 -44 100 -44 100 -55 255 c 1,23,-1
 -4 276 l 1,24,25
 13 208 13 208 22 187 c 0,26,27
 47 136 47 136 92 136 c 0,28,29
 145 136 145 136 130 206 c 0,30,31
 122 242 122 242 96 294 c 1,32,-1
 149 313 l 1,4,5
EndSplineSet
Ligature2: "'ccmp' Glyph Composition/Decomposition in Arabic lookup 4 subtable" afii57457 afii57454
EndChar

StartChar: afii62885
Encoding: 64609 64609 232
Width: 0
GlyphClass: 4
Flags: W
AnchorPoint: "Anchor-2" 0 0 mark 0
AnchorPoint: "Anchor-0" 0 0 mark 0
LayerCount: 2
Fore
SplineSet
65 702 m 0,0,1
 88 593 88 593 3 509 c 1,2,-1
 79 463 l 1,3,-1
 41 410 l 1,4,5
 5 429 5 429 -41 472 c 1,6,7
 -157 376 -157 376 -322 340 c 1,8,-1
 -367 406 l 1,9,10
 -205 454 -205 454 -106 524 c 1,11,12
 -181 592 -181 592 -188 625 c 0,13,14
 -201 684 -201 684 -165 745.5 c 128,-1,15
 -129 807 -129 807 -72 807 c 0,16,17
 -26 807 -26 807 15 777 c 128,-1,18
 56 747 56 747 65 702 c 0,0,1
-2 671 m 0,19,20
 -14 728 -14 728 -79 728 c 0,21,22
 -105 728 -105 728 -123.5 697.5 c 128,-1,23
 -142 667 -142 667 -137 640 c 0,24,25
 -127 593 -127 593 -59 564 c 1,26,27
 8 620 8 620 -2 671 c 0,19,20
149 313 m 1,28,29
 181 250 181 250 193 194 c 0,30,31
 227 36 227 36 102 36 c 0,32,33
 46 36 46 36 -10 123 c 1,34,35
 -50 -3 -50 -3 -131 -3 c 256,36,37
 -212 -3 -212 -3 -232 94 c 0,38,39
 -246 158 -246 158 -222 228 c 1,40,-1
 -178 228 l 1,41,42
 -182 175 -182 175 -176 147 c 0,43,44
 -166 100 -166 100 -117 100 c 0,45,46
 -44 100 -44 100 -55 255 c 1,47,-1
 -4 276 l 1,48,49
 13 208 13 208 22 187 c 0,50,51
 47 136 47 136 92 136 c 0,52,53
 145 136 145 136 130 206 c 0,54,55
 122 242 122 242 96 294 c 1,56,-1
 149 313 l 1,28,29
EndSplineSet
Ligature2: "'ccmp' Glyph Composition/Decomposition in Arabic lookup 4 subtable" afii57457 afii57455
EndChar

StartChar: afii62886
Encoding: 64610 64610 233
Width: 0
GlyphClass: 4
Flags: W
AnchorPoint: "Anchor-2" 0 0 mark 0
AnchorPoint: "Anchor-0" 0 0 mark 0
LayerCount: 2
Fore
SplineSet
224 126 m 1,0,-1
 -209 3 l 1,1,-1
 -243 78 l 1,2,-1
 189 205 l 1,3,-1
 224 126 l 1,0,-1
100 543 m 1,4,5
 132 480 132 480 144 424 c 0,6,7
 178 266 178 266 53 266 c 0,8,9
 -2 266 -2 266 -59 353 c 1,10,11
 -99 227 -99 227 -180 227 c 256,12,13
 -261 227 -261 227 -281 324 c 0,14,15
 -295 388 -295 388 -271 458 c 1,16,-1
 -227 458 l 1,17,18
 -231 405 -231 405 -225 377 c 0,19,20
 -215 330 -215 330 -166 330 c 0,21,22
 -93 330 -93 330 -104 485 c 1,23,-1
 -53 506 l 1,24,25
 -35 438 -35 438 -26 417 c 0,26,27
 -1 366 -1 366 43 366 c 0,28,29
 96 366 96 366 81 436 c 0,30,31
 73 472 73 472 47 524 c 1,32,-1
 100 543 l 1,4,5
EndSplineSet
Ligature2: "'ccmp' Glyph Composition/Decomposition in Arabic lookup 4 subtable" afii57457 afii57456
EndChar

StartChar: afii62945
Encoding: 65554 -1 234
Width: 1423
GlyphClass: 3
Flags: W
LayerCount: 2
Fore
SplineSet
1295 318 m 0,0,1
 1326 171 1326 171 1271 84 c 0,2,3
 1224 11 1224 11 1148 11 c 0,4,5
 997 11 997 11 908 156 c 1,6,7
 873 -15 873 -15 719 -15 c 0,8,9
 500 -15 500 -15 435 267 c 1,10,11
 366 198 366 198 240 198 c 0,12,13
 221 198 221 198 200 200 c 0,14,15
 53 212 53 212 29 325 c 0,16,17
 -9 510 -9 510 345 653 c 1,18,-1
 316 795 l 1,19,-1
 401 841 l 1,20,-1
 479 472 l 2,21,22
 516 297 516 297 532 260 c 0,23,24
 584 140 584 140 693 140 c 0,25,26
 786 140 786 140 798 234 c 0,27,28
 804 288 804 288 779 406 c 2,29,-1
 681 868 l 1,30,-1
 779 908 l 1,31,-1
 853 560 l 2,32,33
 891 383 891 383 926 310 c 0,34,35
 996 160 996 160 1121 160 c 0,36,37
 1216 160 1216 160 1178 343 c 0,38,39
 1124 597 1124 597 1007 939 c 1,40,-1
 1118 997 l 1,41,42
 1241 570 1241 570 1295 318 c 0,0,1
403 374 m 1,43,-1
 360 547 l 1,44,45
 298 537 298 537 223 487 c 0,46,47
 135 428 135 428 146 375 c 0,48,49
 153 340 153 340 260 340 c 0,50,51
 360 340 360 340 403 374 c 1,43,-1
EndSplineSet
EndChar

StartChar: afii64184
Encoding: 65010 65010 235
Width: 1443
GlyphClass: 3
Flags: W
AnchorPoint: "Anchor-3" 1275 -345 baselig 0
AnchorPoint: "Anchor-2" 1005 1035 baselig 0
AnchorPoint: "Anchor-3" 885 -360 baselig 1
AnchorPoint: "Anchor-2" 720 945 baselig 1
AnchorPoint: "Anchor-3" 420 -405 baselig 2
AnchorPoint: "Anchor-2" 135 825 baselig 2
LayerCount: 2
Fore
SplineSet
1291 318 m 0,0,1
 1322 171 1322 171 1267 84 c 0,2,3
 1220 11 1220 11 1144 11 c 0,4,5
 993 11 993 11 904 156 c 1,6,7
 869 -15 869 -15 715 -15 c 0,8,9
 496 -15 496 -15 431 267 c 1,10,11
 362 198 362 198 236 198 c 0,12,13
 217 198 217 198 196 200 c 0,14,15
 49 212 49 212 25 325 c 0,16,17
 -13 510 -13 510 341 653 c 1,18,-1
 312 795 l 1,19,-1
 397 841 l 1,20,-1
 475 472 l 2,21,22
 512 297 512 297 528 260 c 0,23,24
 580 140 580 140 689 140 c 0,25,26
 782 140 782 140 794 234 c 0,27,28
 800 288 800 288 775 406 c 2,29,-1
 677 868 l 1,30,-1
 775 908 l 1,31,-1
 849 560 l 2,32,33
 887 383 887 383 922 310 c 0,34,35
 992 160 992 160 1117 160 c 0,36,37
 1212 160 1212 160 1174 343 c 0,38,39
 1120 597 1120 597 1003 939 c 1,40,-1
 1114 997 l 1,41,42
 1237 570 1237 570 1291 318 c 0,0,1
399 374 m 1,43,-1
 356 547 l 1,44,45
 294 537 294 537 219 487 c 0,46,47
 131 428 131 428 142 375 c 0,48,49
 149 340 149 340 256 340 c 0,50,51
 356 340 356 340 399 374 c 1,43,-1
688 1241 m 1,52,-1
 653 1222 l 1,53,-1
 576 1409 l 1,54,-1
 644 1445 l 1,55,-1
 688 1241 l 1,52,-1
836 1208 m 1,56,57
 862 1157 862 1157 871 1112 c 0,58,59
 898 985 898 985 797 985 c 0,60,61
 750 985 750 985 705 1056 c 1,62,63
 672 954 672 954 606 954 c 0,64,65
 539 954 539 954 522 1032 c 0,66,67
 511 1083 511 1083 532 1140 c 1,68,-1
 569 1140 l 1,69,70
 564 1098 564 1098 569 1075 c 0,71,72
 577 1037 577 1037 618 1037 c 0,73,74
 677 1037 677 1037 670 1162 c 1,75,-1
 710 1178 l 1,76,77
 739 1066 739 1066 788 1066 c 0,78,79
 832 1066 832 1066 820 1122 c 0,80,81
 814 1151 814 1151 792 1192 c 1,82,-1
 836 1208 l 1,56,57
EndSplineSet
Ligature2: "'rlig' Required Ligatures in Arabic lookup 5 subtable" afii62817 afii62818 uniFC63 afii62828
Ligature2: "'rlig' Required Ligatures in Arabic lookup 5 subtable" afii62817 afii62818 afii57457 uni0670 afii62828
EndChar

StartChar: afii57415.001
Encoding: 1575 1575 249
Width: 350
GlyphClass: 2
Flags: W
AnchorPoint: "Anchor-1" 285 -360 basechar 0
AnchorPoint: "Anchor-0" -75 1365 basechar 0
LayerCount: 2
Fore
SplineSet
256 29 m 1,0,-1
 161 1 l 1,1,-1
 -128 1218 l 1,2,-1
 -6 1269 l 1,3,-1
 256 29 l 1,0,-1
EndSplineSet
Substitution2: "'fina' Terminal Forms in Arabic lookup 3 subtable" afii62760
EndChar

StartChar: afii62760.001
Encoding: 65555 -1 250
Width: 473
GlyphClass: 2
Flags: W
LayerCount: 2
Fore
SplineSet
473 0 m 1,0,-1
 443 0 l 2,1,2
 286 1 286 1 193 135 c 0,3,4
 129 227 129 227 82 411 c 0,5,6
 65 479 65 479 -1 775 c 0,7,8
 -48 983 -48 983 -114 1201 c 1,9,-1
 4 1269 l 1,10,11
 112 795 112 795 197 438 c 0,12,13
 228 309 228 309 266 248 c 0,14,15
 327 150 327 150 432 150 c 2,16,-1
 441 150 l 1,17,-1
 473 0 l 1,0,-1
EndSplineSet
EndChar

StartChar: afii57421
Encoding: 1581 1581 269
Width: 1146
GlyphClass: 2
Flags: W
AnchorPoint: "Anchor-1" 675 -1140 basechar 0
AnchorPoint: "Anchor-0" 360 900 basechar 0
LayerCount: 2
Fore
SplineSet
1322 -702 m 1,0,1
 1117 -771 1117 -771 923 -771 c 0,2,3
 646 -771 646 -771 463 -669 c 0,4,5
 240 -545 240 -545 185 -284 c 0,6,7
 139 -67 139 -67 276 109 c 0,8,9
 386 248 386 248 588 340 c 1,10,11
 331 411 331 411 294 411 c 0,12,13
 228 411 228 411 191 316 c 1,14,-1
 86 358 l 1,15,16
 129 561 129 561 247 561 c 0,17,18
 334 561 334 561 548 501 c 128,-1,19
 762 441 762 441 878 441 c 0,20,21
 930 441 930 441 983 446 c 1,22,-1
 977 296 l 1,23,24
 813 294 813 294 696 248 c 0,25,26
 510 175 510 175 405 58 c 0,27,28
 273 -91 273 -91 312 -273 c 0,29,30
 386 -623 386 -623 932 -623 c 0,31,32
 1116 -623 1116 -623 1256 -576 c 1,33,-1
 1322 -702 l 1,0,1
EndSplineSet
Substitution2: "'fina' Terminal Forms in Arabic lookup 3 subtable" afii62776
Substitution2: "'medi' Medial Forms in Arabic lookup 2 subtable" afii62775
Substitution2: "'init' Initial Forms in Arabic lookup 0 subtable" afii62774
EndChar

StartChar: afii62776
Encoding: 65186 65186 270
Width: 1134
GlyphClass: 2
Flags: W
AnchorPoint: "Anchor-1" 660 -1155 basechar 0
AnchorPoint: "Anchor-0" 420 825 basechar 0
LayerCount: 2
Fore
SplineSet
1322 -702 m 1,0,1
 1134 -771 1134 -771 923 -771 c 0,2,3
 646 -771 646 -771 463 -669 c 0,4,5
 240 -545 240 -545 185 -284 c 0,6,7
 139 -67 139 -67 280 113 c 0,8,9
 394 257 394 257 589 339 c 1,10,11
 331 411 331 411 294 411 c 0,12,13
 228 411 228 411 191 316 c 1,14,-1
 86 358 l 1,15,16
 129 561 129 561 247 561 c 0,17,18
 318 561 318 561 535 501 c 128,-1,19
 752 441 752 441 877 441 c 0,20,21
 930 441 930 441 983 446 c 1,22,-1
 977 296 l 1,23,24
 840 294 840 294 781 269 c 1,25,26
 808 193 808 193 874 168 c 0,27,28
 922 150 922 150 1032 150 c 2,29,-1
 1102 150 l 1,30,-1
 1134 0 l 1,31,-1
 1025 0 l 2,32,33
 916 1 916 1 829 72 c 128,-1,34
 742 143 742 143 710 251 c 1,35,36
 499 174 499 174 390 36 c 0,37,38
 278 -107 278 -107 314 -273 c 0,39,40
 388 -623 388 -623 932 -623 c 0,41,42
 1134 -623 1134 -623 1256 -576 c 1,43,-1
 1322 -702 l 1,0,1
EndSplineSet
EndChar

StartChar: afii62774
Encoding: 65187 65187 271
Width: 954
GlyphClass: 2
Flags: W
AnchorPoint: "Anchor-1" 480 -495 basechar 0
AnchorPoint: "Anchor-0" 375 900 basechar 0
LayerCount: 2
Fore
SplineSet
864 419 m 1,0,-1
 861 276 l 1,1,2
 689 275 689 275 576 203 c 1,3,4
 514 158 514 158 386 72 c 1,5,6
 272 1 272 1 81 0 c 2,7,-1
 -70 0 l 1,8,-1
 -101 150 l 1,9,-1
 55 150 l 2,10,11
 190 150 190 150 275 180 c 0,12,13
 330 199 330 199 420 256 c 0,14,15
 514 316 514 316 564 336 c 1,16,17
 505 350 505 350 373 405 c 0,18,19
 255 455 255 455 222 455 c 0,20,21
 171 455 171 455 105 372 c 1,22,-1
 10 421 l 1,23,24
 32 481 32 481 78 535 c 0,25,26
 132 599 132 599 180 599 c 0,27,28
 250 599 250 599 366 550 c 0,29,30
 550 472 550 472 583 461 c 0,31,32
 722 415 722 415 864 419 c 1,0,-1
EndSplineSet
EndChar

